<?xml version="1.0" encoding="UTF-8" standalone="no"?>
<!-- Created with matplotlib (http://matplotlib.org/) -->

<svg
   xmlns:dc="http://purl.org/dc/elements/1.1/"
   xmlns:cc="http://creativecommons.org/ns#"
   xmlns:rdf="http://www.w3.org/1999/02/22-rdf-syntax-ns#"
   xmlns:svg="http://www.w3.org/2000/svg"
   xmlns="http://www.w3.org/2000/svg"
   xmlns:xlink="http://www.w3.org/1999/xlink"
   xmlns:sodipodi="http://sodipodi.sourceforge.net/DTD/sodipodi-0.dtd"
   xmlns:inkscape="http://www.inkscape.org/namespaces/inkscape"
   height="325.95624"
   version="1.1"
   viewBox="0 0 371.78125 260.76499"
   width="464.72656"
   id="svg3181"
   inkscape:version="0.47 r22583"
   sodipodi:docname="prcurve.svg">
  <metadata
     id="metadata3500">
    <rdf:RDF>
      <cc:Work
         rdf:about="">
        <dc:format>image/svg+xml</dc:format>
        <dc:type
           rdf:resource="http://purl.org/dc/dcmitype/StillImage" />
      </cc:Work>
    </rdf:RDF>
  </metadata>
  <sodipodi:namedview
     pagecolor="#000000"
     bordercolor="#666666"
     borderopacity="1"
     objecttolerance="10"
     gridtolerance="10"
     guidetolerance="10"
     inkscape:pageopacity="0.48627451"
     inkscape:pageshadow="2"
     inkscape:window-width="1920"
     inkscape:window-height="1124"
     id="namedview3498"
     showgrid="false"
     inkscape:zoom="1.8541911"
     inkscape:cx="278.13034"
     inkscape:cy="177.38805"
     inkscape:window-x="0"
     inkscape:window-y="25"
     inkscape:window-maximized="1"
     inkscape:current-layer="figure_1" />
  <defs
     id="defs3183"
     style="stroke-linecap:butt;stroke-linejoin:round">
    <inkscape:perspective
       sodipodi:type="inkscape:persp3d"
       inkscape:vp_x="0 : 180 : 1"
       inkscape:vp_y="0 : 1000 : 0"
       inkscape:vp_z="540 : 180 : 1"
       inkscape:persp3d-origin="270 : 120 : 1"
       id="perspective3502" />
    <style
       type="text/css"
       id="style3185">
*{stroke-linecap:butt;stroke-linejoin:round;}
  </style>
    <clipPath
       clipPathUnits="userSpaceOnUse"
       id="clipPath3506">
      <rect
         style="opacity:0;fill:#000000;fill-opacity:1;fill-rule:nonzero;stroke:none"
         id="rect3508"
         width="377.52313"
         height="266.63919"
         x="13.375105"
         y="17.046268"
         ry="2.0230582" />
    </clipPath>
  </defs>
  <g
     id="figure_1"
     clip-path="url(#clipPath3506)"
     style="stroke-linecap:butt;stroke-linejoin:round"
     transform="translate(-17.418749,-19.65375)">
    <g
       id="patch_1"
       style="stroke-linecap:butt;stroke-linejoin:round">
      <path
         d="M 0,288 432,288 432,0 0,0 z"
         style="fill:none;stroke-linecap:butt;stroke-linejoin:round"
         id="path3189" />
    </g>
    <g
       id="axes_1"
       style="stroke-linecap:butt;stroke-linejoin:round">
      <g
         id="patch_2"
         style="stroke-linecap:butt;stroke-linejoin:round">
        <path
           d="m 54,252 334.8,0 0,-217.44 -334.8,0 z"
           style="fill:none;stroke-linecap:butt;stroke-linejoin:round"
           id="path3193" />
      </g>
      <g
         id="matplotlib.axis_1"
         style="stroke-linecap:butt;stroke-linejoin:round">
        <g
           id="xtick_1"
           style="stroke-linecap:butt;stroke-linejoin:round">
          <g
             id="line2d_1"
             style="stroke-linecap:butt;stroke-linejoin:round">
            <defs
               id="defs3198">
              <path
                 d="M 0,0 0,3.5"
                 id="me95b8246be"
                 style="stroke:#ffffff;stroke-width:0.80000001;stroke-linecap:butt;stroke-linejoin:round" />
            </defs>
            <g
               id="g3201"
               style="stroke-linecap:butt;stroke-linejoin:round">
              <use
                 style="fill:#ffffff;stroke:#ffffff;stroke-width:0.80000001;stroke-linecap:butt;stroke-linejoin:round"
                 x="68.697083"
                 xlink:href="#me95b8246be"
                 y="252"
                 id="use3203"
                 width="432"
                 height="288" />
            </g>
          </g>
          <g
             id="text_1"
             style="stroke-linecap:butt;stroke-linejoin:round">
            <!-- 0.0 -->
            <defs
               id="defs3206">
              <path
                 d="m 31.78125,66.40625 q -7.609375,0 -11.453125,-7.5 Q 16.5,51.421875 16.5,36.375 q 0,-14.984375 3.828125,-22.484375 3.84375,-7.5 11.453125,-7.5 7.671875,0 11.5,7.5 3.84375,7.5 3.84375,22.484375 0,15.046875 -3.84375,22.53125 -3.828125,7.5 -11.5,7.5 z m 0,7.8125 q 12.265625,0 18.734375,-9.703125 6.46875,-9.6875 6.46875,-28.140625 0,-18.40625 -6.46875,-28.109375 -6.46875,-9.6875 -18.734375,-9.6875 -12.25,0 -18.71875,9.6875 Q 6.59375,17.96875 6.59375,36.375 q 0,18.453125 6.46875,28.140625 6.46875,9.703125 18.71875,9.703125 z"
                 id="DejaVuSans-30"
                 style="stroke-linecap:butt;stroke-linejoin:round" />
              <path
                 d="M 10.6875,12.40625 21,12.40625 21,0 10.6875,0 z"
                 id="DejaVuSans-2e"
                 style="stroke-linecap:butt;stroke-linejoin:round" />
            </defs>
            <g
               style="fill:#ffffff;stroke-linecap:butt;stroke-linejoin:round"
               transform="matrix(0.1,0,0,-0.1,60.745519,266.59844)"
               id="g3210">
              <use
                 xlink:href="#DejaVuSans-30"
                 id="use3212"
                 style="stroke-linecap:butt;stroke-linejoin:round"
                 x="0"
                 y="0"
                 width="432"
                 height="288" />
              <use
                 x="63.623047"
                 xlink:href="#DejaVuSans-2e"
                 id="use3214"
                 style="stroke-linecap:butt;stroke-linejoin:round"
                 y="0"
                 width="432"
                 height="288" />
              <use
                 x="95.410156"
                 xlink:href="#DejaVuSans-30"
                 id="use3216"
                 style="stroke-linecap:butt;stroke-linejoin:round"
                 y="0"
                 width="432"
                 height="288" />
            </g>
          </g>
        </g>
        <g
           id="xtick_2"
           style="stroke-linecap:butt;stroke-linejoin:round">
          <g
             id="line2d_2"
             style="stroke-linecap:butt;stroke-linejoin:round">
            <g
               id="g3220"
               style="stroke-linecap:butt;stroke-linejoin:round">
              <use
                 style="fill:#ffffff;stroke:#ffffff;stroke-width:0.80000001;stroke-linecap:butt;stroke-linejoin:round"
                 x="129.67403"
                 xlink:href="#me95b8246be"
                 y="252"
                 id="use3222"
                 width="432"
                 height="288" />
            </g>
          </g>
          <g
             id="text_2"
             style="stroke-linecap:butt;stroke-linejoin:round">
            <!-- 0.2 -->
            <defs
               id="defs3225">
              <path
                 d="m 19.1875,8.296875 34.421875,0 0,-8.296875 -46.28125,0 0,8.296875 q 5.609375,5.8125 15.296875,15.59375 9.703125,9.796875 12.1875,12.640625 4.734375,5.3125 6.609375,9 1.890625,3.6875 1.890625,7.25 0,5.8125 -4.078125,9.46875 -4.078125,3.671875 -10.625,3.671875 -4.640625,0 -9.796875,-1.609375 -5.140625,-1.609375 -11,-4.890625 l 0,9.96875 Q 13.765625,71.78125 18.9375,73 q 5.1875,1.21875 9.484375,1.21875 11.328125,0 18.0625,-5.671875 6.734375,-5.65625 6.734375,-15.125 0,-4.5 -1.6875,-8.53125 Q 49.859375,40.875 45.40625,35.40625 44.1875,33.984375 37.640625,27.21875 31.109375,20.453125 19.1875,8.296875 z"
                 id="DejaVuSans-32"
                 style="stroke-linecap:butt;stroke-linejoin:round" />
            </defs>
            <g
               style="fill:#ffffff;stroke-linecap:butt;stroke-linejoin:round"
               transform="matrix(0.1,0,0,-0.1,121.72247,266.59844)"
               id="g3228">
              <use
                 xlink:href="#DejaVuSans-30"
                 id="use3230"
                 style="stroke-linecap:butt;stroke-linejoin:round"
                 x="0"
                 y="0"
                 width="432"
                 height="288" />
              <use
                 x="63.623047"
                 xlink:href="#DejaVuSans-2e"
                 id="use3232"
                 style="stroke-linecap:butt;stroke-linejoin:round"
                 y="0"
                 width="432"
                 height="288" />
              <use
                 x="95.410156"
                 xlink:href="#DejaVuSans-32"
                 id="use3234"
                 style="stroke-linecap:butt;stroke-linejoin:round"
                 y="0"
                 width="432"
                 height="288" />
            </g>
          </g>
        </g>
        <g
           id="xtick_3"
           style="stroke-linecap:butt;stroke-linejoin:round">
          <g
             id="line2d_3"
             style="stroke-linecap:butt;stroke-linejoin:round">
            <g
               id="g3238"
               style="stroke-linecap:butt;stroke-linejoin:round">
              <use
                 style="fill:#ffffff;stroke:#ffffff;stroke-width:0.80000001;stroke-linecap:butt;stroke-linejoin:round"
                 x="190.65097"
                 xlink:href="#me95b8246be"
                 y="252"
                 id="use3240"
                 width="432"
                 height="288" />
            </g>
          </g>
          <g
             id="text_3"
             style="stroke-linecap:butt;stroke-linejoin:round">
            <!-- 0.4 -->
            <defs
               id="defs3243">
              <path
                 d="m 37.796875,64.3125 -24.90625,-38.921875 24.90625,0 z m -2.59375,8.59375 12.40625,0 0,-47.515625 10.40625,0 0,-8.203125 -10.40625,0 0,-17.1875 -9.8125,0 0,17.1875 -32.90625,0 0,9.515625 z"
                 id="DejaVuSans-34"
                 style="stroke-linecap:butt;stroke-linejoin:round" />
            </defs>
            <g
               style="fill:#ffffff;stroke-linecap:butt;stroke-linejoin:round"
               transform="matrix(0.1,0,0,-0.1,182.69941,266.59844)"
               id="g3246">
              <use
                 xlink:href="#DejaVuSans-30"
                 id="use3248"
                 style="stroke-linecap:butt;stroke-linejoin:round"
                 x="0"
                 y="0"
                 width="432"
                 height="288" />
              <use
                 x="63.623047"
                 xlink:href="#DejaVuSans-2e"
                 id="use3250"
                 style="stroke-linecap:butt;stroke-linejoin:round"
                 y="0"
                 width="432"
                 height="288" />
              <use
                 x="95.410156"
                 xlink:href="#DejaVuSans-34"
                 id="use3252"
                 style="stroke-linecap:butt;stroke-linejoin:round"
                 y="0"
                 width="432"
                 height="288" />
            </g>
          </g>
        </g>
        <g
           id="xtick_4"
           style="stroke-linecap:butt;stroke-linejoin:round">
          <g
             id="line2d_4"
             style="stroke-linecap:butt;stroke-linejoin:round">
            <g
               id="g3256"
               style="stroke-linecap:butt;stroke-linejoin:round">
              <use
                 style="fill:#ffffff;stroke:#ffffff;stroke-width:0.80000001;stroke-linecap:butt;stroke-linejoin:round"
                 x="251.62793"
                 xlink:href="#me95b8246be"
                 y="252"
                 id="use3258"
                 width="432"
                 height="288" />
            </g>
          </g>
          <g
             id="text_4"
             style="stroke-linecap:butt;stroke-linejoin:round">
            <!-- 0.6 -->
            <defs
               id="defs3261">
              <path
                 d="m 33.015625,40.375 q -6.640625,0 -10.53125,-4.546875 -3.875,-4.53125 -3.875,-12.4375 0,-7.859375 3.875,-12.4375 3.890625,-4.5625 10.53125,-4.5625 6.640625,0 10.515625,4.5625 3.875,4.578125 3.875,12.4375 0,7.90625 -3.875,12.4375 Q 39.65625,40.375 33.015625,40.375 z m 19.578125,30.921875 0,-8.984375 q -3.71875,1.75 -7.5,2.671875 -3.78125,0.9375 -7.5,0.9375 -9.765625,0 -14.921875,-6.59375 -5.140625,-6.59375 -5.875,-19.921875 2.875,4.25 7.21875,6.515625 4.359375,2.265625 9.578125,2.265625 10.984375,0 17.359375,-6.671875 6.375,-6.65625 6.375,-18.125 0,-11.234375 -6.640625,-18.03125 -6.640625,-6.78125 -17.671875,-6.78125 -12.65625,0 -19.34375,9.6875 -6.6875,9.703125 -6.6875,28.109375 0,17.28125 8.203125,27.5625 8.203125,10.28125 22.015625,10.28125 3.71875,0 7.5,-0.734375 3.78125,-0.734375 7.890625,-2.1875 z"
                 id="DejaVuSans-36"
                 style="stroke-linecap:butt;stroke-linejoin:round" />
            </defs>
            <g
               style="fill:#ffffff;stroke-linecap:butt;stroke-linejoin:round"
               transform="matrix(0.1,0,0,-0.1,243.67636,266.59844)"
               id="g3264">
              <use
                 xlink:href="#DejaVuSans-30"
                 id="use3266"
                 style="stroke-linecap:butt;stroke-linejoin:round"
                 x="0"
                 y="0"
                 width="432"
                 height="288" />
              <use
                 x="63.623047"
                 xlink:href="#DejaVuSans-2e"
                 id="use3268"
                 style="stroke-linecap:butt;stroke-linejoin:round"
                 y="0"
                 width="432"
                 height="288" />
              <use
                 x="95.410156"
                 xlink:href="#DejaVuSans-36"
                 id="use3270"
                 style="stroke-linecap:butt;stroke-linejoin:round"
                 y="0"
                 width="432"
                 height="288" />
            </g>
          </g>
        </g>
        <g
           id="xtick_5"
           style="stroke-linecap:butt;stroke-linejoin:round">
          <g
             id="line2d_5"
             style="stroke-linecap:butt;stroke-linejoin:round">
            <g
               id="g3274"
               style="stroke-linecap:butt;stroke-linejoin:round">
              <use
                 style="fill:#ffffff;stroke:#ffffff;stroke-width:0.80000001;stroke-linecap:butt;stroke-linejoin:round"
                 x="312.60486"
                 xlink:href="#me95b8246be"
                 y="252"
                 id="use3276"
                 width="432"
                 height="288" />
            </g>
          </g>
          <g
             id="text_5"
             style="stroke-linecap:butt;stroke-linejoin:round">
            <!-- 0.8 -->
            <defs
               id="defs3279">
              <path
                 d="m 31.78125,34.625 q -7.03125,0 -11.0625,-3.765625 -4.015625,-3.765625 -4.015625,-10.34375 0,-6.59375 4.015625,-10.359375 4.03125,-3.765625 11.0625,-3.765625 7.03125,0 11.078125,3.78125 4.0625,3.796875 4.0625,10.34375 0,6.578125 -4.03125,10.34375 Q 38.875,34.625 31.78125,34.625 z m -9.859375,4.1875 Q 15.578125,40.375 12.03125,44.71875 8.5,49.078125 8.5,55.328125 q 0,8.734375 6.21875,13.8125 6.234375,5.078125 17.0625,5.078125 10.890625,0 17.09375,-5.078125 6.203125,-5.078125 6.203125,-13.8125 0,-6.25 -3.546875,-10.609375 Q 48,40.375 41.703125,38.8125 q 7.125,-1.65625 11.09375,-6.5 3.984375,-4.828125 3.984375,-11.796875 0,-10.609375 -6.46875,-16.28125 -6.46875,-5.65625 -18.53125,-5.65625 -12.046875,0 -18.53125,5.65625 -6.46875,5.671875 -6.46875,16.28125 0,6.96875 4,11.796875 4.015625,4.84375 11.140625,6.5 z M 18.3125,54.390625 q 0,-5.65625 3.53125,-8.828125 3.546875,-3.171875 9.9375,-3.171875 6.359375,0 9.9375,3.171875 3.59375,3.171875 3.59375,8.828125 0,5.671875 -3.59375,8.84375 -3.578125,3.171875 -9.9375,3.171875 -6.390625,0 -9.9375,-3.171875 Q 18.3125,60.0625 18.3125,54.390625 z"
                 id="DejaVuSans-38"
                 style="stroke-linecap:butt;stroke-linejoin:round" />
            </defs>
            <g
               style="fill:#ffffff;stroke-linecap:butt;stroke-linejoin:round"
               transform="matrix(0.1,0,0,-0.1,304.65331,266.59844)"
               id="g3282">
              <use
                 xlink:href="#DejaVuSans-30"
                 id="use3284"
                 style="stroke-linecap:butt;stroke-linejoin:round"
                 x="0"
                 y="0"
                 width="432"
                 height="288" />
              <use
                 x="63.623047"
                 xlink:href="#DejaVuSans-2e"
                 id="use3286"
                 style="stroke-linecap:butt;stroke-linejoin:round"
                 y="0"
                 width="432"
                 height="288" />
              <use
                 x="95.410156"
                 xlink:href="#DejaVuSans-38"
                 id="use3288"
                 style="stroke-linecap:butt;stroke-linejoin:round"
                 y="0"
                 width="432"
                 height="288" />
            </g>
          </g>
        </g>
        <g
           id="xtick_6"
           style="stroke-linecap:butt;stroke-linejoin:round">
          <g
             id="line2d_6"
             style="stroke-linecap:butt;stroke-linejoin:round">
            <g
               id="g3292"
               style="stroke-linecap:butt;stroke-linejoin:round">
              <use
                 style="fill:#ffffff;stroke:#ffffff;stroke-width:0.80000001;stroke-linecap:butt;stroke-linejoin:round"
                 x="373.58182"
                 xlink:href="#me95b8246be"
                 y="252"
                 id="use3294"
                 width="432"
                 height="288" />
            </g>
          </g>
          <g
             id="text_6"
             style="stroke-linecap:butt;stroke-linejoin:round">
            <!-- 1.0 -->
            <defs
               id="defs3297">
              <path
                 d="m 12.40625,8.296875 16.109375,0 0,55.625 -17.53125,-3.515625 0,8.984375 17.4375,3.515625 9.859375,0 0,-64.609375 16.109375,0 0,-8.296875 -41.984375,0 z"
                 id="DejaVuSans-31"
                 style="stroke-linecap:butt;stroke-linejoin:round" />
            </defs>
            <g
               style="fill:#ffffff;stroke-linecap:butt;stroke-linejoin:round"
               transform="matrix(0.1,0,0,-0.1,365.63026,266.59844)"
               id="g3300">
              <use
                 xlink:href="#DejaVuSans-31"
                 id="use3302"
                 style="stroke-linecap:butt;stroke-linejoin:round"
                 x="0"
                 y="0"
                 width="432"
                 height="288" />
              <use
                 x="63.623047"
                 xlink:href="#DejaVuSans-2e"
                 id="use3304"
                 style="stroke-linecap:butt;stroke-linejoin:round"
                 y="0"
                 width="432"
                 height="288" />
              <use
                 x="95.410156"
                 xlink:href="#DejaVuSans-30"
                 id="use3306"
                 style="stroke-linecap:butt;stroke-linejoin:round"
                 y="0"
                 width="432"
                 height="288" />
            </g>
          </g>
        </g>
        <g
           id="text_7"
           style="stroke-linecap:butt;stroke-linejoin:round">
          <!-- Recall -->
          <defs
             id="defs3309">
            <path
               d="m 44.390625,34.1875 q 3.171875,-1.078125 6.171875,-4.59375 3,-3.515625 6.03125,-9.671875 L 66.609375,0 56,0 46.6875,18.703125 q -3.625,7.328125 -7.015625,9.71875 -3.390625,2.390625 -9.25,2.390625 l -10.75,0 0,-30.8125 -9.859375,0 0,72.90625 22.265625,0 q 12.5,0 18.65625,-5.234375 6.15625,-5.21875 6.15625,-15.765625 0,-6.890625 -3.203125,-11.4375 -3.203125,-4.53125 -9.296875,-6.28125 z m -24.71875,30.609375 0,-25.875 12.40625,0 q 7.125,0 10.765625,3.296875 3.640625,3.296875 3.640625,9.6875 0,6.390625 -3.640625,9.640625 -3.640625,3.25 -10.765625,3.25 z"
               id="DejaVuSans-52"
               style="stroke-linecap:butt;stroke-linejoin:round" />
            <path
               d="m 56.203125,29.59375 0,-4.390625 -41.3125,0 q 0.59375,-9.28125 5.59375,-14.140625 5,-4.859375 13.9375,-4.859375 5.171875,0 10.03125,1.265625 4.859375,1.265625 9.65625,3.8125 l 0,-8.5 q -4.84375,-2.046875 -9.921875,-3.125 -5.078125,-1.078125 -10.296875,-1.078125 -13.09375,0 -20.734375,7.609375 -7.640625,7.625 -7.640625,20.625 0,13.421875 7.25,21.296875 Q 20.015625,56 32.328125,56 q 11.03125,0 17.453125,-7.109375 6.421875,-7.09375 6.421875,-19.296875 z m -8.984375,2.640625 q -0.09375,7.359375 -4.125,11.75 -4.03125,4.40625 -10.671875,4.40625 -7.515625,0 -12.03125,-4.25 -4.515625,-4.25 -5.203125,-11.96875 z"
               id="DejaVuSans-65"
               style="stroke-linecap:butt;stroke-linejoin:round" />
            <path
               d="m 48.78125,52.59375 0,-8.40625 q -3.8125,2.109375 -7.640625,3.15625 -3.828125,1.046875 -7.734375,1.046875 -8.75,0 -13.59375,-5.546875 -4.828125,-5.53125 -4.828125,-15.546875 0,-10.015625 4.828125,-15.5625 4.84375,-5.53125 13.59375,-5.53125 3.90625,0 7.734375,1.046875 3.828125,1.046875 7.640625,3.15625 l 0,-8.3125 q -3.765625,-1.75 -7.796875,-2.625 -4.015625,-0.890625 -8.5625,-0.890625 -12.359375,0 -19.640625,7.765625 -7.265625,7.765625 -7.265625,20.953125 0,13.375 7.34375,21.03125 Q 20.21875,56 33.015625,56 q 4.140625,0 8.09375,-0.859375 3.953125,-0.84375 7.671875,-2.546875 z"
               id="DejaVuSans-63"
               style="stroke-linecap:butt;stroke-linejoin:round" />
            <path
               d="m 34.28125,27.484375 q -10.890625,0 -15.09375,-2.484375 -4.203125,-2.484375 -4.203125,-8.5 0,-4.78125 3.15625,-7.59375 3.15625,-2.796875 8.5625,-2.796875 7.484375,0 12,5.296875 4.515625,5.296875 4.515625,14.078125 l 0,2 z m 17.921875,3.71875 0,-31.203125 -8.984375,0 0,8.296875 q -3.078125,-4.96875 -7.671875,-7.34375 -4.59375,-2.375 -11.234375,-2.375 -8.390625,0 -13.359375,4.71875 Q 6,8.015625 6,15.921875 q 0,9.21875 6.171875,13.90625 6.1875,4.6875 18.4375,4.6875 l 12.609375,0 0,0.890625 q 0,6.203125 -4.078125,9.59375 -4.078125,3.390625 -11.453125,3.390625 -4.6875,0 -9.140625,-1.125 -4.4375,-1.125 -8.53125,-3.375 l 0,8.3125 q 4.921875,1.90625 9.5625,2.84375 Q 24.21875,56 28.609375,56 q 11.875,0 17.734375,-6.15625 5.859375,-6.140625 5.859375,-18.640625 z"
               id="DejaVuSans-61"
               style="stroke-linecap:butt;stroke-linejoin:round" />
            <path
               d="m 9.421875,75.984375 8.984375,0 L 18.40625,0 9.421875,0 z"
               id="DejaVuSans-6c"
               style="stroke-linecap:butt;stroke-linejoin:round" />
          </defs>
          <g
             style="fill:#ffffff;stroke-linecap:butt;stroke-linejoin:round"
             transform="matrix(0.1,0,0,-0.1,206.26094,280.27656)"
             id="g3316">
            <use
               xlink:href="#DejaVuSans-52"
               id="use3318"
               style="stroke-linecap:butt;stroke-linejoin:round"
               x="0"
               y="0"
               width="432"
               height="288" />
            <use
               x="69.419922"
               xlink:href="#DejaVuSans-65"
               id="use3320"
               style="stroke-linecap:butt;stroke-linejoin:round"
               y="0"
               width="432"
               height="288" />
            <use
               x="130.94336"
               xlink:href="#DejaVuSans-63"
               id="use3322"
               style="stroke-linecap:butt;stroke-linejoin:round"
               y="0"
               width="432"
               height="288" />
            <use
               x="185.92383"
               xlink:href="#DejaVuSans-61"
               id="use3324"
               style="stroke-linecap:butt;stroke-linejoin:round"
               y="0"
               width="432"
               height="288" />
            <use
               x="247.20312"
               xlink:href="#DejaVuSans-6c"
               id="use3326"
               style="stroke-linecap:butt;stroke-linejoin:round"
               y="0"
               width="432"
               height="288" />
            <use
               x="274.98633"
               xlink:href="#DejaVuSans-6c"
               id="use3328"
               style="stroke-linecap:butt;stroke-linejoin:round"
               y="0"
               width="432"
               height="288" />
          </g>
        </g>
      </g>
      <g
         id="matplotlib.axis_2"
         style="stroke-linecap:butt;stroke-linejoin:round">
        <g
           id="ytick_1"
           style="stroke-linecap:butt;stroke-linejoin:round">
          <g
             id="line2d_7"
             style="stroke-linecap:butt;stroke-linejoin:round">
            <defs
               id="defs3333">
              <path
                 d="M 0,0 -3.5,0"
                 id="m58e487bd87"
                 style="stroke:#ffffff;stroke-width:0.80000001;stroke-linecap:butt;stroke-linejoin:round" />
            </defs>
            <g
               id="g3336"
               style="stroke-linecap:butt;stroke-linejoin:round">
              <use
                 style="fill:#ffffff;stroke:#ffffff;stroke-width:0.80000001;stroke-linecap:butt;stroke-linejoin:round"
                 x="54"
                 xlink:href="#m58e487bd87"
                 y="242.11636"
                 id="use3338"
                 width="432"
                 height="288" />
            </g>
          </g>
          <g
             id="text_8"
             style="stroke-linecap:butt;stroke-linejoin:round">
            <!-- 0.0 -->
            <g
               style="fill:#ffffff;stroke-linecap:butt;stroke-linejoin:round"
               transform="matrix(0.1,0,0,-0.1,31.096875,245.91558)"
               id="g3341">
              <use
                 xlink:href="#DejaVuSans-30"
                 id="use3343"
                 style="stroke-linecap:butt;stroke-linejoin:round"
                 x="0"
                 y="0"
                 width="432"
                 height="288" />
              <use
                 x="63.623047"
                 xlink:href="#DejaVuSans-2e"
                 id="use3345"
                 style="stroke-linecap:butt;stroke-linejoin:round"
                 y="0"
                 width="432"
                 height="288" />
              <use
                 x="95.410156"
                 xlink:href="#DejaVuSans-30"
                 id="use3347"
                 style="stroke-linecap:butt;stroke-linejoin:round"
                 y="0"
                 width="432"
                 height="288" />
            </g>
          </g>
        </g>
        <g
           id="ytick_2"
           style="stroke-linecap:butt;stroke-linejoin:round">
          <g
             id="line2d_8"
             style="stroke-linecap:butt;stroke-linejoin:round">
            <g
               id="g3351"
               style="stroke-linecap:butt;stroke-linejoin:round">
              <use
                 style="fill:#ffffff;stroke:#ffffff;stroke-width:0.80000001;stroke-linecap:butt;stroke-linejoin:round"
                 x="54"
                 xlink:href="#m58e487bd87"
                 y="202.58182"
                 id="use3353"
                 width="432"
                 height="288" />
            </g>
          </g>
          <g
             id="text_9"
             style="stroke-linecap:butt;stroke-linejoin:round">
            <!-- 0.2 -->
            <g
               style="fill:#ffffff;stroke-linecap:butt;stroke-linejoin:round"
               transform="matrix(0.1,0,0,-0.1,31.096875,206.38104)"
               id="g3356">
              <use
                 xlink:href="#DejaVuSans-30"
                 id="use3358"
                 style="stroke-linecap:butt;stroke-linejoin:round"
                 x="0"
                 y="0"
                 width="432"
                 height="288" />
              <use
                 x="63.623047"
                 xlink:href="#DejaVuSans-2e"
                 id="use3360"
                 style="stroke-linecap:butt;stroke-linejoin:round"
                 y="0"
                 width="432"
                 height="288" />
              <use
                 x="95.410156"
                 xlink:href="#DejaVuSans-32"
                 id="use3362"
                 style="stroke-linecap:butt;stroke-linejoin:round"
                 y="0"
                 width="432"
                 height="288" />
            </g>
          </g>
        </g>
        <g
           id="ytick_3"
           style="stroke-linecap:butt;stroke-linejoin:round">
          <g
             id="line2d_9"
             style="stroke-linecap:butt;stroke-linejoin:round">
            <g
               id="g3366"
               style="stroke-linecap:butt;stroke-linejoin:round">
              <use
                 style="fill:#ffffff;stroke:#ffffff;stroke-width:0.80000001;stroke-linecap:butt;stroke-linejoin:round"
                 x="54"
                 xlink:href="#m58e487bd87"
                 y="163.04727"
                 id="use3368"
                 width="432"
                 height="288" />
            </g>
          </g>
          <g
             id="text_10"
             style="stroke-linecap:butt;stroke-linejoin:round">
            <!-- 0.4 -->
            <g
               style="fill:#ffffff;stroke-linecap:butt;stroke-linejoin:round"
               transform="matrix(0.1,0,0,-0.1,31.096875,166.84649)"
               id="g3371">
              <use
                 xlink:href="#DejaVuSans-30"
                 id="use3373"
                 style="stroke-linecap:butt;stroke-linejoin:round"
                 x="0"
                 y="0"
                 width="432"
                 height="288" />
              <use
                 x="63.623047"
                 xlink:href="#DejaVuSans-2e"
                 id="use3375"
                 style="stroke-linecap:butt;stroke-linejoin:round"
                 y="0"
                 width="432"
                 height="288" />
              <use
                 x="95.410156"
                 xlink:href="#DejaVuSans-34"
                 id="use3377"
                 style="stroke-linecap:butt;stroke-linejoin:round"
                 y="0"
                 width="432"
                 height="288" />
            </g>
          </g>
        </g>
        <g
           id="ytick_4"
           style="stroke-linecap:butt;stroke-linejoin:round">
          <g
             id="line2d_10"
             style="stroke-linecap:butt;stroke-linejoin:round">
            <g
               id="g3381"
               style="stroke-linecap:butt;stroke-linejoin:round">
              <use
                 style="fill:#ffffff;stroke:#ffffff;stroke-width:0.80000001;stroke-linecap:butt;stroke-linejoin:round"
                 x="54"
                 xlink:href="#m58e487bd87"
                 y="123.51273"
                 id="use3383"
                 width="432"
                 height="288" />
            </g>
          </g>
          <g
             id="text_11"
             style="stroke-linecap:butt;stroke-linejoin:round">
            <!-- 0.6 -->
            <g
               style="fill:#ffffff;stroke-linecap:butt;stroke-linejoin:round"
               transform="matrix(0.1,0,0,-0.1,31.096875,127.31195)"
               id="g3386">
              <use
                 xlink:href="#DejaVuSans-30"
                 id="use3388"
                 style="stroke-linecap:butt;stroke-linejoin:round"
                 x="0"
                 y="0"
                 width="432"
                 height="288" />
              <use
                 x="63.623047"
                 xlink:href="#DejaVuSans-2e"
                 id="use3390"
                 style="stroke-linecap:butt;stroke-linejoin:round"
                 y="0"
                 width="432"
                 height="288" />
              <use
                 x="95.410156"
                 xlink:href="#DejaVuSans-36"
                 id="use3392"
                 style="stroke-linecap:butt;stroke-linejoin:round"
                 y="0"
                 width="432"
                 height="288" />
            </g>
          </g>
        </g>
        <g
           id="ytick_5"
           style="stroke-linecap:butt;stroke-linejoin:round">
          <g
             id="line2d_11"
             style="stroke-linecap:butt;stroke-linejoin:round">
            <g
               id="g3396"
               style="stroke-linecap:butt;stroke-linejoin:round">
              <use
                 style="fill:#ffffff;stroke:#ffffff;stroke-width:0.80000001;stroke-linecap:butt;stroke-linejoin:round"
                 x="54"
                 xlink:href="#m58e487bd87"
                 y="83.97818"
                 id="use3398"
                 width="432"
                 height="288" />
            </g>
          </g>
          <g
             id="text_12"
             style="stroke-linecap:butt;stroke-linejoin:round">
            <!-- 0.8 -->
            <g
               style="fill:#ffffff;stroke-linecap:butt;stroke-linejoin:round"
               transform="matrix(0.1,0,0,-0.1,31.096875,87.777401)"
               id="g3401">
              <use
                 xlink:href="#DejaVuSans-30"
                 id="use3403"
                 style="stroke-linecap:butt;stroke-linejoin:round"
                 x="0"
                 y="0"
                 width="432"
                 height="288" />
              <use
                 x="63.623047"
                 xlink:href="#DejaVuSans-2e"
                 id="use3405"
                 style="stroke-linecap:butt;stroke-linejoin:round"
                 y="0"
                 width="432"
                 height="288" />
              <use
                 x="95.410156"
                 xlink:href="#DejaVuSans-38"
                 id="use3407"
                 style="stroke-linecap:butt;stroke-linejoin:round"
                 y="0"
                 width="432"
                 height="288" />
            </g>
          </g>
        </g>
        <g
           id="ytick_6"
           style="stroke-linecap:butt;stroke-linejoin:round">
          <g
             id="line2d_12"
             style="stroke-linecap:butt;stroke-linejoin:round">
            <g
               id="g3411"
               style="stroke-linecap:butt;stroke-linejoin:round">
              <use
                 style="fill:#ffffff;stroke:#ffffff;stroke-width:0.80000001;stroke-linecap:butt;stroke-linejoin:round"
                 x="54"
                 xlink:href="#m58e487bd87"
                 y="44.443638"
                 id="use3413"
                 width="432"
                 height="288" />
            </g>
          </g>
          <g
             id="text_13"
             style="stroke-linecap:butt;stroke-linejoin:round">
            <!-- 1.0 -->
            <g
               style="fill:#ffffff;stroke-linecap:butt;stroke-linejoin:round"
               transform="matrix(0.1,0,0,-0.1,31.096875,48.242855)"
               id="g3416">
              <use
                 xlink:href="#DejaVuSans-31"
                 id="use3418"
                 style="stroke-linecap:butt;stroke-linejoin:round"
                 x="0"
                 y="0"
                 width="432"
                 height="288" />
              <use
                 x="63.623047"
                 xlink:href="#DejaVuSans-2e"
                 id="use3420"
                 style="stroke-linecap:butt;stroke-linejoin:round"
                 y="0"
                 width="432"
                 height="288" />
              <use
                 x="95.410156"
                 xlink:href="#DejaVuSans-30"
                 id="use3422"
                 style="stroke-linecap:butt;stroke-linejoin:round"
                 y="0"
                 width="432"
                 height="288" />
            </g>
          </g>
        </g>
        <g
           id="text_14"
           style="stroke-linecap:butt;stroke-linejoin:round">
          <!-- Precision -->
          <defs
             id="defs3425">
            <path
               d="m 19.671875,64.796875 0,-27.390625 12.40625,0 q 6.890625,0 10.640625,3.5625 3.765625,3.5625 3.765625,10.15625 0,6.546875 -3.765625,10.109375 -3.75,3.5625 -10.640625,3.5625 z M 9.8125,72.90625 l 22.265625,0 q 12.265625,0 18.53125,-5.546875 6.28125,-5.546875 6.28125,-16.234375 0,-10.796875 -6.28125,-16.3125 -6.265625,-5.515625 -18.53125,-5.515625 l -12.40625,0 L 19.671875,0 9.8125,0 z"
               id="DejaVuSans-50"
               style="stroke-linecap:butt;stroke-linejoin:round" />
            <path
               d="m 41.109375,46.296875 q -1.515625,0.875 -3.296875,1.28125 Q 36.03125,48 33.890625,48 26.265625,48 22.1875,43.046875 18.109375,38.09375 18.109375,28.8125 l 0,-28.8125 -9.03125,0 0,54.6875 9.03125,0 0,-8.5 q 2.84375,4.984375 7.375,7.390625 Q 30.03125,56 36.53125,56 q 0.921875,0 2.046875,-0.125 1.125,-0.109375 2.484375,-0.359375 z"
               id="DejaVuSans-72"
               style="stroke-linecap:butt;stroke-linejoin:round" />
            <path
               d="m 9.421875,54.6875 8.984375,0 0,-54.6875 -8.984375,0 z m 0,21.296875 8.984375,0 0,-11.390625 -8.984375,0 z"
               id="DejaVuSans-69"
               style="stroke-linecap:butt;stroke-linejoin:round" />
            <path
               d="m 44.28125,53.078125 0,-8.5 Q 40.484375,46.53125 36.375,47.5 q -4.09375,0.984375 -8.5,0.984375 -6.6875,0 -10.03125,-2.046875 Q 14.5,44.390625 14.5,40.28125 q 0,-3.125 2.390625,-4.90625 2.390625,-1.78125 9.625,-3.390625 l 3.078125,-0.6875 Q 39.15625,29.25 43.1875,25.515625 47.21875,21.78125 47.21875,15.09375 q 0,-7.625 -6.03125,-12.078125 -6.03125,-4.4375 -16.578125,-4.4375 -4.390625,0 -9.15625,0.859375 Q 10.6875,0.296875 5.421875,2 l 0,9.28125 q 4.984375,-2.59375 9.8125,-3.890625 4.828125,-1.28125 9.578125,-1.28125 6.34375,0 9.75,2.171875 3.421875,2.171875 3.421875,6.125 0,3.65625 -2.46875,5.609375 -2.453125,1.953125 -10.8125,3.765625 l -3.125,0.734375 q -8.34375,1.75 -12.0625,5.390625 -3.703125,3.640625 -3.703125,9.984375 0,7.71875 5.46875,11.90625 Q 16.75,56 26.8125,56 q 4.96875,0 9.359375,-0.734375 4.40625,-0.71875 8.109375,-2.1875 z"
               id="DejaVuSans-73"
               style="stroke-linecap:butt;stroke-linejoin:round" />
            <path
               d="m 30.609375,48.390625 q -7.21875,0 -11.421875,-5.640625 -4.203125,-5.640625 -4.203125,-15.453125 0,-9.8125 4.171875,-15.453125 4.1875,-5.640625 11.453125,-5.640625 7.1875,0 11.375,5.65625 4.203125,5.671875 4.203125,15.4375 0,9.71875 -4.203125,15.40625 -4.1875,5.6875 -11.375,5.6875 z m 0,7.609375 q 11.71875,0 18.40625,-7.625 6.703125,-7.609375 6.703125,-21.078125 0,-13.421875 -6.703125,-21.078125 -6.6875,-7.640625 -18.40625,-7.640625 -11.765625,0 -18.4375,7.640625 -6.65625,7.65625 -6.65625,21.078125 0,13.46875 6.65625,21.078125 Q 18.84375,56 30.609375,56 z"
               id="DejaVuSans-6f"
               style="stroke-linecap:butt;stroke-linejoin:round" />
            <path
               d="m 54.890625,33.015625 0,-33.015625 -8.984375,0 0,32.71875 q 0,7.765625 -3.03125,11.609375 -3.03125,3.859375 -9.078125,3.859375 -7.28125,0 -11.484375,-4.640625 -4.203125,-4.625 -4.203125,-12.640625 l 0,-30.90625 -9.03125,0 0,54.6875 9.03125,0 0,-8.5 q 3.234375,4.9375 7.59375,7.375 4.375,2.4375 10.09375,2.4375 9.421875,0 14.25,-5.828125 4.84375,-5.828125 4.84375,-17.15625 z"
               id="DejaVuSans-6e"
               style="stroke-linecap:butt;stroke-linejoin:round" />
          </defs>
          <g
             style="fill:#ffffff;stroke-linecap:butt;stroke-linejoin:round"
             transform="matrix(0,-0.1,-0.1,0,25.017187,165.78469)"
             id="g3433">
            <use
               xlink:href="#DejaVuSans-50"
               id="use3435"
               style="stroke-linecap:butt;stroke-linejoin:round"
               x="0"
               y="0"
               width="432"
               height="288" />
            <use
               x="60.287109"
               xlink:href="#DejaVuSans-72"
               id="use3437"
               style="stroke-linecap:butt;stroke-linejoin:round"
               y="0"
               width="432"
               height="288" />
            <use
               x="101.36914"
               xlink:href="#DejaVuSans-65"
               id="use3439"
               style="stroke-linecap:butt;stroke-linejoin:round"
               y="0"
               width="432"
               height="288" />
            <use
               x="162.89258"
               xlink:href="#DejaVuSans-63"
               id="use3441"
               style="stroke-linecap:butt;stroke-linejoin:round"
               y="0"
               width="432"
               height="288" />
            <use
               x="217.87305"
               xlink:href="#DejaVuSans-69"
               id="use3443"
               style="stroke-linecap:butt;stroke-linejoin:round"
               y="0"
               width="432"
               height="288" />
            <use
               x="245.65625"
               xlink:href="#DejaVuSans-73"
               id="use3445"
               style="stroke-linecap:butt;stroke-linejoin:round"
               y="0"
               width="432"
               height="288" />
            <use
               x="297.75586"
               xlink:href="#DejaVuSans-69"
               id="use3447"
               style="stroke-linecap:butt;stroke-linejoin:round"
               y="0"
               width="432"
               height="288" />
            <use
               x="325.53906"
               xlink:href="#DejaVuSans-6f"
               id="use3449"
               style="stroke-linecap:butt;stroke-linejoin:round"
               y="0"
               width="432"
               height="288" />
            <use
               x="386.7207"
               xlink:href="#DejaVuSans-6e"
               id="use3451"
               style="stroke-linecap:butt;stroke-linejoin:round"
               y="0"
               width="432"
               height="288" />
          </g>
        </g>
      </g>
      <g
         id="line2d_13"
         style="stroke-linecap:butt;stroke-linejoin:round">
        <path
           clip-path="url(#pe0df8ce626)"
           d="m 69.218206,44.443636 -2.4e-5,0.009 0,0 0,0 0.03154,0.10821 0.107637,1.181293 1.88e-4,0 0.0074,0.10821 0.105743,1.460836 4.08e-4,0 0.006,0.10821 0.104203,1.695291 1.52e-4,0 0.01166,0.10821 0.101551,1.956799 5.26e-4,0 0.0068,0.10821 0.100467,2.037956 2e-5,0 0.0076,0.10821 0.09877,2.010903 6.09e-4,0 0.0044,0.108211 0.09759,1.956798 8.08e-4,0 0.009,0.10821 0.09794,1.830554 1.51e-4,0 0.0046,0.10821 0.09647,1.839571 3.32e-4,0 0.0099,0.10821 0.0962,1.686273 7.37e-4,0 0.007,0.10821 0.09412,1.758414 9.78e-4,0 0.0045,0.09018 -2.2e-5,0.01803 0.09304,1.767431 9.24e-4,0 0.0058,0.10821 0.09178,1.758413 9.96e-4,0 1.26e-4,0 -8.7e-5,0.009 0,0 0.09376,1.496906 10e-4,0 0.0058,0.09919 -6.6e-5,0.009 0.0924,1.596098 9.5e-5,0 0.0041,0.10821 0.09489,1.181293 0.0016,0 0.0059,0.10821 0.09141,1.514941 1.35e-4,0 0.0082,0.10821 0.09381,1.262451 1.17e-4,0 1.05e-4,0 0,0 0,0 0.08979,1.460836 6.6e-4,0 6.6e-5,0 0,0 0,0 0.0882,1.451818 0.0011,0 0.0068,0.09919 -1.34e-4,0.009 0.09064,1.235398 8.57e-4,0 0.0073,0.10821 0.08985,1.271469 1.39e-4,0 1e-6,0 0,0 0,0 0.09018,1.136205 0.0013,0 4.8e-5,0 0,0 0,0 0.0887,1.226381 3.59e-4,0 0.0091,0.09018 -1.08e-4,0.01803 0.09033,0.991926 0.0022,0 0.0066,0.10821 0.09077,1.000943 8.35e-4,0 8.5e-5,0 0,0 0,0 0.08724,1.127188 0.0011,0 0.0064,0.10821 0.08812,1.064065 6.92e-4,0 0.009,0.09018 -2.12e-4,0.01803 0.09155,0.730417 0.0037,0 0.006,0.09919 -1.33e-4,0.009 0.08588,1.100135 4.73e-4,0 0.01347,0.10821 0.0897,0.883716 8.03e-4,0 0.01238,0.10821 0.09118,0.820593 3.63e-4,0 0.0089,0.10821 0.08406,0.97389 0.0028,0 0.0097,0.10821 0.08404,1.009961 0.0014,0 0.01142,0.10821 0.08181,1.073083 7.55e-4,0 0.01422,0.09018 -3.85e-4,0.01803 0.08279,1.000943 8.36e-4,0 0.0078,0.10821 0.08198,1.027996 5.9e-5,0 0.0091,0.10821 0.0836,0.856663 0.0026,0 4.7e-5,0 0,0 0,0 0.08553,0.721396 0.004,0 0.02265,0.10821 0.08495,0.75747 0.0028,0 0.01263,0.0992 -1.96e-4,0.009 0.08349,0.86568 1.94e-4,0 0.02016,0.10821 0.07897,0.96488 6.61e-4,0 0.01355,0.10821 0.08338,0.82059 2.29e-4,0 0.01716,0.10821 0.08375,0.78452 3.4e-4,0 9.4e-5,0 0,0 0,0 0.08554,0.70337 8e-4,0 0.01722,0.10821 0.08645,0.65828 8.62e-4,0 0.0099,0.10821 0.08552,0.64024 0.0019,0 0.01125,0.10821 0.08423,0.69435 9.82e-4,0 0.01971,0.10821 0.08434,0.64024 0.0023,0 0.01487,0.10821 0.08245,0.60417 0.0046,0 0.01011,0.10821 0.07667,0.74846 0.0045,0 0.01439,0.10821 0.08,0.7214 9.92e-4,0 0.01641,0.10821 0.08432,0.6222 2.14e-4,0 0.0069,0.10821 0.08596,0.58614 5.71e-4,0 0.01613,0.10821 0.08373,0.61319 3.3e-5,0 0.01573,0.10821 0.07978,0.6673 9.01e-4,0 0.02175,0.10821 0.08678,0.50498 8.13e-4,0 9e-6,0 0,0 0,0 0.08327,0.55007 0.0017,0 0.02008,0.10821 0.08009,0.63122 4.11e-4,0 0.0265,0.10821 0.08181,0.50498 0.0043,0 0.02959,0.10821 0.07987,0.58614 0.0022,0 0.01135,0.10821 0.08466,0.46891 0.0023,0 0.01881,0.10821 0.08332,0.52302 2.33e-4,0 4.66e-4,0 0,0 0,0 0.08888,0.40578 0.001,0 0.02085,0.10821 0.08767,0.42383 8.53e-4,0 3.91e-4,0 0,0 0,0 0.08135,0.53203 2.31e-4,0 1.3e-5,0 0,0 0,0 0.07485,0.62221 0.0012,0 0.02046,0.10821 0.0807,0.52301 3.62e-4,0 9.1e-5,0 0,0 0,0 0.07824,0.514 0.0029,0 0.02088,0.0992 -1.92e-4,0.009 0.07701,0.47793 0.0057,0 0.02217,0.10821 0.07604,0.5681 6.67e-4,0 1.7e-4,0 0,0 0,0 0.07972,0.43284 0.0048,0 0.01655,0.10821 0.08326,0.44186 2.69e-4,0 0.03424,0.10821 0.08268,0.44186 3.11e-4,0 3.57e-4,0 0,0 0,0 0.08011,0.4148 0.0042,0 2.07e-4,0 0,0 0,0 0.07508,0.49596 0.0036,0 0.03087,0.0992 -3e-5,0.009 0.08002,0.45088 0.001,0 0.0086,0.10821 0.08054,0.44186 6.4e-4,0 1.9e-4,0 0,0 0,0 0.07987,0.45087 3.01e-4,0 1.8e-5,0 0,0 0,0 0.07826,0.45989 8.7e-4,0 0.02348,0.10821 0.0756,0.36071 0.01005,0 0.02409,0.0992 -4.47e-4,0.009 0.08148,0.37873 0.0025,0 0.02251,0.10821 0.08363,0.3607 0.0012,0 0.02125,0.10821 0.08042,0.38775 0.002,0 0.0245,0.10821 0.08251,0.37874 1.04e-4,0 0.03371,0.10821 0.0793,0.3607 0.0042,0 0.04101,0.10821 0.07553,0.44186 0.0011,0 0.02094,0.10821 0.07644,0.42382 0.0011,0 0.0016,0 -9.33e-4,0.0271 0,0 0.08446,0.25249 0.0072,0 3.04e-4,0 0,0 0,0 0.08134,0.34267 0.0021,0 0.01915,0.10821 0.08712,0.25249 0.0034,0 0.02996,0.10821 0.07431,0.42382 0.0014,0 0.02819,0.10821 0.07977,0.25249 0.01008,0 0.01568,0.10821 0.07533,0.40579 9e-4,0 0.02504,0.10821 0.08229,0.29758 0.003,0 0.0079,0.10821 0.076,0.37873 0.0017,0 0.0187,0.10821 0.0777,0.3607 0.0012,0 0.03662,0.0992 -3.71e-4,0.009 0.07541,0.37874 0.0013,0 4.67e-4,0 0,0 0,0 0.07485,0.35168 0.004,0 0.05016,0.10821 0.06781,0.42382 0.0037,0 8.27e-4,0 0,0 0,0 0.07382,0.38775 0.002,0 0.041,0.10821 0.07178,0.36972 0.0039,0 0.01975,0.10821 0.07219,0.39677 4.26e-4,0 0.03656,0.10821 0.07127,0.29758 0.01068,0 3.69e-4,0 0,0 0,0 0.07959,0.29758 0.0021,0 0.03775,0.0992 -4.05e-4,0.009 0.07909,0.30659 0.0012,0 0.04739,0.10821 0.06469,0.35169 0.01047,0 0.02829,0.0992 -1.51e-4,0.009 0.07924,0.24347 0.0078,0 0.05473,0.10821 0.07696,0.27052 0.0058,0 3.79e-4,0 0,0 0,0 0.08,0.27053 0.0025,0 0.03329,0.0992 -5.58e-4,0.009 0.07997,0.25249 0.0042,0 0.02501,0.10821 0.07912,0.27954 0.0017,0 0.033,0.10821 0.07144,0.31561 0.0049,0 0.02847,0.10821 0.06735,0.37874 0.0014,0 9.29e-4,0 0,0 0,0 0.07324,0.31561 0.0024,0 0.02366,0.10821 0.0723,0.31562 0.0029,0 0.01289,0.0721 -0.0018,0.0361 0.07532,0.28856 0.0026,0 4.02e-4,0 0,0 0,0 0.0736,0.2615 0.0073,0 0.03872,0.10821 0.07927,0.19839 0.0088,0 6.96e-4,0 0,0 0,0 0.08092,0.24347 0.0015,0 0.04327,0.10821 0.07935,0.2074 0.0071,0 0.03639,0.10821 0.07138,0.3066 0.0025,0 0.03195,0.10821 0.06868,0.32463 0.0024,0 0.0019,0 -8.42e-4,0.009 0,0 0.08854,0.17133 0.0017,0 9.73e-4,0 0,0 0,0 0.06873,0.26151 0.0098,0 0.04436,0.10821 0.08084,0.23445 0.0021,0 0.02591,0.10821 0.07864,0.18035 0.0097,0 0.04814,0.10821 0.07797,0.22544 0.0042,0 0.02712,0.10821 0.07834,0.2074 0.0059,0 0.03049,0.0992 -5.42e-4,0.009 0.08085,0.22544 6.35e-4,0 2.89e-4,0 0,0 0,0 0.05989,0.36972 0.0016,0 0.03875,0.10821 0.08149,0.21642 6.57e-4,0 0.0384,0.10821 0.08318,0.18937 0.0024,0 0.04028,0.10821 0.07662,0.24347 9.97e-4,0 0.0503,0.10821 0.06454,0.27954 0.0075,0 6.37e-4,0 0,0 0,0 0.07169,0.18937 0.01309,0 7.75e-4,0 0,0 0,0 0.07941,0.19838 0.0039,0 0.02151,0.0721 -0.0014,0.0361 0.07718,0.14427 0.01379,0 0.027,0.10821 0.08499,0.18035 4.07e-4,0 0.06185,0.10821 0.05903,0.24348 0.01659,0 0.0011,0 0,0 0,0 0.07337,0.24347 0.002,0 0.03411,0.0992 -0.0012,0.009 0.06766,0.27954 0.0017,0 0.02282,0.0992 -0.0013,0.009 0.07633,0.21642 0.0025,0 0.02901,0.10821 0.07574,0.22544 0.0013,0 0.05611,0.10821 0.07226,0.22544 0.0044,0 0.06543,0.0992 -3.02e-4,0.009 0.07271,0.22544 0.0036,0 0.06309,0.10821 0.07407,0.23445 3.17e-4,0 0.05577,0.10821 0.08353,0.17133 8.08e-4,0 0.07396,0.10821 0.07891,0.18937 0.0021,0 6.62e-4,0 0,0 0,0 0.07182,0.21642 0.0044,0 5.02e-4,0 0,0 0,0 0.06538,0.18937 0.01517,0 0.0539,0.10821 0.07851,0.18937 0.0017,0 0.07639,0.10821 0.08148,0.15329 0.0047,0 0.0013,0 0,0 0,0 0.08598,0.1533 0.05151,0.10821 0.08164,0.17133 9.14e-4,0 0.04372,0.0992 -8.72e-4,0.009 0.06638,0.24348 0.0031,0 0.02371,0.0631 -5.44e-4,0.0451 0.07156,0.17133 0.01049,0 0.03336,0.10821 0.07288,0.19838 0.0039,0 0.03804,0.0992 -0.0015,0.009 0.06804,0.22543 0.0035,0 6.84e-4,0 0,0 0,0 0.06091,0.27053 0.0021,0 2.97e-4,0 0,0 0,0 0.06381,0.22544 0.0072,0 0.05945,0.10821 0.07048,0.14428 0.01538,0 0.06217,0.10821 0.07556,0.18035 0.0032,0 0.02551,0.10821 0.08155,0.13526 0.0056,0 0.04735,0.0992 -10e-4,0.009 0.06609,0.2074 0.0069,0 0.06811,0.10821 0.07131,0.1533 0.01183,0 0.03337,0.10821 0.06679,0.23445 0.04658,0.0902 -0.0012,0.018 0.07469,0.19839 0.0011,0 0.0029,0 -0.0014,0.009 0,0 0.07217,0.19838 0.0013,0 0.0022,0 -0.001,0.009 0,0 0.06475,0.23445 0.0012,0 0.05172,0.0902 -0.0018,0.018 0.06924,0.11723 0.02012,0 9.42e-4,0 0,0 0,0 0.06686,0.1533 0.01499,0 0.152906,0.0992 -4.29e-4,0.009 0.08033,0.12624 0.0067,0 0.02426,0.0902 -0.002,0.018 0.06589,0.22544 1.25e-4,0 0.05372,0.10821 0.06292,0.16232 0.01605,0 0.06672,0.0992 -0.0014,0.009 0.0611,0.19838 0.0098,0 9.01e-4,0 0,0 0,0 0.07415,0.17134 0.0025,0 0.03473,0.10821 0.07341,0.14428 0.0087,0 0.07708,0.10821 0.06722,0.2074 8.08e-4,0 0.103536,0.10821 0.06899,0.17133 0.0065,0 0.0033,0 -0.0019,0.009 0,0 0.08505,0.12624 4.18e-4,0 9.74e-4,0 0,0 0,0 0.06419,0.17134 0.01095,0 0.03666,0.10821 0.05464,0.25249 0.0017,0 0.09315,0.0902 -0.0026,0.018 0.07258,0.16231 0.0039,0 0.0795,0.0992 -4.86e-4,0.009 0.08998,0.0992 8.9e-4,0 5.93e-4,0 0,0 0,0 0.07389,0.17134 0.001,0 0,0 0,0 0.05826,0.18936 0.01118,0 0.04237,0.10821 0.06368,0.20741 0.0011,0 0.03158,0.10821 0.09585,0.0721 0.0011,0 0.03912,0.10821 0.07001,0.14428 0.0093,0 0.06099,0.0992 -0.0012,0.009 0.0777,0.0992 0.01237,0 0.07573,0.10821 0.06975,0.1533 0.0069,0 0.08189,0.0992 -0.0016,0.009 0.06616,0.18936 0.0012,0 0.0509,0.10821 0.05961,0.21643 5.07e-4,0 8.46e-4,0 0,0 0,0 0.072,0.16231 0.0015,0 0.0022,0 0,0 0,0 0.07701,0.10821 0.01,0 0.07006,0.10821 0.05822,0.1533 0.01699,0 0.08194,0.0992 -2.15e-4,0.009 0.0618,0.18937 0.0037,0 0.06145,0.10821 0.07386,0.14428 0.0031,0 0.002,0 0,0 0,0 0.06389,0.17133 0.0059,0 0.04692,0.10821 0.06433,0.1533 0.0098,0 0.04312,0.10821 0.07396,0.15329 0.05091,0.10821 0.06088,0.17134 0.0078,0 0.05144,0.10821 0.06979,0.13526 0.0085,0 0.007,0 -0.0049,0.018 0,0 0.05424,0.14428 0.02131,0 9.78e-4,0 0,0 0,0 0.04456,0.13527 0.03331,0 0.06953,0.0902 -0.0018,0.018 0.07682,0.11722 0.0058,0 0.0014,0 0,0 0,0 0.06734,0.17134 2.03e-4,0 0.003,0 -0.0021,0.009 0,0 0.04777,0.14428 0.02712,0 0.0045,0 -0.0028,0.0361 0,0 0.07124,0.11723 0.01112,0 0.02391,0.0721 -0.0047,0.0361 0.05234,0.13526 0.02458,0 0.08233,0.10821 0.04955,0.19839 0.0091,0 0.03079,0.10821 0.05703,0.19838 0.0011,0 0.0024,0 0,0 0,0 0.07876,0.11723 0.0028,0 6.49e-4,0 0,0 0,0 0.05776,0.18937 0.0026,0 0.10322,0.10821 0.06353,0.12625 0.01488,0 4.45e-4,0 0,0 0,0 0.06309,0.0902 0.02598,0 0.03492,0.10821 0.06356,0.17133 0.0011,0 0.0018,0 0,0 0,0 0.06215,0.16232 0.005,0 0.113814,0.0992 -0.0027,0.009 -0.0027,0.009 0.03243,0 0,0 0.0503,0.0992 -0.002,0.009 0.06914,0.12624 0.0085,0 0.107125,0.0992 -0.0028,0.009 0.05928,0.18035 0.0014,0 0.102077,0.0812 -0.0014,0.0271 0.03549,0.0992 0.04988,0 0.0522,0.10821 0.06184,0.1533 0.0064,0 0.0025,0 0,0 0,0 0.05155,0.17133 0.01095,0 0.07779,0.0992 -0.0016,0.009 0.05753,0.14428 0.01315,0 0.09521,0.10821 0.06288,0.12625 0.01312,0 0.07429,0.10821 0.06616,0.13526 0.0068,0 0.128177,0.10821 0.05551,0.16232 0.008,0 0.134743,0.10821 0.07371,0.10821 0.0073,0 0.09306,0.10821 0.0714,0.12624 0.0033,0 0.131747,0.10821 0.07967,0.0631 0.01606,0 0.002,0 0,0 0,0 0.05021,0.18937 0.0028,0 0.03991,0.10821 0.06678,0.0992 0.01667,0 0.05926,0.0902 -4.29e-4,0.018 0.07793,0.10821 0.002,0 0.0032,0 -0.0028,0.009 0,0 0.08524,0.0902 8.81e-4,0 0.05931,0.10821 -0.0031,0.009 0.02872,0 0,0 0.0056,0 -0.0038,0.0271 0,0 0.06665,0.11723 0.0099,0 0.167394,0.10821 0.05361,0.13526 0.01617,0 0.09776,0.0992 -0.002,0.009 0.04583,0.19838 0.0012,0 0.05128,0.10821 0.08293,0.0902 0.0025,0 0.131771,0.0992 -1e-4,0.009 0.03767,0.19838 0.0083,0 0.156982,0.10821 0.0584,0.13527 0.01011,0 0.108771,0.10821 0.08048,0.0992 9.95e-4,0 0.0033,0 0,0 0,0 0.07591,0.0902 0.009,0 0.0033,0 0,0 0,0 0.09047,0.0721 0.001,0 0.155638,0.10821 -0.0034,0.009 0.027,0 0,0 3.42e-4,0 0,0 0,0 -0.0034,0.009 0.02705,0 0,0 0.112803,0.0992 -0.002,0.009 0.07913,0.0902 0.0052,0 0.07391,0.0992 -0.0035,0.009 0.05078,0.14428 0.01271,0 0.15831,0.10821 0.0739,0.10821 0.0032,0 0.0018,0 0,0 0,0 0.07249,0.11723 7.26e-4,0 0.151054,0.10821 0.01632,0.0902 0.064,0.009 0.0026,0 0,0 0,0 0.0097,0.0271 0.08152,0.009 0,0 3.73e-4,0 0,0 0,0 0.05758,0.0902 0.02588,0 0.08187,0.10821 0.07177,0.0992 0.008,0 0.145221,0.10821 0.05152,0.1533 0.0062,0 0.175689,0.10821 0.05868,0.12625 0.0095,0 0.114075,0.1082 0.06188,0.13527 0.0024,0 0.105659,0.10821 0.07336,0.0992 0.0053,0 0.121652,0.10821 0.0736,0.10821 0.0012,0 0.04221,0.0902 -0.0014,0.018 0.05349,0.13526 0.0096,0 0.114102,0.10821 0.07527,0.0992 0.003,0 0.187869,0.0902 -0.0026,0.018 0.04557,0.16231 0.0052,0 0.0039,0 -4.27e-4,0.009 0,0 0.07256,0.0902 0.0092,0 0.205133,0.10821 0.05374,0.11723 0.0161,0 0.07079,0.10821 0.07355,0.0992 0.0041,0 0.0934,0.0631 -0.0018,0.0451 0.05304,0.11723 0.01608,0 0.131053,0.0992 -0.003,0.009 0.0594,0.11723 0.009,0 0.008,0.009 -0.006,0.018 0,0 0.0484,0.0992 0.0287,0 0.12146,0.10821 0.0753,0.0992 0.001,0 0.003,0 0,0 0,0 0.0348,0.0631 0.054,0.009 0.0637,0.10821 0.0529,0.14428 0.003,0 0.10141,0.10821 0.0508,0.11722 0.0173,0 0.19402,0.10821 0.0774,0.0812 0.007,0 0.0865,0.10821 0.0629,0.0992 0.0128,0 0.003,0 0,0 0,0 0.0331,0.0812 0.0513,0 0.14161,0.10821 -0.004,0.009 0.0229,0 0,0 0.004,0 0,0 0,0 0.0149,0.0721 0.065,0.018 0.004,0 0,0 0,0 0.0397,0.10821 0.0311,0 0.10662,0.0902 -2.5e-4,0.018 0.0712,0.0992 0.004,0 0.11687,0.10821 0.0654,0.10821 0.005,0 0.16831,0.10821 0.004,0.018 0.0319,0 0,0 0.11281,0.0902 -0.002,0.018 -0.004,0.009 0.0222,0 0,0 10e-4,0 0,0 0,0 0.0125,0.0812 0.0619,0.018 0.1008,0.10821 0.0768,0.0902 0.002,0 0.0626,0.10821 0.0286,0.0631 0.0636,0 0.10346,0.0992 -0.003,0.009 0.0567,0.10821 0.0128,0 0.001,0 0,0 0,0 0.003,0.0361 0.0849,0.0361 0.12024,0.10821 0.079,0.0812 0.004,0 0.13602,0.0902 -0.005,0.018 -0.007,0.018 0.0414,0 0,0 0.0362,0.0902 -0.006,0.018 0.0739,0.0902 0.004,0 0.0834,0.10821 0.0586,0.0902 0.0191,0 0.003,0 0,0 0,0 0.0538,0.10821 0.0142,0 0.0618,0.0812 -0.004,0.0271 0.043,0.0902 0.0296,0.009 6.2e-4,0 0,0 0,0 0.0403,0.11722 0.0226,0 0.12901,0.10821 -0.005,0.009 0.0216,0 0,0 0.0821,0.0902 -0.004,0.018 0.0269,0.0902 0.041,0.018 0.17247,0.0992 -3.5e-4,0.009 0.0463,0.0992 0.0262,0 0.005,0 0,0 0,0 -0.005,0.009 0.021,0 0,0 0.14739,0.10821 0.0139,0.0361 0.0781,0.0271 0.005,0 0,0 0,0 -0.004,0.0271 0.0684,0.009 0,0 0.12341,0.10821 0.0723,0.0902 0.004,0 0.1297,0.10821 0.0339,0.0631 0.0527,0.009 0.0542,0.0902 -0.003,0.018 0.0608,0.11723 0.1444,0.0992 -0.005,0.009 -0.006,0.018 0.0373,0 0,0 0.003,0 0,0 0,0 0.0452,0.1533 0.003,0 0.004,0 0,0 0,0 -0.005,0.009 0.0205,0 0,0 0.002,0 0,0 0,0 0.069,0.0992 0.002,0 0.004,0 0,0 0,0 -0.005,0.009 0.0207,0 0,0 0.0938,0.10821 0.0673,0.0992 0.004,0 0.003,0 0,0 0,0 0.0592,0.0992 0.0116,0 0.003,0 0,0 0,0 -0.008,0.018 0.0393,0 0,0 0.16025,0.10821 0.0492,0.0721 0.0317,0.009 0.006,0 -0.005,0.009 0,0 -0.005,0.009 0.02,0 0,0 0.0459,0.009 -0.0108,0.0992 0.0357,0.14428 0.008,0 0.20452,0.10821 0.003,0.018 0.0273,0 0,0 0.2042,0.10821 -0.005,0.009 0.02,0 0,0 0.11804,0.0992 -0.003,0.009 0.0451,0.0812 0.0296,0.009 0.0666,0.10821 0.0236,0.0361 0.0504,0.009 0,0 0.17955,0.0992 -0.006,0.009 0.004,0.18936 0.01,0 0.10677,0.0992 -0.006,0.009 0.0258,0.0812 0.0486,0.009 0.10287,0.10821 0.0211,0.0541 0.0697,0.009 0.0492,0.0451 -0.006,0.0631 -0.005,0.009 0.0214,0 0,0 0.10113,0.10821 -0.004,0.0361 0.0833,0.0451 0.003,0 0,0 0,0 0.003,0.0631 0.0824,0.009 0.13494,0.10821 -0.006,0.009 0.0195,0 0,0 0.15199,0.10821 0.0395,0.0631 0.0401,0.018 0.002,0 0,0 0,0 -0.006,0.009 0.0198,0 0,0 0.002,0 0,0 0,0 0.0551,0.0812 0.0243,0 0.004,0 0,0 0,0 -0.006,0.009 0.0191,0 0,0 8.7e-4,0 0,0 0,0 -0.006,0.009 0.0191,0 0,0 0.10554,0.10821 0.006,0.10821 0.0495,0.009 0.13025,0.10821 -0.006,0.009 0.0195,0 0,0 0.004,0 0,0 0,0 -0.006,0.009 0.0196,0 0,0 0.13645,0.10821 -1.7e-4,0.018 0.0269,0 0,0 0.19998,0.10821 -9e-5,0.018 0.0405,0.009 0,0 0.003,0 0,0 0,0 -0.0101,0.018 0.0365,0 0,0 0.003,0 0,0 0,0 0.0431,0.11722 0.0119,0 0.005,0 0,0 0,0 -0.006,0.009 0.0193,0 0,0 0.20897,0.10821 0.004,0.0721 0.0752,0.009 0.003,0 0,0 0,0 -0.006,0.009 0.0187,0 0,0 0.10198,0.10821 0.0629,0.0902 0.009,0 0.0429,0.0812 -0.003,0.0271 0.006,0.0541 0.0723,0.0271 0.12642,0.0992 -0.004,0.009 0.035,0.13526 0.007,0 0.0597,0.10821 -0.006,0.009 0.0185,0 0,0 0.11415,0.10821 -0.006,0.009 0.0187,0 0,0 0.01,0 -0.006,0.009 0,0 -0.006,0.009 0.0187,0 0,0 0.10001,0.0992 -3.3e-4,0.009 -0.0125,0.018 0.0377,0 0,0 0.16101,0.0721 -0.007,0.0361 -0.009,0.0271 0.0471,0 0,0 0.005,0 0,0 0,0 0.003,0.018 0.0221,0 0,0 0.29397,0.10821 -0.006,0.009 0.0184,0 0,0 0.10035,0.0902 -0.006,0.018 0.0264,0.14428 0.007,0 0.002,0 0,0 0,0 -0.006,0.009 0.0186,0 0,0 0.18497,0.10821 0.045,0.10821 0.0137,0 0.1099,0.10821 -0.007,0.009 0.018,0 0,0 0.003,0 0,0 0,0 -0.007,0.009 0.018,0 0,0 0.10049,0.10821 0.0286,0.0902 0.0363,0.009 0.004,0 0,0 0,0 -0.005,0.009 0.0193,0 0,0 0.006,0 0,0 0,0 -0.007,0.009 0.0183,0 0,0 0.006,0 0,0 0,0 -0.0276,0.0541 0.0856,0.0541 0.013,0 -0.009,0.018 0,0 -0.009,0.0361 0.0704,0.009 0,0 0.0906,0.0902 -0.007,0.018 -0.004,0.0271 0.0394,0 0,0 0.0904,0.10821 -0.007,0.009 0.0187,0 0,0 0.0992,0.0721 -0.008,0.0361 -0.001,0.0451 0.0612,0 0,0 0.37796,0.0992 -0.002,0.009 -0.007,0.009 0.0182,0 0,0 0.003,0 0,0 0,0 0.045,0.11723 0.006,0 0.005,0 0,0 0,0 0.0451,0.0721 0.039,0 0.10677,0.0902 -0.0114,0.018 0.004,0.018 0.0197,0 0,0 0.003,0 0,0 0,0 1.8e-4,0.018 0.0232,0 0,0 0.005,0 0,0 0,0 -0.006,0.018 0.029,0 0,0 0.10853,0.10821 0.0226,0.10821 0.034,0 0.1383,0.0902 -0.0115,0.018 -0.007,0.009 0.0178,0 0,0 0.31993,0.0992 -0.007,0.009 -0.0132,0.1533 0.0338,0 0.14081,0.0902 -0.008,0.018 -0.007,0.009 0.0183,0 0,0 0.004,0 0,0 0,0 -0.007,0.009 0.0183,0 0,0 0.005,0 0,0 0,0 -0.007,0.009 0.0183,0 0,0 0.0137,0.009 -0.0105,0.018 0,0 0.003,0.018 0.0196,0 0,0 0.17447,0.10821 -0.007,0.009 0.0173,0 0,0 0.17676,0.10821 -0.007,0.009 0.0175,0 0,0 0.1968,0.10821 -0.007,0.009 0.0177,0 0,0 0.0783,0.10821 -6.4e-4,0.0721 0.0698,0.018 0.2318,0.10821 -0.007,0.009 0.0181,0 0,0 0.16202,0.10821 -0.007,0.009 0.0183,0 0,0 0.12312,0.0631 -0.0185,0.0451 -0.007,0.009 0.0171,0 0,0 0.008,0 -0.002,0.009 0,0 -0.0164,0.0361 0.0926,0.0451 0.31238,0.0992 -0.003,0.009 -0.007,0.009 0.0175,0 0,0 0.003,0 0,0 0,0 -0.005,0.0271 0.0445,0 0,0 0.003,0 0,0 0,0 -0.003,0.018 0.0243,0 0,0 0.007,0 0,0 0,0 -0.0184,0.0271 0.0616,0.009 0,0 0.22361,0.10821 0.0469,0.10821 0.007,0 0.13465,0.10821 -0.007,0.0812 0.0608,0.0271 0.004,0 0,0 0,0 -0.008,0.009 0.0182,0 0,0 0.006,0 0,0 0,0 -0.008,0.009 0.0182,0 0,0 0.16108,0.10821 -0.008,0.009 0.0169,0 0,0 0.21903,0.0812 -0.003,0.0271 0.044,0.11723 10e-4,0 0.12131,0.0631 -0.0172,0.0451 0.0136,0.10821 0.0392,0 0.17292,0.10821 -0.008,0.009 0.0176,0 0,0 0.1904,0.0721 -0.006,0.0361 -0.002,0.018 0.0222,0 0,0 0.001,0 0,0 0,0 -0.008,0.009 0.0178,0 0,0 0.27831,0.10821 -0.008,0.009 0.0181,0 0,0 0.008,0 0,0 0,0 -0.008,0.009 0.0181,0 0,0 0.012,0 -0.008,0.009 0,0 -0.008,0.009 0.0181,0 0,0 0.005,0 0,0 0,0 -0.008,0.009 0.0181,0 0,0 0.18353,0.0992 -0.006,0.009 -0.008,0.009 0.0168,0 0,0 0.18238,0.10821 -0.008,0.009 0.0169,0 0,0 0.25487,0.10821 -0.008,0.009 0.0172,0 0,0 0.099,0.0812 -0.004,0.0271 -8.9e-4,0.0271 0.0299,0 0,0 0.15685,0.0902 -0.0101,0.018 -0.008,0.009 0.0175,0 0,0 0.30934,0.0992 -0.002,0.009 -0.007,0.0271 0.045,0.009 0,0 0.002,0 0,0 0,0 -0.008,0.009 0.0178,0 0,0 0.008,0 0,0 0,0 -0.008,0.009 0.0178,0 0,0 0.12481,0.0902 -0.005,0.018 -0.008,0.009 0.0179,0 0,0 0.14726,0.0992 -0.008,0.009 -0.008,0.009 0.0181,0 0,0 0.19853,0.10821 3.2e-4,0.11723 0.0417,0 0.0978,0.0992 -7e-5,0.009 -3.1e-4,0.0361 0.0387,0 0,0 0.18887,0.0992 -0.002,0.009 -0.007,0.0361 0.0545,0.009 0,0 0.36102,0.0902 -0.007,0.018 0.0231,0.0992 0.0348,0 0.25324,0.10821 -0.009,0.009 0.0176,0 0,0 0.0233,0.0271 -0.0155,0.0271 0,0 0.0184,0.0541 0.0462,0.009 0,0 0.0852,0.10821 0.0218,0.12625 0.009,0 0.0125,0 -0.005,0.009 0,0 -0.0158,0.018 0.0341,0 0,0 0.007,0 0,0 0,0 -0.009,0.009 0.0179,0 0,0 0.004,0 0,0 0,0 -0.009,0.009 0.0179,0 0,0 0.15733,0.10821 -0.009,0.009 0.0163,0 0,0 0.10395,0.0902 -0.016,0.018 0.0484,0.10821 0.17013,0.0992 -0.002,0.009 -0.009,0.018 0.0259,0 0,0 0.006,0 0,0 0,0 0.0327,0.0992 0.0241,0 0.2656,0.10821 -0.009,0.009 0.0169,0 0,0 0.18187,0.0992 -0.007,0.009 -0.009,0.009 0.0171,0 0,0 0.12317,0.10821 -0.002,0.0361 0.0465,0.009 0,0 0.002,0 0,0 0,0 -0.009,0.009 0.0173,0 0,0 0.19225,0.0992 -0.001,0.009 -0.009,0.009 0.0175,0 0,0 0.15802,0.10821 -0.009,0.009 0.0176,0 0,0 0.002,0 0,0 0,0 -0.009,0.009 0.0176,0 0,0 0.004,0 0,0 0,0 0.0176,0.0992 0.0207,0.018 0.17471,0.10821 -0.015,0.0451 0.0662,0.009 0,0 0.36917,0.10821 -0.009,0.009 0.0162,0 0,0 0.35584,0.10821 -0.003,0.018 0.0185,0 0,0 0.22213,0.0992 -0.008,0.009 -0.01,0.0271 0.0425,0.009 0,0 0.18428,0.10821 -0.007,0.018 0.0232,0 0,0 0.31063,0.0902 -0.013,0.018 -0.01,0.009 0.0171,0 0,0 0.0107,0 -10e-4,0.009 0,0 -0.0195,0.018 0.0342,0 0,0 0.26305,0.0992 -0.001,0.009 -0.01,0.009 0.0173,0 0,0 0.002,0 0,0 0,0 -0.0153,0.018 0.0304,0 0,0 0.15886,0.0721 -0.0328,0.0361 -0.01,0.009 0.0175,0 0,0 0.004,0 0,0 0,0 -0.0153,0.018 0.035,0 0,0 0.24917,0.10821 -0.0297,0.0451 0.0947,0.0451 0.007,0 0,0 0,0 -0.01,0.009 0.0178,0 0,0 0.35362,0.10821 -0.01,0.009 0.0181,0 0,0 0.005,0 0,0 0,0 -0.0117,0.0451 0.0602,0.009 0,0 0.11597,0.10821 -0.0101,0.009 0.016,0 0,0 0.009,0 0,0 0,0 -0.0133,0.018 0.0357,0.009 0,0 0.1682,0.10821 -0.0199,0.0361 0.0509,0 0,0 0.33614,0.0902 -0.004,0.018 -0.0371,0.0451 0.0838,0.009 0,0 0.0259,0 -0.0158,0.018 0,0 -0.0103,0.009 0.0165,0 0,0 0.0228,0.009 -0.0167,0.0271 0,0 -0.0103,0.009 0.0165,0 0,0 0.005,0 0,0 0,0 -0.027,0.0361 0.0803,0.0271 0,0 0.30532,0.10821 -0.005,0.0271 0.0264,0 0,0 0.12607,0.10821 1.8e-4,0.0271 0.0218,0 0,0 0.30156,0.10821 -0.0105,0.009 0.0172,0 0,0 0.002,0 0,0 0,0 -0.004,0.018 0.0172,0 0,0 0.002,0 0,0 0,0 -0.0105,0.009 0.0172,0 0,0 0.0246,0 -0.0231,0.0451 0,0 -0.0218,0.0271 0.0444,0 0,0 0.002,0 0,0 0,0 -0.0106,0.009 0.0173,0 0,0 0.0148,0 -0.008,0.009 0,0 -0.0122,0.0631 0.0737,0.009 0,0 0.26449,0.10821 -0.0206,0.0451 0.0812,0.0271 0,0 0.29512,0.10821 -0.0458,0.0812 0.0746,0.0361 0.005,0 0,0 0,0 -0.012,0.0721 0.0653,0.0271 0.16721,0.10821 -0.0109,0.009 0.0182,0 0,0 0.005,0 0,0 0,0 -0.0109,0.009 0.0182,0 0,0 0.22447,0.10821 -0.0202,0.0361 0.0623,0.018 0,0 0.25788,0.0992 -0.011,0.009 -0.0167,0.018 0.0293,0 0,0 0.003,0 0,0 0,0 -0.01,0.0361 0.0374,0 0,0 0.0134,0 -0.0111,0.009 0,0 -0.0118,0.0271 0.0321,0 0,0 0.008,0 0,0 0,0 -0.0111,0.009 0.0161,0 0,0 0.18852,0.0631 -0.007,0.0451 -0.0111,0.009 0.0162,0 0,0 0.0213,0.009 -0.0111,0.009 0,0 -0.0111,0.009 0.0162,0 0,0 0.38698,0.0992 -0.006,0.009 -0.0115,0.018 0.0247,0 0,0 0.2521,0.10821 -0.0257,0.0361 0.0529,0 0,0 0.006,0 0,0 0,0 -0.0198,0.018 0.0389,0.009 0,0 0.19193,0.0992 -0.009,0.009 -0.0143,0.018 0.0282,0 0,0 0.25978,0.10821 -0.0172,0.018 0.037,0.009 0,0 0.12853,0.0902 -0.003,0.018 -0.0115,0.009 0.0172,0 0,0 0.20524,0.10821 -0.0261,0.027 0.0465,0 0,0 0.3937,0.10821 -0.0117,0.009 0.0177,0 0,0 0.4043,0.10821 -0.0203,0.0271 0.0546,0.018 0,0 0.006,0 0,0 0,0 -0.0118,0.009 0.0181,0 0,0 0.003,0 0,0 0,0 -0.0118,0.009 0.0181,0 0,0 0.39526,0.10821 -0.032,0.0451 0.0773,0.018 0,0 0.0154,0 -0.009,0.009 0,0 -0.0119,0.009 0.0184,0 0,0 0.30161,0.10821 -0.0267,0.0271 0.0467,0 0,0 0.003,0 0,0 0,0 -0.012,0.009 0.0187,0 0,0 0.2439,0.10821 -0.0121,0.009 0.0158,0 0,0 0.0194,0.009 -0.008,0.0271 0,0 -0.0121,0.009 0.0158,0 0,0 0.006,0 0,0 0,0 -0.0148,0.018 0.0253,0 0,0 0.0723,0.0992 -0.009,0.009 -0.0122,0.009 0.0159,0 0,0 0.25284,0.10821 -0.0137,0.0361 0.0386,0 0,0 0.003,0 0,0 0,0 -0.0181,0.018 0.036,0.009 0,0 0.20064,0.0902 -0.0214,0.018 -0.0299,0.0361 0.0625,0.009 0,0 0.18839,0.10821 -0.015,0.018 0.0263,0 0,0 0.0197,0 -0.009,0.009 0,0 -0.011,0.10821 0.0495,0 0.003,0 0,0 0,0 -0.025,0.018 0.0364,0 0,0 0.16129,0.0992 -0.0125,0.009 -0.0125,0.009 0.0167,0 0,0 0.23117,0.10821 -0.0126,0.009 0.0169,0 0,0 0.34691,0.10821 -0.0152,0.018 0.0273,0 0,0 0.0103,0 0,0 0,0 -0.0127,0.009 0.0171,0 0,0 0.24257,0.10821 -0.007,0.0631 0.0565,0.009 0,0 0.45807,0.10821 -0.0129,0.009 0.0177,0 0,0 0.43756,0.0992 -0.009,0.009 -0.0234,0.0361 0.0467,0 0,0 0.34456,0.0992 -0.009,0.009 -0.0131,0.009 0.0182,0 0,0 0.007,0 0,0 0,0 -0.0131,0.009 0.0182,0 0,0 0.17507,0.10821 -0.0264,0.018 0.042,0.009 0,0 0.42707,0.10821 -0.0133,0.009 0.0187,0 0,0 0.2541,0.0721 -0.004,0.0361 -0.0134,0.009 0.0189,0 0,0 0.0114,0 0,0 0,0 -0.0193,0.018 0.0303,0 0,0 0.64637,0.10821 -0.01,0.0271 0.0271,0 0,0 0.34414,0.10821 -0.0213,0.0271 0.0354,0 0,0 0.44213,0.10821 -0.0138,0.009 0.016,0 0,0 0.21024,0.0541 -0.0145,0.0541 -0.0139,0.009 0.0161,0 0,0 0.51481,0.0992 -0.002,0.009 -0.0197,0.018 0.0288,0 0,0 0.31998,0.10821 -0.0141,0.009 0.0167,0 0,0 0.26343,0.0992 -0.0142,0.009 -0.0142,0.009 0.0168,0 0,0 0.21449,0.10821 -0.0142,0.009 0.017,0 0,0 0.0127,0 0,0 0,0 -0.0142,0.009 0.017,0 0,0 0.004,0 0,0 0,0 -0.0143,0.009 0.017,0 0,0 0.30358,0.0812 -0.0172,0.0271 -0.01,0.0361 0.0302,0 0,0 0.24893,0.0992 -0.006,0.009 -0.0202,0.018 0.0305,0 0,0 0.0131,0 0,0 0,0 -0.0145,0.009 0.0174,0 0,0 0.25397,0.0902 -0.0247,0.018 -0.0145,0.009 0.0176,0 0,0 0.022,0 -0.0145,0.009 0,0 -0.0146,0.009 0.0176,0 0,0 0.37985,0.10821 -0.0159,0.018 0.0268,0 0,0 0.30068,0.10821 -0.0397,0.0271 0.0577,0.009 0,0 0.0136,0 0,0 0,0 -0.0148,0.009 0.0181,0 0,0 0.40364,0.0992 -0.006,0.009 -0.0251,0.018 0.0322,0 0,0 0.22355,0.10821 -0.015,0.009 0.0186,0 0,0 0.38656,0.10821 -0.0151,0.009 0.0189,0 0,0 0.60466,0.10821 -0.0264,0.0271 0.0385,0 0,0 0.16587,0.0992 -0.006,0.009 -0.0153,0.009 0.0194,0 0,0 0.005,0 0,0 0,0 -0.0153,0.009 0.0194,0 0,0 0.28557,0.0992 -0.0105,0.009 -0.0161,0.018 0.0246,0 0,0 0.25996,0.0992 -0.006,0.009 -0.0155,0.009 0.0199,0 0,0 0.2987,0.0992 -0.006,0.009 -0.0156,0.009 0.0201,0 0,0 0.0251,0 -0.0156,0.009 0,0 -0.0312,0.018 0.0402,0 0,0 0.19636,0.10821 -0.0157,0.009 0.0203,0 0,0 0.34773,0.10821 -0.0423,0.0271 0.0566,0 0,0 0.005,0 0,0 0,0 -0.0317,0.018 0.046,0.009 0,0 0.32307,0.10821 -0.0159,0.009 0.0209,0 0,0 0.0157,0 0,0 0,0 -0.016,0.009 0.0209,0 0,0 0.20731,0.0992 -0.0108,0.009 -0.007,0.0631 0.0423,0 0,0 0.0159,0 0,0 0,0 -0.0161,0.009 0.0159,0 0,0 0.0159,0 0,0 0,0 -0.0161,0.009 0.0159,0 0,0 0.36069,0.0992 -0.0162,0.009 -0.0162,0.009 0.0161,0 0,0 0.16053,0.10821 -0.0163,0.009 0.0162,0 0,0 0.61721,0.10821 -0.0273,0.018 0.0331,0 0,0 0.58717,0.10821 -0.0331,0.018 0.0394,0 0,0 0.32057,0.0992 -0.0167,0.009 -0.0554,0.0361 0.0744,0.009 0,0 0.59844,0.10821 -0.0163,0.018 0.0232,0 0,0 0.006,0 0,0 0,0 -0.0169,0.009 0.0174,0 0,0 0.18833,0.10821 -0.0281,0.018 0.0417,0.009 0,0 0.0176,0 -0.0111,0.009 0,0 -0.0281,0.018 0.0353,0 0,0 0.60829,0.10821 -0.0171,0.009 0.018,0 0,0 0.39603,0.0992 -0.0173,0.009 -0.0173,0.009 0.0182,0 0,0 0.006,0 0,0 0,0 -0.0172,0.009 0.0182,0 0,0 0.14609,0.0541 -0.0184,0.0541 -0.0327,0.0361 0.0653,0.0361 0,0 0.0503,0.0631 -0.0338,0.027 0,0 -0.0174,0.009 0.0185,0 0,0 0.30301,0.0992 -0.0113,0.009 -0.0175,0.009 0.0187,0 0,0 0.5678,0.10821 -0.0291,0.018 0.0394,0.009 0,0 0.30595,0.0812 -0.009,0.027 -0.0178,0.009 0.0193,0 0,0 0.006,0 0,0 0,0 -0.0178,0.009 0.0193,0 0,0 0.006,0 0,0 0,0 -0.0164,0.018 0.0193,0 0,0 0.27638,0.10821 -0.0588,0.0361 0.0796,0.009 0,0 0.41256,0.0721 -0.0262,0.0361 -0.0181,0.009 0.0198,0 0,0 0.36086,0.0812 -0.0213,0.0271 -0.0231,0.018 0.0267,0 0,0 0.0134,0 0,0 0,0 -0.0182,0.009 0.0201,0 0,0 0.0134,0 0,0 0,0 -0.0547,0.0271 0.0669,0 0,0 0.007,0 0,0 0,0 -0.0183,0.009 0.0201,0 0,0 0.0134,0 0,0 0,0 -0.0183,0.009 0.0201,0 0,0 0.3156,0.0902 -0.01,0.018 -0.0213,0.0271 0.0359,0.009 0,0 0.26783,0.0992 -0.0185,0.009 -0.0185,0.009 0.0206,0 0,0 0.69624,0.0992 -0.0117,0.009 -0.0304,0.018 0.035,0 0,0 0.58957,0.0902 -0.0163,0.018 -0.028,0.0271 0.0357,0 0,0 0.76262,0.0902 -0.0235,0.018 -0.019,0.009 0.0219,0 0,0 0.007,0 0,0 0,0 -0.0105,0.0361 0.0219,0 0,0 0.007,0 0,0 0,0 -0.0191,0.009 0.0219,0 0,0 0.30689,0.10821 -0.0192,0.009 0.0222,0 0,0 0.007,0 0,0 0,0 -0.0473,0.0361 0.0622,0.009 0,0 0.007,0 0,0 0,0 -0.0192,0.009 0.0222,0 0,0 0.007,0 0,0 0,0 -0.0162,0.018 0.0222,0 0,0 0.4181,0.10821 -0.0194,0.009 0.0226,0 0,0 0.46895,0.0812 -0.0128,0.0271 -0.0195,0.009 0.0229,0 0,0 0.0229,0 -0.004,0.009 0,0 -0.0196,0.009 0.0229,0 0,0 0.60534,0.10821 -0.0197,0.009 0.0234,0 0,0 0.26767,0.0992 -0.012,0.009 -0.0318,0.018 0.0393,0 0,0 0.008,0 0,0 0,0 -0.0397,0.018 0.0472,0 0,0 0.40322,0.10821 -0.0401,0.0361 0.0559,0 0,0 0.016,0 0,0 0,0 -0.0241,0.018 0.032,0 0,0 0.008,0 0,0 0,0 -0.0361,0.0271 0.0481,0 0,0 0.55049,0.10821 -0.0483,0.0361 0.0571,0 0,0 0.39708,0.10821 -0.0325,0.018 0.0331,0 0,0 0.008,0 0,0 0,0 -0.0204,0.009 0.0166,0 0,0 0.26577,0.0992 -0.0121,0.009 -0.0205,0.009 0.0167,0 0,0 0.008,0 0,0 0,0 -0.0205,0.009 0.0167,0 0,0 0.0167,0 0,0 0,0 -0.0205,0.009 0.0167,0 0,0 0.62967,0.0902 -0.0243,0.018 -0.0207,0.009 0.017,0 0,0 0.009,0 0,0 0,0 -0.078,0.0451 0.10358,0.018 0,0 0.75842,0.0902 -0.0331,0.018 -0.0489,0.0361 0.0611,0 0,0 0.20353,0.0631 -0.0525,0.0451 -0.0421,0.018 0.044,0 0,0 0.47331,0.10821 -0.028,0.0271 0.0413,0.009 0,0 0.31085,0.10821 -0.0585,0.0361 0.0691,0.009 0,0 0.63805,0.10821 -0.0403,0.0361 0.0462,0 0,0 0.18515,0.10821 -0.0686,0.0902 0.1028,0 0,0 0.0281,0 -0.0218,0.009 0,0 -0.0218,0.009 0.0187,0 0,0 0.0625,0.009 -0.0437,0.018 0,0 -0.0219,0.009 0.0187,0 0,0 0.34612,0.0631 -0.0341,0.0451 -0.022,0.009 0.019,0 0,0 0.53409,0.0902 -0.0347,0.018 -0.0347,0.018 0.0385,0 0,0 0.29072,0.0902 -0.0154,0.018 -0.0223,0.009 0.0195,0 0,0 0.40848,0.0721 -0.001,0.0361 -0.0785,0.0631 0.1032,0.018 0,0 0.29586,0.10821 -0.0534,0.0451 0.0721,0.0271 0,0 0.41815,0.0902 -0.0255,0.018 -0.0229,0.009 0.0203,0 0,0 0.64728,0.10821 -0.0231,0.009 0.0207,0 0,0 0.0103,0 0,0 0,0 -0.0231,0.009 0.0207,0 0,0 0.0415,0 -0.0231,0.009 0,0 -0.0383,0.0271 0.0415,0 0,0 0.0104,0 0,0 0,0 -0.0231,0.009 0.0208,0 0,0 0.0472,0.018 -0.036,0.018 0,0 -0.0232,0.009 0.0208,0 0,0 0.0104,0 0,0 0,0 -0.10007,0.0631 0.13078,0.018 0,0 0.5008,0.0992 -0.0128,0.009 -0.0234,0.009 0.0212,0 0,0 0.37914,0.0631 -0.0643,0.0451 -0.0236,0.009 0.0215,0 0,0 0.49361,0.10821 -0.0238,0.009 0.0218,0 0,0 0.39481,0.0992 -0.0239,0.009 -0.0608,0.0271 0.0642,0.009 0,0 1.25696,0.10821 -0.0243,0.009 0.0228,0 0,0 0.44122,0.10821 -0.0489,0.018 0.0564,0.009 0,0 0.0231,0 0,0 0,0 -0.0245,0.009 0.0231,0 0,0 0.42684,0.10821 -0.0622,0.0271 0.0691,0.009 0,0 0.38766,0.10821 -0.0248,0.009 0.0238,0 0,0 0.3602,0.0902 -0.0379,0.018 -0.063,0.0271 0.0721,0 0,0 0.48612,0.10821 -0.0252,0.009 0.0244,0 0,0 0.21446,0.0721 -0.0398,0.0361 -0.0253,0.009 0.0246,0 0,0 0.7133,0.10821 -0.0511,0.018 0.0502,0 0,0 0.0251,0 0,0 0,0 -0.0256,0.009 0.0251,0 0,0 0.68037,0.10821 -0.0516,0.018 0.051,0.009 0,0 1.23434,0.10821 -0.0261,0.009 0.0264,0 0,0 0.858,0.10821 -0.0392,0.018 0.0404,0 0,0 0.027,0 -0.0264,0.009 0,0 -0.0264,0.009 0.027,0 0,0 1.08933,0.10821 -0.0256,0.018 0.0277,0 0,0 0.57115,0.0992 -0.0128,0.009 -0.0268,0.009 0.0281,0 0,0 0.48428,0.10821 -0.0271,0.009 0.0286,0 0,0 0.0143,0 0,0 0,0 -0.0271,0.009 0.0286,0 0,0 0.0143,0 0,0 0,0 -0.0941,0.0361 0.10313,0.018 0,0 0.37778,0.0992 -0.0273,0.009 -0.0273,0.009 0.029,0 0,0 0.7685,0.10821 -0.0275,0.009 0.0296,0 0,0 0.0444,0 -0.0276,0.009 0,0 -0.0404,0.018 0.0444,0 0,0 0.60583,0.0992 -0.0127,0.009 -0.0278,0.009 0.0301,0 0,0 0.48361,0.10821 -0.028,0.009 0.0305,0 0,0 0.60147,0.10821 -0.0536,0.0271 0.0621,0 0,0 0.50816,0.0721 -0.0192,0.0361 -0.0284,0.009 0.0157,0 0,0 0.0157,0 0,0 0,0 -0.0412,0.018 0.0315,0 0,0 0.0158,0 0,0 0,0 -0.0285,0.009 0.0158,0 0,0 0.72346,0.10821 -0.0574,0.018 0.0482,0 0,0 0.77364,0.10821 -0.029,0.009 0.0164,0 0,0 1.12338,0.0992 -0.0292,0.009 -0.0293,0.009 0.0168,0 0,0 0.7279,0.0992 -0.0295,0.009 -0.0295,0.009 0.0171,0 0,0 0.72378,0.0631 -0.0615,0.0451 -0.0297,0.009 0.0174,0 0,0 0.55333,0.10821 -0.0422,0.018 0.0353,0 0,0 0.0177,0 0,0 0,0 -0.0899,0.0271 0.0938,0.009 0,0 0.0177,0 0,0 0,0 -0.03,0.009 0.0177,0 0,0 0.0354,0 -0.0123,0.009 0,0 -0.0424,0.018 0.0355,0 0,0 0.4595,0.10821 -0.0426,0.018 0.036,0 0,0 0.018,0 0,0 0,0 -0.0606,0.018 0.0597,0.009 0,0 0.433,0.0812 -0.0551,0.0271 -0.0305,0.009 0.0182,0 0,0 1.01526,0.10821 -0.0616,0.018 0.0625,0.009 0,0 0.0374,0 -0.0309,0.009 0,0 -0.043,0.018 0.0439,0.009 0,0 0.0187,0 0,0 0,0 -0.0309,0.009 0.0187,0 0,0 0.0187,0 0,0 0,0 -0.0309,0.009 0.0187,0 0,0 1.0106,0.10821 -0.12487,0.0361 0.12937,0.018 0,0 0.0577,0 -0.0313,0.009 0,0 -0.0313,0.009 0.0192,0 0,0 1.24072,0.10821 -0.0316,0.009 0.0198,0 0,0 0.0198,0 0,0 0,0 -0.0632,0.018 0.0554,0.018 0,0 0.0594,0 -0.0317,0.009 0,0 -0.0317,0.009 0.0198,0 0,0 0.0198,0 0,0 0,0 -0.0317,0.009 0.0198,0 0,0 0.0198,0 0,0 0,0 -0.0317,0.009 0.0198,0 0,0 0.86367,0.0902 -0.0437,0.018 -0.032,0.009 0.0202,0 0,0 0.98519,0.10821 -0.0438,0.018 0.0414,0 0,0 0.31182,0.0812 -0.0765,0.027 -0.0325,0.009 0.0209,0 0,0 1.02733,0.0721 -0.0242,0.0361 -0.0328,0.009 0.0214,0 0,0 0.0528,0.009 -0.0328,0.009 0,0 -0.0328,0.009 0.0214,0 0,0 1.12078,0.10821 -0.0448,0.0361 0.0439,0 0,0 0.62987,0.0992 -0.0111,0.009 -0.0334,0.009 0.0223,0 0,0 0.33813,0.10821 -0.213,0.0812 0.21508,0.009 0,0 0.57314,0.0721 -0.11302,0.0361 -0.034,0.009 0.023,0 0,0 0.51145,0.0541 -0.0904,0.0361 -0.10276,0.0271 0.093,0 0,0 0.0588,0.009 -0.0343,0.009 0,0 -0.0797,0.027 0.0699,0 0,0 0.4406,0.0812 -0.0329,0.0271 -0.0456,0.018 0.0472,0 0,0 0.72739,0.10821 -0.0698,0.018 0.0722,0 0,0 0.72072,0.10821 -0.0352,0.009 0.0245,0 0,0 0.0245,0 0,0 0,0 -0.0704,0.018 0.0629,0.009 0,0 0.0245,0 0,0 0,0 -0.0705,0.018 0.0737,0 0,0 0.66531,0.10821 -0.0356,0.009 0.025,0 0,0 1.67919,0.10821 -0.0359,0.009 0.0258,0 0,0 0.97624,0.10821 -0.0362,0.009 0.0264,0 0,0 0.0792,0 -0.0559,0.0271 0,0 -0.0363,0.009 0.0264,0 0,0 0.0794,0 -0.0462,0.018 0,0 -0.0363,0.009 0.0265,0 0,0 1.27061,0.0902 -0.019,0.018 -0.0734,0.018 0.0543,0 0,0 0.0272,0 0,0 0,0 -0.0367,0.009 0.0272,0 0,0 0.54415,0.10821 -0.037,0.009 0.0276,0 0,0 1.06152,0.10821 -0.0464,0.018 0.0282,0 0,0 0.49782,0.0992 -0.009,0.009 -0.0376,0.009 0.0286,0 0,0 0.804,0.0631 -0.0727,0.0451 -0.0466,0.018 0.0291,0 0,0 0.0583,0 -0.0379,0.009 0,0 -0.0467,0.018 0.0292,0 0,0 0.11689,0 -0.11402,0.0271 0,0 -0.0761,0.018 0.0585,0 0,0 1.07565,0.0812 -0.0851,0.0271 -0.0384,0.009 0.0299,0 0,0 1.07939,0.10821 -0.0387,0.009 0.0306,0 0,0 0.0306,0 0,0 0,0 -0.0387,0.009 0.0306,0 0,0 0.74541,0.0992 -0.039,0.009 -0.039,0.009 0.0311,0 0,0 1.55145,0.10821 -0.0394,0.009 0.0321,0 0,0 1.50993,0.0631 -0.0666,0.0451 -0.0397,0.009 0.033,0 0,0 0.57712,0.0721 -0.0262,0.0361 -0.04,0.009 0.0334,0 0,0 0.97118,0.10821 -0.0403,0.009 0.0342,0 0,0 0.0342,0 0,0 0,0 -0.0404,0.009 0.0342,0 0,0 0.87716,0.0812 -0.0175,0.0271 -0.0407,0.009 0.0348,0 0,0 1.30955,0.10821 -0.12311,0.0271 0.10727,0 0,0 0.0358,0 0,0 0,0 -0.0411,0.009 0.0358,0 0,0 1.64965,0.10821 -0.0414,0.009 0.0369,0 0,0 0.8919,0.0812 -0.05,0.0271 -0.0919,0.0361 0.0753,0 0,0 0.96019,0.0631 -0.0954,0.0451 -0.12651,0.0271 0.11143,0.009 0,0 0.62543,0.0811 -0.0885,0.0271 -0.15299,0.0902 0.11392,0.009 0,0 0.68029,0.0812 -0.01,0.0271 -0.0431,0.009 0.0399,0 0,0 0.44371,0.10821 -0.13038,0.0271 0.12124,0 0,0 0.0405,0 0,0 0,0 -0.0901,0.027 0.081,0 0,0 0.0405,0 0,0 0,0 -0.0436,0.009 0.0406,0 0,0 0.0406,0 0,0 0,0 -0.13091,0.0271 0.11285,0.0271 0,0 0.8372,0.0812 -0.0492,0.0271 -0.0467,0.018 0.0415,0 0,0 0.59758,0.10821 -0.0445,0.009 0.0421,0 0,0 0.39759,0.10821 -0.0939,0.0361 0.0855,0 0,0 0.50035,0.0721 -0.13737,0.0361 -0.0452,0.009 0.0433,0 0,0 0.0433,0 0,0 0,0 -0.0452,0.009 0.0434,0 0,0 0.63473,0.10821 -0.0472,0.018 0.0441,0 0,0 1.37123,0.0992 -7.7e-4,0.009 -0.0468,0.018 0.0453,0 0,0 0.0453,0 0,0 0,0 -0.0468,0.018 0.0453,0 0,0 1.09569,0.10821 -0.23282,0.0541 0.23214,0.018 0,0 1.89976,0.10821 -0.0941,0.018 0.0963,0 0,0 0.59803,0.10821 -0.22938,0.0992 0.24741,0.009 1.01605,0.0992 -0.0481,0.009 -0.0481,0.009 0,0 0,0 1.65834,0.0902 -0.0452,0.018 -0.0485,0.009 0,0 0,0 1.03585,0.10821 -0.0489,0.009 0,0 0,0 0.61778,0.0721 -0.14333,0.0361 -0.0493,0.009 0,0 0,0 0.3759,0.10821 -0.0497,0.009 0,0 0,0 1.6007,0.10821 -0.0501,0.009 0,0 0,0 0.90402,0.0902 -0.10087,0.018 -0.10101,0.018 0.0568,0 0,0 1.52192,0.10821 -0.0509,0.009 0,0 0,0 0.86166,0.0451 -0.002,0.0631 -0.0513,0.009 0,0 0,0 1.4906,0.10821 -0.15518,0.0271 0.14096,0.018 0,0 1.60047,0.0992 -0.0522,0.009 -0.0522,0.009 0,0 0,0 0.69202,0.0992 -0.0526,0.009 -0.0526,0.009 0,0 0,0 1.36018,0.0992 -0.053,0.009 -0.1061,0.018 0.078,0.009 0,0 0.0782,0.009 -0.0532,0.009 0,0 -0.0532,0.009 0,0 0,0 0.0657,0 -0.0533,0.009 0,0 -0.10663,0.018 0.0658,0 0,0 1.08774,0.10821 -0.10754,0.018 0.0673,0 0,0 1.05301,0.10821 -0.0542,0.009 0,0 0,0 0.734,0.10821 -0.0547,0.009 0,0 0,0 2.40654,0.10821 -0.0549,0.009 0,0 0,0 0.0726,0 -0.055,0.009 0,0 -0.11013,0.018 0.0727,0 0,0 0.0728,0 -0.0551,0.009 0,0 -0.0552,0.009 0,0 0,0 0.71222,0.0992 -0.0556,0.009 -0.0556,0.009 0,0 0,0 1.35326,0.10821 -0.11212,0.018 0.0759,0 0,0 1.47882,0.10821 -0.11297,0.018 0.078,0 0,0 0.0781,0 -0.0565,0.009 0,0 -0.16993,0.0271 0.1564,0 0,0 1.86037,0.10821 -0.31938,0.0631 0.32382,0 0,0 1.92056,0.0992 -0.0575,0.009 -0.0576,0.009 0,0 0,0 1.16588,0.10821 -0.23603,0.0631 0.1684,0.0271 0,0 1.15359,0.0902 -0.0297,0.018 -0.0589,0.009 0,0 0,0 2.1553,0.10821 -0.1459,0.0361 0.0912,0 0,0 0.94411,0.10821 -0.11962,0.018 0.0333,0.009 0,0 0.97361,0.10821 -0.14657,0.0361 0.0953,0 0,0 1.69059,0.10821 -0.1218,0.018 0.0372,0.009 0,0 0.0983,0 -0.061,0.009 0,0 -0.0611,0.009 0,0 0,0 2.88255,0.10821 -0.0612,0.009 0,0 0,0 0.91994,0.10821 -0.0617,0.009 0,0 0,0 0.10469,0 -0.0617,0.009 0,0 -0.12363,0.018 0.10487,0 0,0 3.00739,0.10821 -0.0618,0.009 0,0 0,0 1.92222,0.10821 -0.0621,0.009 0,0 0,0 2.01127,0.0902 -0.12443,0.018 -0.0623,0.009 0,0 0,0 1.13016,0.10821 -0.1256,0.018 0.11899,0 0,0 0.11914,0 -0.0629,0.009 0,0 -0.0629,0.009 0,0 0,0 2.03032,0.10821 -0.25288,0.0361 0.17694,0.0451 0,0 1.62362,0.10821 -0.0639,0.009 0,0 0,0 0.83871,0.0992 -0.0644,0.009 -0.0645,0.009 0,0 0,0 2.59933,0.0992 -0.0643,0.009 -0.19354,0.0271 0.0761,0.0271 0,0 0.21883,0.0451 -0.19552,0.0271 0,0 -0.0653,0.009 0,0 0,0 2.61799,0.0992 -0.0652,0.009 -0.0653,0.009 0,0 0,0 0.14174,0 -0.13076,0.018 0,0 -0.32845,0.0451 0.29578,0.018 0,0 4.04884,0.10821 -0.0652,0.009 0,0 0,0 3.84153,0.10821 -0.0645,0.009 0,0 0,0 1.13914,0.10821 -0.0649,0.009 0,0 0,0 0.94628,0.0721 -0.0963,0.0361 -0.13099,0.018 0,0 0,0 3.32729,0.0992 -0.0648,0.009 -0.065,0.009 0,0 0,0 2.02043,0.10821 -0.0649,0.009 0,0 0,0 1.75782,0.0812 -0.0117,0.0271 -0.26041,0.0361 0.18352,0 0,0 1.26141,0.10821 -0.26254,0.0361 0.1888,0 0,0 5.25748,0.10821 -0.31962,0.0451 0.13719,0.009 0,0 3.56625,0.10821 -0.063,0.009 0,0 0,0 3.24829,0.0902 -0.12351,0.018 -0.0619,0.009 0,0 0,0 0.22,0 -0.18602,0.027 0,0 -0.0622,0.009 0,0 0,0 1.71786,0.10821 -0.0621,0.009 0,0 0,0 3.03254,0.0992 -0.0609,0.009 -0.061,0.009 0,0 0,0 1.66995,0.10821 -0.12171,0.018 0,0 0,0 1.42672,0.0812 -0.18229,0.0271 -0.24481,0.0361 0,0 0,0 0.25119,0 -0.24604,0.0361 0,0 -0.12378,0.018 0,0 0,0 0.83936,0.0631 -0.31122,0.0451 -0.1254,0.018 0,0 0,0 2.13677,0.10821 -0.0622,0.009 0,0 0,0 2.70567,0.0811 -0.18264,0.0271 -0.36894,0.0541 0.24917,0.0451 2.11547,0.10821 -0.0613,0.009 0,0 0,0 1.92613,0.10821 -0.12155,0.018 0,0 0,0 3.33448,0.0992 -0.0587,0.009 -0.0589,0.009 0,0 0,0 1.76072,0.0721 -0.23247,0.0361 -0.0585,0.009 0,0 0,0 2.66596,0.0992 -0.0568,0.009 -0.0569,0.009 0,0 0,0 1.3693,0.10821 -0.0566,0.009 0,0 0,0 1.13605,0.0992 -0.0565,0.009 -0.28462,0.0451 0,0 0,0 1.24551,0.0902 -0.11387,0.018 -0.11451,0.018 0,0 0,0 0.60219,0.0811 -0.17335,0.0271 -0.11639,0.018 0,0 0,0 1.79661,0.018 -0.57182,0.0902 -0.11639,0.018 0,0 0,0 1.34633,0.0992 -0.0578,0.009 -0.058,0.009 0,0 0,0 2.66863,0.0992 -0.0557,0.009 -0.22471,0.0361 0,0 0,0 1.69668,0.0721 -0.22137,0.0361 -0.22425,0.0361 0,0 0,0 0.82625,0.009 -0.62003,0.0992 -0.0575,0.009 0,0 0,0 1.1908,0.0271 -0.51327,0.0812 -0.11622,0.018 0,0 0,0 1.72936,0.0992 -0.057,0.009 -0.86862,0.2074 1.60916,0.0631 -0.30019,0.0451 -0.0607,0.009 0,0 0,0 0.52089,0 -0.48712,0.0721 0,0 -0.24927,0.0361 0,0 0,0 1.00845,0.009 -0.1386,0.0992 -0.31795,0.0451 0,0 0,0 1.24194,0.0631 -0.31826,0.0451 -0.88273,0.19839 1.00503,0.10821 -0.0698,0.009 0,0 0,0 1.48952,0.0541 -0.41331,0.0541 -0.4252,0.0541 0,0 0,0 1.25565,0.009 -0.78395,0.0992 -0.0734,0.009 0,0 0,0 1.50714,0.0721 -0.29014,0.0361 -0.59866,0.0721 0,0 0,0 0.72996,0 -0.68854,0.0812 0,0 -0.15759,0.018 0,0 0,0 0.89358,0.0721 -0.31935,0.0361 -0.57663,0.0631 0,0 0,0 1.61151,0.0902 -0.16597,0.018 -1.74122,0.26151 3.60937,0.10821 -0.55608,0.0541 0,0 0,0 1.5702,0.0451 -0.65627,0.0631 -0.19395,0.018 0,0 0,0 2.2429,0.0992 -0.0946,0.009 -3.24231,0.27053 0.68585,0.0451 2.55646,0.009 -1.18448,0.0902 -1.31049,0.0902 0,0 0,0 1.96794,0.0721 -0.55126,0.0361 -1.65546,0.0992 0,0 0,0 1.72036,0 -1.60961,0.0902 0,0 -0.70475,0.0361 0,0 0,0 6.30308,0.0902 -0.31026,0.018 -0.31981,0.018 5.20038,0.10821 -0.42608,0.027 2.59956,0 -1.66467,0.10821 -3.19232,0.1533 3.5345,0 -2.61844,0.10821 -2.31796,0.0721 4.7482,0 -3.81106,0.10821 -2.72218,0.0541 6.90505,0 -6.1541,0.10821 -1.55753,0.018 22.58406,0.0812 0,0.0271 0,0.11722 0,0"
           style="fill:none;stroke:#ffffff;stroke-width:1.5;stroke-linecap:square;stroke-linejoin:round"
           id="path3454" />
      </g>
      <g
         id="patch_3"
         style="stroke-linecap:butt;stroke-linejoin:round">
        <path
           d="M 54,252 54,34.56"
           style="fill:none;stroke:#ffffff;stroke-width:0.80000001;stroke-linecap:square;stroke-linejoin:miter"
           id="path3457" />
      </g>
      <g
         id="patch_4"
         style="stroke-linecap:butt;stroke-linejoin:round">
        <path
           d="m 388.8,252 0,-217.44"
           style="fill:none;stroke-linecap:butt;stroke-linejoin:round"
           id="path3460" />
      </g>
      <g
         id="patch_5"
         style="stroke-linecap:butt;stroke-linejoin:round">
        <path
           d="m 54,252 334.8,0"
           style="fill:none;stroke:#ffffff;stroke-width:0.80000001;stroke-linecap:square;stroke-linejoin:miter"
           id="path3463" />
      </g>
      <g
         id="patch_6"
         style="stroke-linecap:butt;stroke-linejoin:round">
        <path
           d="m 54,34.56 334.8,0"
           style="fill:none;stroke-linecap:butt;stroke-linejoin:round"
           id="path3466" />
      </g>
      <g
         id="text_15"
         style="stroke-linecap:butt;stroke-linejoin:round">
        <!-- PR Curve -->
        <defs
           id="defs3469">
          <path
             id="DejaVuSans-20"
             style="stroke-linecap:butt;stroke-linejoin:round" />
          <path
             d="m 64.40625,67.28125 0,-10.390625 q -4.984375,4.640625 -10.625,6.921875 -5.640625,2.296875 -11.984375,2.296875 -12.5,0 -19.140625,-7.640625 -6.640625,-7.640625 -6.640625,-22.09375 0,-14.40625 6.640625,-22.046875 Q 29.296875,6.6875 41.796875,6.6875 q 6.34375,0 11.984375,2.296875 5.640625,2.296875 10.625,6.9375 l 0,-10.3125 Q 59.234375,2.09375 53.4375,0.328125 q -5.78125,-1.75 -12.21875,-1.75 -16.5625,0 -26.09375,10.125 Q 5.609375,18.84375 5.609375,36.375 q 0,17.578125 9.515625,27.703125 9.53125,10.140625 26.09375,10.140625 6.53125,0 12.3125,-1.734375 5.796875,-1.734375 10.875,-5.203125 z"
             id="DejaVuSans-43"
             style="stroke-linecap:butt;stroke-linejoin:round" />
          <path
             d="m 8.5,21.578125 0,33.109375 8.984375,0 0,-32.765625 q 0,-7.765625 3.015625,-11.65625 3.03125,-3.875 9.09375,-3.875 7.265625,0 11.484375,4.640625 4.234375,4.640625 4.234375,12.65625 l 0,31 8.984375,0 0,-54.6875 -8.984375,0 0,8.40625 Q 42.046875,3.421875 37.71875,1 33.40625,-1.421875 27.6875,-1.421875 18.265625,-1.421875 13.375,4.4375 8.5,10.296875 8.5,21.578125 z M 31.109375,56 z"
             id="DejaVuSans-75"
             style="stroke-linecap:butt;stroke-linejoin:round" />
          <path
             d="M 2.984375,54.6875 12.5,54.6875 29.59375,8.796875 46.6875,54.6875 l 9.515625,0 L 35.6875,0 23.484375,0 z"
             id="DejaVuSans-76"
             style="stroke-linecap:butt;stroke-linejoin:round" />
        </defs>
        <g
           style="fill:#ffffff;stroke-linecap:butt;stroke-linejoin:round"
           transform="matrix(0.12,0,0,-0.12,194.00437,28.56)"
           id="g3475">
          <use
             xlink:href="#DejaVuSans-50"
             id="use3477"
             style="stroke-linecap:butt;stroke-linejoin:round"
             x="0"
             y="0"
             width="432"
             height="288" />
          <use
             x="60.302734"
             xlink:href="#DejaVuSans-52"
             id="use3479"
             style="stroke-linecap:butt;stroke-linejoin:round"
             y="0"
             width="432"
             height="288" />
          <use
             x="129.78516"
             xlink:href="#DejaVuSans-20"
             id="use3481"
             style="stroke-linecap:butt;stroke-linejoin:round"
             y="0"
             width="432"
             height="288" />
          <use
             x="161.57227"
             xlink:href="#DejaVuSans-43"
             id="use3483"
             style="stroke-linecap:butt;stroke-linejoin:round"
             y="0"
             width="432"
             height="288" />
          <use
             x="231.39648"
             xlink:href="#DejaVuSans-75"
             id="use3485"
             style="stroke-linecap:butt;stroke-linejoin:round"
             y="0"
             width="432"
             height="288" />
          <use
             x="294.77539"
             xlink:href="#DejaVuSans-72"
             id="use3487"
             style="stroke-linecap:butt;stroke-linejoin:round"
             y="0"
             width="432"
             height="288" />
          <use
             x="335.88867"
             xlink:href="#DejaVuSans-76"
             id="use3489"
             style="stroke-linecap:butt;stroke-linejoin:round"
             y="0"
             width="432"
             height="288" />
          <use
             x="395.06836"
             xlink:href="#DejaVuSans-65"
             id="use3491"
             style="stroke-linecap:butt;stroke-linejoin:round"
             y="0"
             width="432"
             height="288" />
        </g>
      </g>
    </g>
  </g>
  <defs
     id="defs3493">
    <clipPath
       id="pe0df8ce626">
      <rect
         height="217.44"
         width="334.79999"
         x="54"
         y="34.560001"
         id="rect3496"
         style="stroke-linecap:butt;stroke-linejoin:round" />
    </clipPath>
  </defs>
</svg>
