<?xml version="1.0" encoding="UTF-8" standalone="no"?>
<!-- Created with matplotlib (http://matplotlib.org/) -->

<svg
   xmlns:dc="http://purl.org/dc/elements/1.1/"
   xmlns:cc="http://creativecommons.org/ns#"
   xmlns:rdf="http://www.w3.org/1999/02/22-rdf-syntax-ns#"
   xmlns:svg="http://www.w3.org/2000/svg"
   xmlns="http://www.w3.org/2000/svg"
   xmlns:xlink="http://www.w3.org/1999/xlink"
   xmlns:sodipodi="http://sodipodi.sourceforge.net/DTD/sodipodi-0.dtd"
   xmlns:inkscape="http://www.inkscape.org/namespaces/inkscape"
   height="325.95624"
   version="1.1"
   viewBox="0 0 371.78125 260.76499"
   width="464.72656"
   id="svg3923"
   inkscape:version="0.47 r22583"
   sodipodi:docname="roccurve.svg">
  <metadata
     id="metadata4290">
    <rdf:RDF>
      <cc:Work
         rdf:about="">
        <dc:format>image/svg+xml</dc:format>
        <dc:type
           rdf:resource="http://purl.org/dc/dcmitype/StillImage" />
      </cc:Work>
    </rdf:RDF>
  </metadata>
  <sodipodi:namedview
     pagecolor="#000000"
     bordercolor="#666666"
     borderopacity="1"
     objecttolerance="10"
     gridtolerance="10"
     guidetolerance="10"
     inkscape:pageopacity="0.65882353"
     inkscape:pageshadow="2"
     inkscape:window-width="1920"
     inkscape:window-height="1124"
     id="namedview4288"
     showgrid="false"
     inkscape:zoom="1.3111111"
     inkscape:cx="407.85354"
     inkscape:cy="243.10934"
     inkscape:window-x="0"
     inkscape:window-y="25"
     inkscape:window-maximized="1"
     inkscape:current-layer="figure_1" />
  <defs
     id="defs3925"
     style="stroke-linecap:butt;stroke-linejoin:round">
    <inkscape:perspective
       sodipodi:type="inkscape:persp3d"
       inkscape:vp_x="0 : 180 : 1"
       inkscape:vp_y="0 : 1000 : 0"
       inkscape:vp_z="540 : 180 : 1"
       inkscape:persp3d-origin="270 : 120 : 1"
       id="perspective4292" />
    <style
       type="text/css"
       id="style3927">
*{stroke-linecap:butt;stroke-linejoin:round;}
  </style>
  </defs>
  <g
     id="figure_1"
     style="stroke-linecap:butt;stroke-linejoin:round"
     transform="translate(-17.418749,-19.65375)">
    <g
       id="patch_1"
       style="stroke-linecap:butt;stroke-linejoin:round">
      <path
         d="M 0,288 432,288 432,0 0,0 z"
         style="fill:none;stroke-linecap:butt;stroke-linejoin:round"
         id="path3931" />
    </g>
    <g
       id="axes_1"
       style="stroke-linecap:butt;stroke-linejoin:round">
      <g
         id="patch_2"
         style="stroke-linecap:butt;stroke-linejoin:round">
        <path
           d="m 54,252 334.8,0 0,-217.44 -334.8,0 z"
           style="fill:none;stroke-linecap:butt;stroke-linejoin:round"
           id="path3935" />
      </g>
      <g
         id="matplotlib.axis_1"
         style="stroke-linecap:butt;stroke-linejoin:round">
        <g
           id="xtick_1"
           style="stroke-linecap:butt;stroke-linejoin:round">
          <g
             id="line2d_1"
             style="stroke-linecap:butt;stroke-linejoin:round">
            <defs
               id="defs3940">
              <path
                 d="M 0,0 0,3.5"
                 id="m400914ac13"
                 style="stroke:#ffffff;stroke-width:0.80000001;stroke-linecap:butt;stroke-linejoin:round" />
            </defs>
            <g
               id="g3943"
               style="stroke-linecap:butt;stroke-linejoin:round">
              <use
                 style="fill:#ffffff;stroke:#ffffff;stroke-width:0.80000001;stroke-linecap:butt;stroke-linejoin:round"
                 x="69.218185"
                 xlink:href="#m400914ac13"
                 y="252"
                 id="use3945"
                 width="432"
                 height="288" />
            </g>
          </g>
          <g
             id="text_1"
             style="stroke-linecap:butt;stroke-linejoin:round">
            <!-- 0.0 -->
            <defs
               id="defs3948">
              <path
                 d="m 31.78125,66.40625 q -7.609375,0 -11.453125,-7.5 Q 16.5,51.421875 16.5,36.375 q 0,-14.984375 3.828125,-22.484375 3.84375,-7.5 11.453125,-7.5 7.671875,0 11.5,7.5 3.84375,7.5 3.84375,22.484375 0,15.046875 -3.84375,22.53125 -3.828125,7.5 -11.5,7.5 z m 0,7.8125 q 12.265625,0 18.734375,-9.703125 6.46875,-9.6875 6.46875,-28.140625 0,-18.40625 -6.46875,-28.109375 -6.46875,-9.6875 -18.734375,-9.6875 -12.25,0 -18.71875,9.6875 Q 6.59375,17.96875 6.59375,36.375 q 0,18.453125 6.46875,28.140625 6.46875,9.703125 18.71875,9.703125 z"
                 id="DejaVuSans-30"
                 style="stroke-linecap:butt;stroke-linejoin:round" />
              <path
                 d="M 10.6875,12.40625 21,12.40625 21,0 10.6875,0 z"
                 id="DejaVuSans-2e"
                 style="stroke-linecap:butt;stroke-linejoin:round" />
            </defs>
            <g
               style="fill:#ffffff;stroke-linecap:butt;stroke-linejoin:round"
               transform="matrix(0.1,0,0,-0.1,61.266619,266.59844)"
               id="g3952">
              <use
                 xlink:href="#DejaVuSans-30"
                 id="use3954"
                 style="stroke-linecap:butt;stroke-linejoin:round"
                 x="0"
                 y="0"
                 width="432"
                 height="288" />
              <use
                 x="63.623047"
                 xlink:href="#DejaVuSans-2e"
                 id="use3956"
                 style="stroke-linecap:butt;stroke-linejoin:round"
                 y="0"
                 width="432"
                 height="288" />
              <use
                 x="95.410156"
                 xlink:href="#DejaVuSans-30"
                 id="use3958"
                 style="stroke-linecap:butt;stroke-linejoin:round"
                 y="0"
                 width="432"
                 height="288" />
            </g>
          </g>
        </g>
        <g
           id="xtick_2"
           style="stroke-linecap:butt;stroke-linejoin:round">
          <g
             id="line2d_2"
             style="stroke-linecap:butt;stroke-linejoin:round">
            <g
               id="g3962"
               style="stroke-linecap:butt;stroke-linejoin:round">
              <use
                 style="fill:#ffffff;stroke:#ffffff;stroke-width:0.80000001;stroke-linecap:butt;stroke-linejoin:round"
                 x="130.09091"
                 xlink:href="#m400914ac13"
                 y="252"
                 id="use3964"
                 width="432"
                 height="288" />
            </g>
          </g>
          <g
             id="text_2"
             style="stroke-linecap:butt;stroke-linejoin:round">
            <!-- 0.2 -->
            <defs
               id="defs3967">
              <path
                 d="m 19.1875,8.296875 34.421875,0 0,-8.296875 -46.28125,0 0,8.296875 q 5.609375,5.8125 15.296875,15.59375 9.703125,9.796875 12.1875,12.640625 4.734375,5.3125 6.609375,9 1.890625,3.6875 1.890625,7.25 0,5.8125 -4.078125,9.46875 -4.078125,3.671875 -10.625,3.671875 -4.640625,0 -9.796875,-1.609375 -5.140625,-1.609375 -11,-4.890625 l 0,9.96875 Q 13.765625,71.78125 18.9375,73 q 5.1875,1.21875 9.484375,1.21875 11.328125,0 18.0625,-5.671875 6.734375,-5.65625 6.734375,-15.125 0,-4.5 -1.6875,-8.53125 Q 49.859375,40.875 45.40625,35.40625 44.1875,33.984375 37.640625,27.21875 31.109375,20.453125 19.1875,8.296875 z"
                 id="DejaVuSans-32"
                 style="stroke-linecap:butt;stroke-linejoin:round" />
            </defs>
            <g
               style="fill:#ffffff;stroke-linecap:butt;stroke-linejoin:round"
               transform="matrix(0.1,0,0,-0.1,122.13935,266.59844)"
               id="g3970">
              <use
                 xlink:href="#DejaVuSans-30"
                 id="use3972"
                 style="stroke-linecap:butt;stroke-linejoin:round"
                 x="0"
                 y="0"
                 width="432"
                 height="288" />
              <use
                 x="63.623047"
                 xlink:href="#DejaVuSans-2e"
                 id="use3974"
                 style="stroke-linecap:butt;stroke-linejoin:round"
                 y="0"
                 width="432"
                 height="288" />
              <use
                 x="95.410156"
                 xlink:href="#DejaVuSans-32"
                 id="use3976"
                 style="stroke-linecap:butt;stroke-linejoin:round"
                 y="0"
                 width="432"
                 height="288" />
            </g>
          </g>
        </g>
        <g
           id="xtick_3"
           style="stroke-linecap:butt;stroke-linejoin:round">
          <g
             id="line2d_3"
             style="stroke-linecap:butt;stroke-linejoin:round">
            <g
               id="g3980"
               style="stroke-linecap:butt;stroke-linejoin:round">
              <use
                 style="fill:#ffffff;stroke:#ffffff;stroke-width:0.80000001;stroke-linecap:butt;stroke-linejoin:round"
                 x="190.96364"
                 xlink:href="#m400914ac13"
                 y="252"
                 id="use3982"
                 width="432"
                 height="288" />
            </g>
          </g>
          <g
             id="text_3"
             style="stroke-linecap:butt;stroke-linejoin:round">
            <!-- 0.4 -->
            <defs
               id="defs3985">
              <path
                 d="m 37.796875,64.3125 -24.90625,-38.921875 24.90625,0 z m -2.59375,8.59375 12.40625,0 0,-47.515625 10.40625,0 0,-8.203125 -10.40625,0 0,-17.1875 -9.8125,0 0,17.1875 -32.90625,0 0,9.515625 z"
                 id="DejaVuSans-34"
                 style="stroke-linecap:butt;stroke-linejoin:round" />
            </defs>
            <g
               style="fill:#ffffff;stroke-linecap:butt;stroke-linejoin:round"
               transform="matrix(0.1,0,0,-0.1,183.01207,266.59844)"
               id="g3988">
              <use
                 xlink:href="#DejaVuSans-30"
                 id="use3990"
                 style="stroke-linecap:butt;stroke-linejoin:round"
                 x="0"
                 y="0"
                 width="432"
                 height="288" />
              <use
                 x="63.623047"
                 xlink:href="#DejaVuSans-2e"
                 id="use3992"
                 style="stroke-linecap:butt;stroke-linejoin:round"
                 y="0"
                 width="432"
                 height="288" />
              <use
                 x="95.410156"
                 xlink:href="#DejaVuSans-34"
                 id="use3994"
                 style="stroke-linecap:butt;stroke-linejoin:round"
                 y="0"
                 width="432"
                 height="288" />
            </g>
          </g>
        </g>
        <g
           id="xtick_4"
           style="stroke-linecap:butt;stroke-linejoin:round">
          <g
             id="line2d_4"
             style="stroke-linecap:butt;stroke-linejoin:round">
            <g
               id="g3998"
               style="stroke-linecap:butt;stroke-linejoin:round">
              <use
                 style="fill:#ffffff;stroke:#ffffff;stroke-width:0.80000001;stroke-linecap:butt;stroke-linejoin:round"
                 x="251.83636"
                 xlink:href="#m400914ac13"
                 y="252"
                 id="use4000"
                 width="432"
                 height="288" />
            </g>
          </g>
          <g
             id="text_4"
             style="stroke-linecap:butt;stroke-linejoin:round">
            <!-- 0.6 -->
            <defs
               id="defs4003">
              <path
                 d="m 33.015625,40.375 q -6.640625,0 -10.53125,-4.546875 -3.875,-4.53125 -3.875,-12.4375 0,-7.859375 3.875,-12.4375 3.890625,-4.5625 10.53125,-4.5625 6.640625,0 10.515625,4.5625 3.875,4.578125 3.875,12.4375 0,7.90625 -3.875,12.4375 Q 39.65625,40.375 33.015625,40.375 z m 19.578125,30.921875 0,-8.984375 q -3.71875,1.75 -7.5,2.671875 -3.78125,0.9375 -7.5,0.9375 -9.765625,0 -14.921875,-6.59375 -5.140625,-6.59375 -5.875,-19.921875 2.875,4.25 7.21875,6.515625 4.359375,2.265625 9.578125,2.265625 10.984375,0 17.359375,-6.671875 6.375,-6.65625 6.375,-18.125 0,-11.234375 -6.640625,-18.03125 -6.640625,-6.78125 -17.671875,-6.78125 -12.65625,0 -19.34375,9.6875 -6.6875,9.703125 -6.6875,28.109375 0,17.28125 8.203125,27.5625 8.203125,10.28125 22.015625,10.28125 3.71875,0 7.5,-0.734375 3.78125,-0.734375 7.890625,-2.1875 z"
                 id="DejaVuSans-36"
                 style="stroke-linecap:butt;stroke-linejoin:round" />
            </defs>
            <g
               style="fill:#ffffff;stroke-linecap:butt;stroke-linejoin:round"
               transform="matrix(0.1,0,0,-0.1,243.8848,266.59844)"
               id="g4006">
              <use
                 xlink:href="#DejaVuSans-30"
                 id="use4008"
                 style="stroke-linecap:butt;stroke-linejoin:round"
                 x="0"
                 y="0"
                 width="432"
                 height="288" />
              <use
                 x="63.623047"
                 xlink:href="#DejaVuSans-2e"
                 id="use4010"
                 style="stroke-linecap:butt;stroke-linejoin:round"
                 y="0"
                 width="432"
                 height="288" />
              <use
                 x="95.410156"
                 xlink:href="#DejaVuSans-36"
                 id="use4012"
                 style="stroke-linecap:butt;stroke-linejoin:round"
                 y="0"
                 width="432"
                 height="288" />
            </g>
          </g>
        </g>
        <g
           id="xtick_5"
           style="stroke-linecap:butt;stroke-linejoin:round">
          <g
             id="line2d_5"
             style="stroke-linecap:butt;stroke-linejoin:round">
            <g
               id="g4016"
               style="stroke-linecap:butt;stroke-linejoin:round">
              <use
                 style="fill:#ffffff;stroke:#ffffff;stroke-width:0.80000001;stroke-linecap:butt;stroke-linejoin:round"
                 x="312.70908"
                 xlink:href="#m400914ac13"
                 y="252"
                 id="use4018"
                 width="432"
                 height="288" />
            </g>
          </g>
          <g
             id="text_5"
             style="stroke-linecap:butt;stroke-linejoin:round">
            <!-- 0.8 -->
            <defs
               id="defs4021">
              <path
                 d="m 31.78125,34.625 q -7.03125,0 -11.0625,-3.765625 -4.015625,-3.765625 -4.015625,-10.34375 0,-6.59375 4.015625,-10.359375 4.03125,-3.765625 11.0625,-3.765625 7.03125,0 11.078125,3.78125 4.0625,3.796875 4.0625,10.34375 0,6.578125 -4.03125,10.34375 Q 38.875,34.625 31.78125,34.625 z m -9.859375,4.1875 Q 15.578125,40.375 12.03125,44.71875 8.5,49.078125 8.5,55.328125 q 0,8.734375 6.21875,13.8125 6.234375,5.078125 17.0625,5.078125 10.890625,0 17.09375,-5.078125 6.203125,-5.078125 6.203125,-13.8125 0,-6.25 -3.546875,-10.609375 Q 48,40.375 41.703125,38.8125 q 7.125,-1.65625 11.09375,-6.5 3.984375,-4.828125 3.984375,-11.796875 0,-10.609375 -6.46875,-16.28125 -6.46875,-5.65625 -18.53125,-5.65625 -12.046875,0 -18.53125,5.65625 -6.46875,5.671875 -6.46875,16.28125 0,6.96875 4,11.796875 4.015625,4.84375 11.140625,6.5 z M 18.3125,54.390625 q 0,-5.65625 3.53125,-8.828125 3.546875,-3.171875 9.9375,-3.171875 6.359375,0 9.9375,3.171875 3.59375,3.171875 3.59375,8.828125 0,5.671875 -3.59375,8.84375 -3.578125,3.171875 -9.9375,3.171875 -6.390625,0 -9.9375,-3.171875 Q 18.3125,60.0625 18.3125,54.390625 z"
                 id="DejaVuSans-38"
                 style="stroke-linecap:butt;stroke-linejoin:round" />
            </defs>
            <g
               style="fill:#ffffff;stroke-linecap:butt;stroke-linejoin:round"
               transform="matrix(0.1,0,0,-0.1,304.75753,266.59844)"
               id="g4024">
              <use
                 xlink:href="#DejaVuSans-30"
                 id="use4026"
                 style="stroke-linecap:butt;stroke-linejoin:round"
                 x="0"
                 y="0"
                 width="432"
                 height="288" />
              <use
                 x="63.623047"
                 xlink:href="#DejaVuSans-2e"
                 id="use4028"
                 style="stroke-linecap:butt;stroke-linejoin:round"
                 y="0"
                 width="432"
                 height="288" />
              <use
                 x="95.410156"
                 xlink:href="#DejaVuSans-38"
                 id="use4030"
                 style="stroke-linecap:butt;stroke-linejoin:round"
                 y="0"
                 width="432"
                 height="288" />
            </g>
          </g>
        </g>
        <g
           id="xtick_6"
           style="stroke-linecap:butt;stroke-linejoin:round">
          <g
             id="line2d_6"
             style="stroke-linecap:butt;stroke-linejoin:round">
            <g
               id="g4034"
               style="stroke-linecap:butt;stroke-linejoin:round">
              <use
                 style="fill:#ffffff;stroke:#ffffff;stroke-width:0.80000001;stroke-linecap:butt;stroke-linejoin:round"
                 x="373.58182"
                 xlink:href="#m400914ac13"
                 y="252"
                 id="use4036"
                 width="432"
                 height="288" />
            </g>
          </g>
          <g
             id="text_6"
             style="stroke-linecap:butt;stroke-linejoin:round">
            <!-- 1.0 -->
            <defs
               id="defs4039">
              <path
                 d="m 12.40625,8.296875 16.109375,0 0,55.625 -17.53125,-3.515625 0,8.984375 17.4375,3.515625 9.859375,0 0,-64.609375 16.109375,0 0,-8.296875 -41.984375,0 z"
                 id="DejaVuSans-31"
                 style="stroke-linecap:butt;stroke-linejoin:round" />
            </defs>
            <g
               style="fill:#ffffff;stroke-linecap:butt;stroke-linejoin:round"
               transform="matrix(0.1,0,0,-0.1,365.63026,266.59844)"
               id="g4042">
              <use
                 xlink:href="#DejaVuSans-31"
                 id="use4044"
                 style="stroke-linecap:butt;stroke-linejoin:round"
                 x="0"
                 y="0"
                 width="432"
                 height="288" />
              <use
                 x="63.623047"
                 xlink:href="#DejaVuSans-2e"
                 id="use4046"
                 style="stroke-linecap:butt;stroke-linejoin:round"
                 y="0"
                 width="432"
                 height="288" />
              <use
                 x="95.410156"
                 xlink:href="#DejaVuSans-30"
                 id="use4048"
                 style="stroke-linecap:butt;stroke-linejoin:round"
                 y="0"
                 width="432"
                 height="288" />
            </g>
          </g>
        </g>
        <g
           id="text_7"
           style="stroke-linecap:butt;stroke-linejoin:round">
          <!-- False Positive Rate -->
          <defs
             id="defs4051">
            <path
               d="m 9.8125,72.90625 41.890625,0 0,-8.3125 -32.03125,0 0,-21.484375 28.90625,0 0,-8.296875 -28.90625,0 0,-34.8125 L 9.8125,0 z"
               id="DejaVuSans-46"
               style="stroke-linecap:butt;stroke-linejoin:round" />
            <path
               d="m 34.28125,27.484375 q -10.890625,0 -15.09375,-2.484375 -4.203125,-2.484375 -4.203125,-8.5 0,-4.78125 3.15625,-7.59375 3.15625,-2.796875 8.5625,-2.796875 7.484375,0 12,5.296875 4.515625,5.296875 4.515625,14.078125 l 0,2 z m 17.921875,3.71875 0,-31.203125 -8.984375,0 0,8.296875 q -3.078125,-4.96875 -7.671875,-7.34375 -4.59375,-2.375 -11.234375,-2.375 -8.390625,0 -13.359375,4.71875 Q 6,8.015625 6,15.921875 q 0,9.21875 6.171875,13.90625 6.1875,4.6875 18.4375,4.6875 l 12.609375,0 0,0.890625 q 0,6.203125 -4.078125,9.59375 -4.078125,3.390625 -11.453125,3.390625 -4.6875,0 -9.140625,-1.125 -4.4375,-1.125 -8.53125,-3.375 l 0,8.3125 q 4.921875,1.90625 9.5625,2.84375 Q 24.21875,56 28.609375,56 q 11.875,0 17.734375,-6.15625 5.859375,-6.140625 5.859375,-18.640625 z"
               id="DejaVuSans-61"
               style="stroke-linecap:butt;stroke-linejoin:round" />
            <path
               d="m 9.421875,75.984375 8.984375,0 L 18.40625,0 9.421875,0 z"
               id="DejaVuSans-6c"
               style="stroke-linecap:butt;stroke-linejoin:round" />
            <path
               d="m 44.28125,53.078125 0,-8.5 Q 40.484375,46.53125 36.375,47.5 q -4.09375,0.984375 -8.5,0.984375 -6.6875,0 -10.03125,-2.046875 Q 14.5,44.390625 14.5,40.28125 q 0,-3.125 2.390625,-4.90625 2.390625,-1.78125 9.625,-3.390625 l 3.078125,-0.6875 Q 39.15625,29.25 43.1875,25.515625 47.21875,21.78125 47.21875,15.09375 q 0,-7.625 -6.03125,-12.078125 -6.03125,-4.4375 -16.578125,-4.4375 -4.390625,0 -9.15625,0.859375 Q 10.6875,0.296875 5.421875,2 l 0,9.28125 q 4.984375,-2.59375 9.8125,-3.890625 4.828125,-1.28125 9.578125,-1.28125 6.34375,0 9.75,2.171875 3.421875,2.171875 3.421875,6.125 0,3.65625 -2.46875,5.609375 -2.453125,1.953125 -10.8125,3.765625 l -3.125,0.734375 q -8.34375,1.75 -12.0625,5.390625 -3.703125,3.640625 -3.703125,9.984375 0,7.71875 5.46875,11.90625 Q 16.75,56 26.8125,56 q 4.96875,0 9.359375,-0.734375 4.40625,-0.71875 8.109375,-2.1875 z"
               id="DejaVuSans-73"
               style="stroke-linecap:butt;stroke-linejoin:round" />
            <path
               d="m 56.203125,29.59375 0,-4.390625 -41.3125,0 q 0.59375,-9.28125 5.59375,-14.140625 5,-4.859375 13.9375,-4.859375 5.171875,0 10.03125,1.265625 4.859375,1.265625 9.65625,3.8125 l 0,-8.5 q -4.84375,-2.046875 -9.921875,-3.125 -5.078125,-1.078125 -10.296875,-1.078125 -13.09375,0 -20.734375,7.609375 -7.640625,7.625 -7.640625,20.625 0,13.421875 7.25,21.296875 Q 20.015625,56 32.328125,56 q 11.03125,0 17.453125,-7.109375 6.421875,-7.09375 6.421875,-19.296875 z m -8.984375,2.640625 q -0.09375,7.359375 -4.125,11.75 -4.03125,4.40625 -10.671875,4.40625 -7.515625,0 -12.03125,-4.25 -4.515625,-4.25 -5.203125,-11.96875 z"
               id="DejaVuSans-65"
               style="stroke-linecap:butt;stroke-linejoin:round" />
            <path
               id="DejaVuSans-20"
               d=""
               style="stroke-linecap:butt;stroke-linejoin:round" />
            <path
               d="m 19.671875,64.796875 0,-27.390625 12.40625,0 q 6.890625,0 10.640625,3.5625 3.765625,3.5625 3.765625,10.15625 0,6.546875 -3.765625,10.109375 -3.75,3.5625 -10.640625,3.5625 z M 9.8125,72.90625 l 22.265625,0 q 12.265625,0 18.53125,-5.546875 6.28125,-5.546875 6.28125,-16.234375 0,-10.796875 -6.28125,-16.3125 -6.265625,-5.515625 -18.53125,-5.515625 l -12.40625,0 L 19.671875,0 9.8125,0 z"
               id="DejaVuSans-50"
               style="stroke-linecap:butt;stroke-linejoin:round" />
            <path
               d="m 30.609375,48.390625 q -7.21875,0 -11.421875,-5.640625 -4.203125,-5.640625 -4.203125,-15.453125 0,-9.8125 4.171875,-15.453125 4.1875,-5.640625 11.453125,-5.640625 7.1875,0 11.375,5.65625 4.203125,5.671875 4.203125,15.4375 0,9.71875 -4.203125,15.40625 -4.1875,5.6875 -11.375,5.6875 z m 0,7.609375 q 11.71875,0 18.40625,-7.625 6.703125,-7.609375 6.703125,-21.078125 0,-13.421875 -6.703125,-21.078125 -6.6875,-7.640625 -18.40625,-7.640625 -11.765625,0 -18.4375,7.640625 -6.65625,7.65625 -6.65625,21.078125 0,13.46875 6.65625,21.078125 Q 18.84375,56 30.609375,56 z"
               id="DejaVuSans-6f"
               style="stroke-linecap:butt;stroke-linejoin:round" />
            <path
               d="m 9.421875,54.6875 8.984375,0 0,-54.6875 -8.984375,0 z m 0,21.296875 8.984375,0 0,-11.390625 -8.984375,0 z"
               id="DejaVuSans-69"
               style="stroke-linecap:butt;stroke-linejoin:round" />
            <path
               d="m 18.3125,70.21875 0,-15.53125 18.5,0 0,-6.984375 -18.5,0 0,-29.6875 q 0,-6.6875 1.828125,-8.59375 1.828125,-1.90625 7.453125,-1.90625 l 9.21875,0 L 36.8125,0 27.59375,0 Q 17.1875,0 13.234375,3.875 9.28125,7.765625 9.28125,18.015625 l 0,29.6875 -6.59375,0 0,6.984375 6.59375,0 0,15.53125 z"
               id="DejaVuSans-74"
               style="stroke-linecap:butt;stroke-linejoin:round" />
            <path
               d="M 2.984375,54.6875 12.5,54.6875 29.59375,8.796875 46.6875,54.6875 l 9.515625,0 L 35.6875,0 23.484375,0 z"
               id="DejaVuSans-76"
               style="stroke-linecap:butt;stroke-linejoin:round" />
            <path
               d="m 44.390625,34.1875 q 3.171875,-1.078125 6.171875,-4.59375 3,-3.515625 6.03125,-9.671875 L 66.609375,0 56,0 46.6875,18.703125 q -3.625,7.328125 -7.015625,9.71875 -3.390625,2.390625 -9.25,2.390625 l -10.75,0 0,-30.8125 -9.859375,0 0,72.90625 22.265625,0 q 12.5,0 18.65625,-5.234375 6.15625,-5.21875 6.15625,-15.765625 0,-6.890625 -3.203125,-11.4375 -3.203125,-4.53125 -9.296875,-6.28125 z m -24.71875,30.609375 0,-25.875 12.40625,0 q 7.125,0 10.765625,3.296875 3.640625,3.296875 3.640625,9.6875 0,6.390625 -3.640625,9.640625 -3.640625,3.25 -10.765625,3.25 z"
               id="DejaVuSans-52"
               style="stroke-linecap:butt;stroke-linejoin:round" />
          </defs>
          <g
             style="fill:#ffffff;stroke-linecap:butt;stroke-linejoin:round"
             transform="matrix(0.1,0,0,-0.1,174.19453,280.27656)"
             id="g4065">
            <use
               xlink:href="#DejaVuSans-46"
               id="use4067"
               style="stroke-linecap:butt;stroke-linejoin:round"
               x="0"
               y="0"
               width="432"
               height="288" />
            <use
               x="57.378906"
               xlink:href="#DejaVuSans-61"
               id="use4069"
               style="stroke-linecap:butt;stroke-linejoin:round"
               y="0"
               width="432"
               height="288" />
            <use
               x="118.6582"
               xlink:href="#DejaVuSans-6c"
               id="use4071"
               style="stroke-linecap:butt;stroke-linejoin:round"
               y="0"
               width="432"
               height="288" />
            <use
               x="146.44141"
               xlink:href="#DejaVuSans-73"
               id="use4073"
               style="stroke-linecap:butt;stroke-linejoin:round"
               y="0"
               width="432"
               height="288" />
            <use
               x="198.54102"
               xlink:href="#DejaVuSans-65"
               id="use4075"
               style="stroke-linecap:butt;stroke-linejoin:round"
               y="0"
               width="432"
               height="288" />
            <use
               x="260.06445"
               xlink:href="#DejaVuSans-20"
               id="use4077"
               style="stroke-linecap:butt;stroke-linejoin:round"
               y="0"
               width="432"
               height="288" />
            <use
               x="291.85156"
               xlink:href="#DejaVuSans-50"
               id="use4079"
               style="stroke-linecap:butt;stroke-linejoin:round"
               y="0"
               width="432"
               height="288" />
            <use
               x="352.10742"
               xlink:href="#DejaVuSans-6f"
               id="use4081"
               style="stroke-linecap:butt;stroke-linejoin:round"
               y="0"
               width="432"
               height="288" />
            <use
               x="413.28906"
               xlink:href="#DejaVuSans-73"
               id="use4083"
               style="stroke-linecap:butt;stroke-linejoin:round"
               y="0"
               width="432"
               height="288" />
            <use
               x="465.38867"
               xlink:href="#DejaVuSans-69"
               id="use4085"
               style="stroke-linecap:butt;stroke-linejoin:round"
               y="0"
               width="432"
               height="288" />
            <use
               x="493.17188"
               xlink:href="#DejaVuSans-74"
               id="use4087"
               style="stroke-linecap:butt;stroke-linejoin:round"
               y="0"
               width="432"
               height="288" />
            <use
               x="532.38086"
               xlink:href="#DejaVuSans-69"
               id="use4089"
               style="stroke-linecap:butt;stroke-linejoin:round"
               y="0"
               width="432"
               height="288" />
            <use
               x="560.16406"
               xlink:href="#DejaVuSans-76"
               id="use4091"
               style="stroke-linecap:butt;stroke-linejoin:round"
               y="0"
               width="432"
               height="288" />
            <use
               x="619.34375"
               xlink:href="#DejaVuSans-65"
               id="use4093"
               style="stroke-linecap:butt;stroke-linejoin:round"
               y="0"
               width="432"
               height="288" />
            <use
               x="680.86719"
               xlink:href="#DejaVuSans-20"
               id="use4095"
               style="stroke-linecap:butt;stroke-linejoin:round"
               y="0"
               width="432"
               height="288" />
            <use
               x="712.6543"
               xlink:href="#DejaVuSans-52"
               id="use4097"
               style="stroke-linecap:butt;stroke-linejoin:round"
               y="0"
               width="432"
               height="288" />
            <use
               x="782.10547"
               xlink:href="#DejaVuSans-61"
               id="use4099"
               style="stroke-linecap:butt;stroke-linejoin:round"
               y="0"
               width="432"
               height="288" />
            <use
               x="843.38477"
               xlink:href="#DejaVuSans-74"
               id="use4101"
               style="stroke-linecap:butt;stroke-linejoin:round"
               y="0"
               width="432"
               height="288" />
            <use
               x="882.59375"
               xlink:href="#DejaVuSans-65"
               id="use4103"
               style="stroke-linecap:butt;stroke-linejoin:round"
               y="0"
               width="432"
               height="288" />
          </g>
        </g>
      </g>
      <g
         id="matplotlib.axis_2"
         style="stroke-linecap:butt;stroke-linejoin:round">
        <g
           id="ytick_1"
           style="stroke-linecap:butt;stroke-linejoin:round">
          <g
             id="line2d_7"
             style="stroke-linecap:butt;stroke-linejoin:round">
            <defs
               id="defs4108">
              <path
                 d="M 0,0 -3.5,0"
                 id="mc2f5149f5e"
                 style="stroke:#ffffff;stroke-width:0.80000001;stroke-linecap:butt;stroke-linejoin:round" />
            </defs>
            <g
               id="g4111"
               style="stroke-linecap:butt;stroke-linejoin:round">
              <use
                 style="fill:#ffffff;stroke:#ffffff;stroke-width:0.80000001;stroke-linecap:butt;stroke-linejoin:round"
                 x="54"
                 xlink:href="#mc2f5149f5e"
                 y="242.12538"
                 id="use4113"
                 width="432"
                 height="288" />
            </g>
          </g>
          <g
             id="text_8"
             style="stroke-linecap:butt;stroke-linejoin:round">
            <!-- 0.0 -->
            <g
               style="fill:#ffffff;stroke-linecap:butt;stroke-linejoin:round"
               transform="matrix(0.1,0,0,-0.1,31.096875,245.9246)"
               id="g4116">
              <use
                 xlink:href="#DejaVuSans-30"
                 id="use4118"
                 style="stroke-linecap:butt;stroke-linejoin:round"
                 x="0"
                 y="0"
                 width="432"
                 height="288" />
              <use
                 x="63.623047"
                 xlink:href="#DejaVuSans-2e"
                 id="use4120"
                 style="stroke-linecap:butt;stroke-linejoin:round"
                 y="0"
                 width="432"
                 height="288" />
              <use
                 x="95.410156"
                 xlink:href="#DejaVuSans-30"
                 id="use4122"
                 style="stroke-linecap:butt;stroke-linejoin:round"
                 y="0"
                 width="432"
                 height="288" />
            </g>
          </g>
        </g>
        <g
           id="ytick_2"
           style="stroke-linecap:butt;stroke-linejoin:round">
          <g
             id="line2d_8"
             style="stroke-linecap:butt;stroke-linejoin:round">
            <g
               id="g4126"
               style="stroke-linecap:butt;stroke-linejoin:round">
              <use
                 style="fill:#ffffff;stroke:#ffffff;stroke-width:0.80000001;stroke-linecap:butt;stroke-linejoin:round"
                 x="54"
                 xlink:href="#mc2f5149f5e"
                 y="202.58904"
                 id="use4128"
                 width="432"
                 height="288" />
            </g>
          </g>
          <g
             id="text_9"
             style="stroke-linecap:butt;stroke-linejoin:round">
            <!-- 0.2 -->
            <g
               style="fill:#ffffff;stroke-linecap:butt;stroke-linejoin:round"
               transform="matrix(0.1,0,0,-0.1,31.096875,206.38825)"
               id="g4131">
              <use
                 xlink:href="#DejaVuSans-30"
                 id="use4133"
                 style="stroke-linecap:butt;stroke-linejoin:round"
                 x="0"
                 y="0"
                 width="432"
                 height="288" />
              <use
                 x="63.623047"
                 xlink:href="#DejaVuSans-2e"
                 id="use4135"
                 style="stroke-linecap:butt;stroke-linejoin:round"
                 y="0"
                 width="432"
                 height="288" />
              <use
                 x="95.410156"
                 xlink:href="#DejaVuSans-32"
                 id="use4137"
                 style="stroke-linecap:butt;stroke-linejoin:round"
                 y="0"
                 width="432"
                 height="288" />
            </g>
          </g>
        </g>
        <g
           id="ytick_3"
           style="stroke-linecap:butt;stroke-linejoin:round">
          <g
             id="line2d_9"
             style="stroke-linecap:butt;stroke-linejoin:round">
            <g
               id="g4141"
               style="stroke-linecap:butt;stroke-linejoin:round">
              <use
                 style="fill:#ffffff;stroke:#ffffff;stroke-width:0.80000001;stroke-linecap:butt;stroke-linejoin:round"
                 x="54"
                 xlink:href="#mc2f5149f5e"
                 y="163.05269"
                 id="use4143"
                 width="432"
                 height="288" />
            </g>
          </g>
          <g
             id="text_10"
             style="stroke-linecap:butt;stroke-linejoin:round">
            <!-- 0.4 -->
            <g
               style="fill:#ffffff;stroke-linecap:butt;stroke-linejoin:round"
               transform="matrix(0.1,0,0,-0.1,31.096875,166.8519)"
               id="g4146">
              <use
                 xlink:href="#DejaVuSans-30"
                 id="use4148"
                 style="stroke-linecap:butt;stroke-linejoin:round"
                 x="0"
                 y="0"
                 width="432"
                 height="288" />
              <use
                 x="63.623047"
                 xlink:href="#DejaVuSans-2e"
                 id="use4150"
                 style="stroke-linecap:butt;stroke-linejoin:round"
                 y="0"
                 width="432"
                 height="288" />
              <use
                 x="95.410156"
                 xlink:href="#DejaVuSans-34"
                 id="use4152"
                 style="stroke-linecap:butt;stroke-linejoin:round"
                 y="0"
                 width="432"
                 height="288" />
            </g>
          </g>
        </g>
        <g
           id="ytick_4"
           style="stroke-linecap:butt;stroke-linejoin:round">
          <g
             id="line2d_10"
             style="stroke-linecap:butt;stroke-linejoin:round">
            <g
               id="g4156"
               style="stroke-linecap:butt;stroke-linejoin:round">
              <use
                 style="fill:#ffffff;stroke:#ffffff;stroke-width:0.80000001;stroke-linecap:butt;stroke-linejoin:round"
                 x="54"
                 xlink:href="#mc2f5149f5e"
                 y="123.51633"
                 id="use4158"
                 width="432"
                 height="288" />
            </g>
          </g>
          <g
             id="text_11"
             style="stroke-linecap:butt;stroke-linejoin:round">
            <!-- 0.6 -->
            <g
               style="fill:#ffffff;stroke-linecap:butt;stroke-linejoin:round"
               transform="matrix(0.1,0,0,-0.1,31.096875,127.31555)"
               id="g4161">
              <use
                 xlink:href="#DejaVuSans-30"
                 id="use4163"
                 style="stroke-linecap:butt;stroke-linejoin:round"
                 x="0"
                 y="0"
                 width="432"
                 height="288" />
              <use
                 x="63.623047"
                 xlink:href="#DejaVuSans-2e"
                 id="use4165"
                 style="stroke-linecap:butt;stroke-linejoin:round"
                 y="0"
                 width="432"
                 height="288" />
              <use
                 x="95.410156"
                 xlink:href="#DejaVuSans-36"
                 id="use4167"
                 style="stroke-linecap:butt;stroke-linejoin:round"
                 y="0"
                 width="432"
                 height="288" />
            </g>
          </g>
        </g>
        <g
           id="ytick_5"
           style="stroke-linecap:butt;stroke-linejoin:round">
          <g
             id="line2d_11"
             style="stroke-linecap:butt;stroke-linejoin:round">
            <g
               id="g4171"
               style="stroke-linecap:butt;stroke-linejoin:round">
              <use
                 style="fill:#ffffff;stroke:#ffffff;stroke-width:0.80000001;stroke-linecap:butt;stroke-linejoin:round"
                 x="54"
                 xlink:href="#mc2f5149f5e"
                 y="83.979988"
                 id="use4173"
                 width="432"
                 height="288" />
            </g>
          </g>
          <g
             id="text_12"
             style="stroke-linecap:butt;stroke-linejoin:round">
            <!-- 0.8 -->
            <g
               style="fill:#ffffff;stroke-linecap:butt;stroke-linejoin:round"
               transform="matrix(0.1,0,0,-0.1,31.096875,87.779204)"
               id="g4176">
              <use
                 xlink:href="#DejaVuSans-30"
                 id="use4178"
                 style="stroke-linecap:butt;stroke-linejoin:round"
                 x="0"
                 y="0"
                 width="432"
                 height="288" />
              <use
                 x="63.623047"
                 xlink:href="#DejaVuSans-2e"
                 id="use4180"
                 style="stroke-linecap:butt;stroke-linejoin:round"
                 y="0"
                 width="432"
                 height="288" />
              <use
                 x="95.410156"
                 xlink:href="#DejaVuSans-38"
                 id="use4182"
                 style="stroke-linecap:butt;stroke-linejoin:round"
                 y="0"
                 width="432"
                 height="288" />
            </g>
          </g>
        </g>
        <g
           id="ytick_6"
           style="stroke-linecap:butt;stroke-linejoin:round">
          <g
             id="line2d_12"
             style="stroke-linecap:butt;stroke-linejoin:round">
            <g
               id="g4186"
               style="stroke-linecap:butt;stroke-linejoin:round">
              <use
                 style="fill:#ffffff;stroke:#ffffff;stroke-width:0.80000001;stroke-linecap:butt;stroke-linejoin:round"
                 x="54"
                 xlink:href="#mc2f5149f5e"
                 y="44.443638"
                 id="use4188"
                 width="432"
                 height="288" />
            </g>
          </g>
          <g
             id="text_13"
             style="stroke-linecap:butt;stroke-linejoin:round">
            <!-- 1.0 -->
            <g
               style="fill:#ffffff;stroke-linecap:butt;stroke-linejoin:round"
               transform="matrix(0.1,0,0,-0.1,31.096875,48.242855)"
               id="g4191">
              <use
                 xlink:href="#DejaVuSans-31"
                 id="use4193"
                 style="stroke-linecap:butt;stroke-linejoin:round"
                 x="0"
                 y="0"
                 width="432"
                 height="288" />
              <use
                 x="63.623047"
                 xlink:href="#DejaVuSans-2e"
                 id="use4195"
                 style="stroke-linecap:butt;stroke-linejoin:round"
                 y="0"
                 width="432"
                 height="288" />
              <use
                 x="95.410156"
                 xlink:href="#DejaVuSans-30"
                 id="use4197"
                 style="stroke-linecap:butt;stroke-linejoin:round"
                 y="0"
                 width="432"
                 height="288" />
            </g>
          </g>
        </g>
        <g
           id="text_14"
           style="stroke-linecap:butt;stroke-linejoin:round">
          <!-- True Positive Rate -->
          <defs
             id="defs4200">
            <path
               d="m -0.296875,72.90625 61.671875,0 0,-8.3125 -25.875,0 L 35.5,0 l -9.90625,0 0,64.59375 -25.890625,0 z"
               id="DejaVuSans-54"
               style="stroke-linecap:butt;stroke-linejoin:round" />
            <path
               d="m 41.109375,46.296875 q -1.515625,0.875 -3.296875,1.28125 Q 36.03125,48 33.890625,48 26.265625,48 22.1875,43.046875 18.109375,38.09375 18.109375,28.8125 l 0,-28.8125 -9.03125,0 0,54.6875 9.03125,0 0,-8.5 q 2.84375,4.984375 7.375,7.390625 Q 30.03125,56 36.53125,56 q 0.921875,0 2.046875,-0.125 1.125,-0.109375 2.484375,-0.359375 z"
               id="DejaVuSans-72"
               style="stroke-linecap:butt;stroke-linejoin:round" />
            <path
               d="m 8.5,21.578125 0,33.109375 8.984375,0 0,-32.765625 q 0,-7.765625 3.015625,-11.65625 3.03125,-3.875 9.09375,-3.875 7.265625,0 11.484375,4.640625 4.234375,4.640625 4.234375,12.65625 l 0,31 8.984375,0 0,-54.6875 -8.984375,0 0,8.40625 Q 42.046875,3.421875 37.71875,1 33.40625,-1.421875 27.6875,-1.421875 18.265625,-1.421875 13.375,4.4375 8.5,10.296875 8.5,21.578125 z M 31.109375,56 z"
               id="DejaVuSans-75"
               style="stroke-linecap:butt;stroke-linejoin:round" />
          </defs>
          <g
             style="fill:#ffffff;stroke-linecap:butt;stroke-linejoin:round"
             transform="matrix(0,-0.1,-0.1,0,25.017187,188.82609)"
             id="g4205">
            <use
               xlink:href="#DejaVuSans-54"
               id="use4207"
               style="stroke-linecap:butt;stroke-linejoin:round"
               x="0"
               y="0"
               width="432"
               height="288" />
            <use
               x="60.865234"
               xlink:href="#DejaVuSans-72"
               id="use4209"
               style="stroke-linecap:butt;stroke-linejoin:round"
               y="0"
               width="432"
               height="288" />
            <use
               x="101.97852"
               xlink:href="#DejaVuSans-75"
               id="use4211"
               style="stroke-linecap:butt;stroke-linejoin:round"
               y="0"
               width="432"
               height="288" />
            <use
               x="165.35742"
               xlink:href="#DejaVuSans-65"
               id="use4213"
               style="stroke-linecap:butt;stroke-linejoin:round"
               y="0"
               width="432"
               height="288" />
            <use
               x="226.88086"
               xlink:href="#DejaVuSans-20"
               id="use4215"
               style="stroke-linecap:butt;stroke-linejoin:round"
               y="0"
               width="432"
               height="288" />
            <use
               x="258.66797"
               xlink:href="#DejaVuSans-50"
               id="use4217"
               style="stroke-linecap:butt;stroke-linejoin:round"
               y="0"
               width="432"
               height="288" />
            <use
               x="318.92383"
               xlink:href="#DejaVuSans-6f"
               id="use4219"
               style="stroke-linecap:butt;stroke-linejoin:round"
               y="0"
               width="432"
               height="288" />
            <use
               x="380.10547"
               xlink:href="#DejaVuSans-73"
               id="use4221"
               style="stroke-linecap:butt;stroke-linejoin:round"
               y="0"
               width="432"
               height="288" />
            <use
               x="432.20508"
               xlink:href="#DejaVuSans-69"
               id="use4223"
               style="stroke-linecap:butt;stroke-linejoin:round"
               y="0"
               width="432"
               height="288" />
            <use
               x="459.98828"
               xlink:href="#DejaVuSans-74"
               id="use4225"
               style="stroke-linecap:butt;stroke-linejoin:round"
               y="0"
               width="432"
               height="288" />
            <use
               x="499.19727"
               xlink:href="#DejaVuSans-69"
               id="use4227"
               style="stroke-linecap:butt;stroke-linejoin:round"
               y="0"
               width="432"
               height="288" />
            <use
               x="526.98047"
               xlink:href="#DejaVuSans-76"
               id="use4229"
               style="stroke-linecap:butt;stroke-linejoin:round"
               y="0"
               width="432"
               height="288" />
            <use
               x="586.16016"
               xlink:href="#DejaVuSans-65"
               id="use4231"
               style="stroke-linecap:butt;stroke-linejoin:round"
               y="0"
               width="432"
               height="288" />
            <use
               x="647.68359"
               xlink:href="#DejaVuSans-20"
               id="use4233"
               style="stroke-linecap:butt;stroke-linejoin:round"
               y="0"
               width="432"
               height="288" />
            <use
               x="679.4707"
               xlink:href="#DejaVuSans-52"
               id="use4235"
               style="stroke-linecap:butt;stroke-linejoin:round"
               y="0"
               width="432"
               height="288" />
            <use
               x="748.92188"
               xlink:href="#DejaVuSans-61"
               id="use4237"
               style="stroke-linecap:butt;stroke-linejoin:round"
               y="0"
               width="432"
               height="288" />
            <use
               x="810.20117"
               xlink:href="#DejaVuSans-74"
               id="use4239"
               style="stroke-linecap:butt;stroke-linejoin:round"
               y="0"
               width="432"
               height="288" />
            <use
               x="849.41016"
               xlink:href="#DejaVuSans-65"
               id="use4241"
               style="stroke-linecap:butt;stroke-linejoin:round"
               y="0"
               width="432"
               height="288" />
          </g>
        </g>
      </g>
      <g
         id="line2d_13"
         style="stroke-linecap:butt;stroke-linejoin:round">
        <path
           clip-path="url(#p71cb6b0a6a)"
           d="m 69.218182,242.11636 0.110938,-22.73416 0.0014,-0.10822 0.110845,-7.48487 0.0015,-0.0992 0.110633,-5.14021 0.0025,-0.10821 0.11068,-4.49093 0.004,-0.10821 0.110961,-3.7244 0.0027,-0.10822 0.111102,-3.22841 0.0029,-0.10821 0.110867,-2.69636 0.0045,-0.10822 0.109974,-2.79555 0.0078,-0.10822 0.109787,-2.39876 3.76e-4,0 0.0094,-0.10822 0.110233,-2.2184 2.35e-4,0 0.007,-0.10822 0.110915,-2.05608 0.0052,-0.10822 0.110727,-1.64126 0.0064,-0.10821 0.110421,-1.76752 0.01572,-0.10821 0.110538,-1.56912 0.0091,-0.10821 0.110163,-1.23546 0.01032,-0.10821 0.11035,-1.38876 0.01208,-0.10822 0.109786,-1.28054 7.76e-4,0 0.01194,-0.10822 0.110398,-1.15429 0.0074,-0.10822 0.108729,-1.27152 0.0017,0 0.0172,-0.10822 0.110562,-1.32563 0.0088,-0.10822 0.105815,-1.20839 0.0031,0 0.01269,-0.10822 0.10974,-1.23546 8.69e-4,0 0.01043,-0.10821 0.110632,-1.03706 0.01177,-0.10822 0.110633,-1.00098 0.01154,-0.10822 0.110703,-1.06411 0.01805,-0.10822 0.111009,-0.97393 7e-5,0 0.01737,-0.10822 0.110821,-0.86572 0.01725,-0.10821 0.109152,-0.96492 0.0013,0 0.02145,-0.10822 0.110938,-0.68536 0.0042,-0.10821 0.110985,-0.88376 0.02033,-0.10821 0.110327,-0.81162 7.76e-4,0 0.02211,-0.10821 0.110139,-0.8567 7.76e-4,0 0.01102,-0.10822 0.109646,-0.84768 3.99e-4,0 0.0169,-0.10822 0.110703,-0.61321 0.02331,-0.10822 0.108823,-0.69438 6.82e-4,0 0.02256,-0.10821 0.110444,-0.58617 0.01932,-0.10821 0.110868,-0.63126 0.02112,-0.10821 0.109717,-0.7034 0.0012,0 0.01737,-0.10822 0.110209,-0.7575 0.01725,-0.10822 0.104241,-0.45991 0.0049,0 0.01419,-0.10821 0.11035,-0.59519 5.17e-4,0 0.01786,-0.10821 0.110256,-0.57715 1.65e-4,0 0.02912,-0.10821 0.110703,-0.64929 0.01377,-0.10822 0.111009,-0.55009 0.01676,-0.10822 0.108846,-0.46893 0.002,0 0.02115,-0.10821 0.110891,-0.45992 0.01922,-0.10821 0.110774,-0.54108 2.82e-4,0 0.01596,-0.10821 0.109599,-0.57715 0.0404,-0.10821 0.10887,-0.45992 0.0011,0 0.03814,-0.10821 0.110962,-0.50501 0.01793,-0.10821 0.110751,-0.61322 3.52e-4,0 0.02726,-0.10821 0.111079,-0.64929 0.02312,-0.10822 0.109011,-0.53206 6.58e-4,0 0.02935,-0.10821 0.109787,-0.42384 0.02827,-0.10822 0.104828,-0.41482 0.0052,0 0.04169,-0.10822 0.109551,-0.41482 0.0015,0 0.02056,-0.10822 0.107672,-0.45089 0.0031,0 0.02587,-0.0992 0.109223,-0.40581 0.0019,0 0.03266,-0.10821 0.108894,-0.40581 0.0021,0 0.02136,-0.10821 0.107578,-0.52304 0.0032,0 0.02127,-0.10822 0.11075,-0.47795 0.0349,-0.10821 0.101256,-0.46893 0.0086,0 0.03182,-0.0992 0.106239,-0.39679 0.0044,0 0.02712,-0.10821 0.109528,-0.43286 0.0012,0 0.03732,-0.10822 0.105909,-0.52304 0.0051,0 0.02832,-0.10821 0.110422,-0.39679 4.46e-4,0 0.04051,-0.10821 0.101868,-0.47795 0.009,0 0.05308,-0.10822 0.110562,-0.37875 3.53e-4,0 0.03553,-0.10822 0.109787,-0.39679 0.0013,0 0.04752,-0.10821 0.108894,-0.31563 0.0022,0 0.03882,-0.10821 0.110844,-0.24349 0.02216,-0.10821 0.111832,-0.41483 0.02883,-0.10821 0.111055,-0.40581 0.04533,-0.10821 0.108071,-0.27054 0.0027,0 0.03104,-0.10821 0.109622,-0.28858 0.0352,-0.10821 0.109106,-0.3517 0.0019,0 0.03673,-0.10822 0.110139,-0.33366 7.52e-4,0 0.04641,-0.10821 0.109693,-0.31563 0.0014,0 0.04944,-0.10822 0.107273,-0.34268 0.0024,0 0.08093,-0.10821 0.109975,-0.38777 0.0011,0 0.02792,-0.10822 0.106849,-0.32464 0.0042,0 0.03288,-0.10822 0.104617,-0.27955 0.0062,0 0.03125,-0.10822 0.106074,-0.3517 0.0047,0 0.03149,-0.10821 0.109222,-0.27054 0.0018,0 0.01765,-0.10821 0.110938,-0.27956 0.05376,-0.10821 0.110069,-0.38777 7.05e-4,0 0.0446,-0.10822 0.110327,-0.29759 1.65e-4,0 0.04126,-0.10821 0.109622,-0.27054 0.0015,0 0.06034,-0.10822 0.107555,-0.18937 0.0032,0 0.03536,-0.10822 0.110751,-0.36072 2.11e-4,0 0.03071,-0.10821 0.109599,-0.19839 0.0015,0 0.04618,-0.10822 0.110351,-0.37875 7.52e-4,0 0.04491,-0.10822 0.110985,-0.23446 4.7e-5,0 0.04322,-0.10822 0.09839,-0.28857 0.01238,0 0.04049,-0.10822 0.109951,-0.33366 9.87e-4,0 0.04178,-0.10821 0.110797,-0.28858 2.12e-4,0 0.05684,-0.10821 0.104688,-0.27054 0.0064,0 0.0457,-0.10821 0.105534,-0.2976 0.0048,0 0.03877,-0.10821 0.107343,-0.33366 0.0037,0 0.04592,-0.10822 0.105862,-0.24348 0.0048,0 0.05487,-0.10822 0.104664,-0.18937 0.0049,0 0.06429,-0.10822 0.09771,-0.18938 0.01339,0 0.06049,-0.10821 0.108142,-0.2525 0.0028,0 0.03985,-0.10822 0.107719,-0.19839 0.0034,0 0.04416,-0.10822 0.108988,-0.20741 0.0021,0 0.04902,-0.10821 0.106849,-0.18036 0.004,0 0.05489,-0.10822 0.108071,-0.28857 0.0029,0 0.04411,-0.10821 0.10779,-0.25251 0.0026,0 0.04777,-0.10821 0.103983,-0.13527 0.007,0 0.05811,-0.10822 0.102972,-0.20741 0.0072,0 0.05445,-0.10821 0.110186,-0.18938 8.7e-4,0 0.03393,-0.10821 0.103771,-0.18036 0.0073,0 0.04509,-0.10822 0.106779,-0.27054 0.0043,0 0.0763,-0.10821 0.108823,-0.23447 0.0022,0 0.07221,-0.10821 0.111102,-0.23447 0.08934,-0.10821 0.110938,-0.21643 9.4e-5,0 0.06981,-0.10822 0.106145,-0.2525 0.0048,0 0.05315,-0.10821 0.109246,-0.21643 0.0018,0 0.05889,-0.10822 0.108541,-0.24348 0.0013,0 0.08669,-0.10822 0.107813,-0.2525 0.0033,0 0.06598,-0.10821 0.107061,-0.24349 0.0039,0 0.07717,-0.10821 0.108447,-0.18036 0.0026,0 0.06248,-0.10821 0.111667,-0.26152 0.06375,-0.10822 0.110116,-0.17134 0.0595,-0.10822 0.111173,-0.21642 0.06843,-0.10822 0.111032,-0.26152 0.05273,-0.10821 0.09968,-0.21644 0.01114,0 0.06777,-0.10821 0.108306,-0.1533 0.0025,0 0.0536,-0.10822 0.111479,-0.22545 0.05959,-0.0992 0.110045,-0.27956 6.82e-4,0 0.06648,-0.10821 0.110421,-0.17135 4.7e-4,0 0.103912,-0.10821 0.09841,-0.22545 0.01259,0 0.0681,-0.10821 0.111384,-0.16233 0.07174,-0.10821 0.110375,-0.16232 6.58e-4,0 0.05705,-0.10822 0.108001,-0.18937 0.003,0 0.09012,-0.10822 0.109552,-0.18036 0.0015,0 0.112348,-0.10821 0.110586,-0.21643 4.7e-5,0 0.05313,-0.10822 0.106709,-0.18937 0.0044,0 0.07254,-0.10822 0.100693,-0.13527 0.01039,0 0.108095,-0.10821 0.10363,-0.2525 0.0074,0 0.07689,-0.10822 0.110539,-0.1533 4.93e-4,0 0.08133,-0.10822 0.109082,-0.16232 0.002,0 0.08088,-0.10822 0.101092,-0.16232 0.0095,0 0.0994,-0.10821 0.07423,-0.12626 0.03678,0 0.04888,-0.10821 0.107437,-0.23447 0.0036,0 0.100223,-0.10821 0.111008,-0.14429 0.06589,-0.10821 0.110515,-0.15331 5.88e-4,0 0.08015,-0.10821 0.110398,-0.22545 5.17e-4,0 0.07632,-0.10822 0.103348,-0.13526 0.0076,0 0.09773,-0.10822 0.104171,-0.18036 0.0068,0 0.06114,-0.10821 0.0935,-0.17134 0.01736,0 0.09902,-0.10822 0.109622,-0.18937 0.0015,0 0.08189,-0.10822 0.109175,-0.19839 0.0017,0 0.09155,-0.10822 0.102996,-0.19839 0.0078,0 0.06476,-0.10822 0.09971,-0.18937 0.01076,0 0.05095,-0.10822 0.09468,-0.12625 0.0164,0 0.06265,-0.10821 0.110398,-0.11724 7.05e-4,0 0.05618,-0.10821 0.107061,-0.18938 0.0038,0 0.08243,-0.10821 0.09099,-0.16232 0.02012,0 0.08819,-0.10822 0.111384,-0.13527 0.08192,-0.10821 0.106497,-0.11724 0.0046,0 0.0927,-0.10821 0.111056,-0.0902 4.7e-5,0 0.07853,-0.10822 0.108941,-0.17134 0.0018,0 0.148207,-0.10821 0.09956,-0.126252 0.01137,0 0.08384,-0.108215 0.100411,-0.08116 0.01067,0 0.114933,-0.108215 0.111478,-0.17134 0.119069,-0.108215 0.09855,-0.153305 0.01241,0 0.100528,-0.108215 0.09625,-0.0992 0.01478,0 0.12539,-0.108215 0.104593,-0.126251 0.0065,0 0.06662,-0.108215 0.108306,-0.243483 0.0026,0 0.09806,-0.108215 0.107202,-0.126251 0.0032,0 0.06164,-0.108215 0.101398,-0.225448 0.0097,0 0.08152,-0.108215 0.111314,-0.09018 0.06704,-0.108215 0.111455,-0.162323 0.04653,-0.108215 0.111384,-0.117233 0.06958,-0.108215 0.09447,-0.12625 0.01659,0 0.08765,-0.108215 0.09651,-0.09018 0.01459,0 0.107883,-0.108215 0.111267,-0.198394 0.06312,-0.108215 0.08159,-0.144286 0.0294,0 0.103607,-0.108215 0.103865,-0.162323 0.0072,0 0.08241,-0.108215 0.109059,-0.144287 0.0017,0 0.111996,-0.108215 0.108353,-0.153304 0.0026,0 0.08178,-0.108215 0.09395,-0.180358 0.0169,0 0.104992,-0.108215 0.109952,-0.126251 0.0011,0 0.133708,-0.108215 0.107672,-0.153305 0.0034,0 0.08685,-0.108215 0.111337,-0.126251 0.06413,-0.108215 0.100763,-0.153304 0.01034,0 0.108213,-0.108215 0.110703,-0.135269 1.64e-4,0 0.17549,-0.108215 0.111479,-0.144287 0.10934,-0.108215 0.09512,-0.0992 0.0156,0 0.09454,-0.108215 0.110819,-0.17134 0.074,-0.108215 0.0847,-0.135269 0.0263,0 0.1281,-0.108215 0.10485,-0.09018 0.006,0 0.16451,-0.108215 0.071,-0.07214 0.04,0 0.11427,-0.108215 0.10774,-0.117233 0.003,0 0.11721,-0.108215 0.10116,-0.126251 0.01,0 0.15089,-0.108215 0.0977,-0.108215 0.0133,0 0.19384,-0.108215 0.1111,-0.08116 0.1241,-0.108215 0.10462,-0.126251 0.006,0 0.12005,-0.108215 0.11033,-0.108215 7.5e-4,0 0.11416,-0.108215 0.11131,-0.108215 0.12998,-0.108215 0.10696,-0.126251 0.004,0 0.0904,-0.108215 0.10614,-0.06312 0.005,0 0.0734,-0.108215 0.1045,-0.09018 0.007,0 0.12923,-0.108215 0.0911,-0.09018 0.0199,0 0.10384,-0.108215 0.10438,-0.162322 0.007,0 0.13324,-0.108215 0.11131,-0.135269 0.25426,-0.108215 0.10908,-0.144287 0.002,0 0.19742,-0.108215 0.11117,-0.03607 0.144,-0.108215 0.0748,-0.0992 0.0363,0 0.19676,-0.108215 0.0897,-0.108215 0.0214,0 0.13432,-0.108215 0.11131,-0.09018 0.2086,-0.108215 0.11131,-0.108215 0.14532,-0.108215 0.10734,-0.117233 0.004,0 0.0971,-0.108215 0.10175,-0.07214 0.009,0 0.13298,-0.108215 0.11143,-0.135268 0.0791,-0.108215 0.0819,-0.0992 0.0291,0 0.10713,-0.108215 0.1108,-0.117232 3e-4,0 0.21391,-0.108215 0.0645,-0.08116 0.0465,0 0.18729,-0.108215 0.0906,-0.07214 0.0205,0 0.0714,-0.108215 0.10338,-0.108215 0.008,0 0.11371,-0.108215 0.0931,-0.135269 0.0179,0 0.185,-0.108215 0.0947,-0.08116 0.0163,0 0.12168,-0.108215 0.10163,-0.08116 0.009,0 0.19166,-0.108215 0.10349,-0.0992 0.007,0 0.16033,-0.108215 0.11132,-0.0992 0.19814,-0.108215 0.10793,-0.0992 0.003,0 0.0965,-0.108215 0.10986,-0.108215 10e-4,0 0.27428,-0.108215 0.11143,-0.08116 0.20914,-0.108215 0.0715,-0.07214 0.0395,0 0.17405,-0.108215 0.10962,-0.117233 0.001,0 0.13914,-0.108215 0.10969,-0.126251 0.001,0 0.22335,-0.108215 0.10967,-0.07214 0.001,0 0.13096,-0.108215 0.11136,-0.108215 0.14786,-0.108215 0.11124,-0.06313 0.11862,-0.108215 0.11,-0.07214 8.7e-4,0 0.1784,-0.108215 0.11139,-0.08116 0.10581,-0.108215 0.10518,-0.09018 0.006,0 0.1692,-0.108215 0.10562,-0.07214 0.005,0 0.15965,-0.108215 0.10786,-0.0992 0.003,0 0.21986,-0.108215 0.10866,-0.117233 0.002,0 0.20174,-0.108215 0.10833,-0.05411 0.003,0 0.11838,-0.108215 0.10979,-0.07214 0.001,0 0.18811,-0.108215 0.10271,-0.0992 0.008,0 0.2226,-0.108215 0.0746,-0.07214 0.0363,0 0.18783,-0.108215 0.1096,-0.07214 0.001,0 0.15324,-0.108215 0.10757,-0.09018 0.003,0 0.0707,-0.108215 0.094,-0.108215 0.0168,0 0.24786,-0.108215 0.10413,-0.0992 0.007,0 0.13345,-0.108215 0.11094,-0.09018 1.2e-4,0 0.18197,-0.108215 0.1112,-0.03607 0.20716,-0.108215 0.097,-0.06313 0.014,0 0.1463,-0.108215 0.11115,-0.08116 0.20919,-0.108215 0.0985,-0.07214 0.0126,0 0.23012,-0.108215 0.11141,-0.117233 0.27155,-0.108215 0.10248,-0.07214 0.009,0 0.16834,-0.108215 0.11129,-0.07214 0.18205,-0.108215 0.0985,-0.108215 0.0125,0 0.26813,-0.108215 0.0725,-0.0992 0.0386,0 0.15974,-0.108215 0.10488,-0.09018 0.006,0 0.23283,-0.108215 0.11009,-0.08116 9.9e-4,0 0.1973,-0.108215 0.10396,-0.09018 0.007,0 0.22984,-0.108215 0.11131,-0.08116 0.10472,-0.108215 0.0911,-0.135268 0.02,0 0.1507,-0.108215 0.0953,-0.06313 0.0158,0 0.21254,-0.108215 0.11179,-0.09018 0.2098,-0.108215 0.0941,-0.06312 0.017,0 0.162,-0.108215 0.11155,-0.09018 0.20082,-0.108215 0.11134,-0.09018 0.18966,-0.108215 0.11162,-0.0992 0.17979,-0.108215 0.11122,-0.07214 0.1306,-0.108215 0.10006,-0.06312 0.011,0 0.23066,-0.108215 0.11134,-0.04509 0.0858,-0.108215 0.0933,-0.07214 0.0178,0 0.28589,-0.108215 0.11113,-0.03607 0.20009,-0.108215 0.11126,-0.06312 0.18212,-0.108215 0.099,-0.04509 0.012,0 0.24319,-0.108215 0.0967,-0.03607 0.0144,0 0.34043,-0.108215 0.10868,-0.0992 0.002,0 0.25191,-0.108215 0.0769,-0.07214 0.0341,0 0.28102,-0.108215 0.10255,-0.04509 0.008,0 0.2007,-0.108215 0.11124,-0.03607 0.15719,-0.108215 0.11143,-0.07214 0.32555,-0.108215 0.11127,-0.07214 0.25064,-0.108215 0.11127,-0.06312 0.10833,-0.108215 0.11124,-0.06313 0.3761,-0.108215 0.10302,-0.09018 0.008,0 0.25919,-0.108215 0.085,-0.07214 0.0261,0 0.29427,-0.108215 0.0736,-0.06313 0.0375,0 0.2516,-0.108215 0.0985,-0.0992 0.0125,0 0.16168,-0.108215 0.0817,-0.07214 0.0294,0 0.10636,-0.108215 0.10854,-0.09018 0.003,0 0.43,-0.108215 0.11129,-0.04509 0.22649,-0.108215 0.11119,-0.06312 0.19032,-0.108215 0.1112,-0.04509 0.1843,-0.108215 0.10551,-0.05411 0.006,0 0.30476,-0.108215 0.0596,-0.05411 0.0515,0 0.42667,-0.108215 0.094,-0.06312 0.0171,0 0.45294,-0.108215 0.1112,-0.03607 0.32752,-0.108215 0.11153,-0.08116 0.28173,-0.108215 0.11129,-0.03607 0.31098,-0.108215 0.1029,-0.05411 0.008,0 0.3425,-0.108215 0.10262,-0.04509 0.008,0 0.20254,-0.108215 0.0969,-0.06312 0.0142,0 0.20071,-0.108215 0.11065,-0.05411 4e-4,0 0.21849,-0.108215 0.10723,-0.06312 0.004,0 0.18971,-0.108215 0.0954,-0.03607 0.0157,0 0.17076,-0.108215 0.10425,-0.07214 0.007,0 0.35791,-0.108215 0.10138,-0.08116 0.01,0 0.22761,-0.108215 0.074,-0.06313 0.037,0 0.26126,-0.108215 0.0583,-0.02705 0.0528,0 0.31648,-0.108215 0.11122,-0.08116 0.21116,-0.108215 0.11113,-0.02705 0.28985,-0.108215 0.11122,-0.07214 0.47384,-0.108215 0.0943,-0.06312 0.0168,0 0.32309,-0.108215 0.11099,-0.02705 0.20596,-0.108215 0.0979,-0.06312 0.0132,0 0.36026,-0.108215 0.0878,-0.05411 0.0233,0 0.41083,-0.108215 0.11129,-0.08116 0.34497,-0.108215 0.1103,-0.05411 8e-4,0 0.29493,-0.108215 0.11162,-0.0992 0.30547,-0.108215 0.076,-0.05411 0.0351,0 0.26521,-0.108215 0.1071,-0.06313 0.004,0 0.35056,-0.108215 0.11117,-0.03607 0.25701,-0.108215 0.11127,-0.06313 0.1886,-0.108215 0.11124,-0.05411 0.29874,-0.108215 0.11136,-0.05411 0.33169,-0.108215 0.10316,-0.07214 0.008,0 0.25931,-0.108215 0.1111,-0.01804 0.3882,-0.108215 0.10413,-0.04509 0.007,0 0.24991,-0.108215 0.0437,-0.03607 0.0674,0 0.28951,-0.108215 0.11127,-0.03607 0.25585,-0.108215 0.11141,-0.06313 0.24815,-0.108215 0.10243,-0.06313 0.009,0 0.27968,-0.108215 0.11148,-0.08116 0.27113,-0.108215 0.11105,-0.04509 0.41081,-0.108215 0.0961,-0.04509 0.0149,0 0.28863,-0.108215 0.11118,-0.04509 0.55184,-0.108215 0.11122,-0.04509 0.23083,-0.108215 0.10041,-0.05411 0.0107,0 0.37093,-0.108215 0.1112,-0.05411 0.46892,-0.108215 0.1103,-0.04509 8e-4,0 0.30368,-0.108215 0.1112,-0.04509 0.52778,-0.108215 0.10889,-0.03607 0.002,0 0.31531,-0.108215 0.10487,-0.05411 0.006,0 0.46246,-0.108215 0.1112,-0.03607 0.44915,-0.108215 0.1112,-0.04509 0.41405,-0.108215 0.11127,-0.04509 0.2775,-0.108215 0.0875,-0.06313 0.0236,0 0.28572,-0.108215 0.11157,-0.06313 0.20247,-0.108215 0.11117,-0.02705 0.53919,-0.108215 0.0669,-0.02705 0.044,0 0.20404,-0.108215 0.11136,-0.04509 0.41798,-0.108215 0.11122,-0.04509 0.34555,-0.108215 0.0812,-0.03607 0.0299,0 0.45522,-0.108215 0.11115,-0.04509 0.3259,-0.108215 0.11115,-0.03607 0.42446,-0.108215 0.11136,-0.05411 0.50685,-0.108215 0,-0.009 0.11108,0 0.32257,-0.108215 0.11115,-0.02705 0.39875,-0.108215 0.10683,-0.06312 0.004,0 0.60487,-0.108215 0.11119,-0.03607 0.57199,-0.108215 0,-0.009 0.11096,0 0.3785,-0.108215 0.11129,-0.03607 0.56134,-0.108215 0.11136,-0.03607 0.32344,-0.108215 0.11117,-0.04509 0.37173,-0.108215 0.0629,-0.02705 0.0482,0 0.76639,-0.108215 0.11105,-0.01804 0.45858,-0.108215 0.11139,-0.03607 0.53558,-0.108215 0.11122,-0.04509 0.4552,-0.108215 0.11129,-0.04509 0.32501,-0.108215 0.11118,-0.02705 0.51089,-0.108215 0.1111,-0.009 0.51368,-0.108215 0.11127,-0.03607 0.43682,-0.108215 0.009,-0.02705 0.10171,0 0.37824,-0.108215 0.11143,-0.04509 0.62862,-0.108215 0.11112,-0.02705 0.54151,-0.108215 0.11115,-0.01803 0.37116,-0.108215 0.11113,-0.01804 0.33688,-0.108215 0.10513,-0.08116 0.006,0 0.44876,-0.108215 0.0915,-0.05411 0.0195,0 0.69913,-0.108215 0.11115,-0.01804 0.75575,-0.108215 0.0761,-0.03607 0.035,0 0.26131,-0.108215 0.11167,-0.04509 0.51768,-0.108215 0.0485,-0.01804 0.0626,0 0.83464,-0.108215 0.11119,-0.04509 0.56203,-0.108215 0.11107,-0.009 0.50321,-0.108215 0.11129,-0.03607 0.5276,-0.108215 0.10743,-0.02705 0.004,0 0.26161,-0.108215 0.11112,-0.01804 0.40552,-0.108215 0.10399,-0.03607 0.007,0 0.49137,-0.108215 0.0807,-0.02705 0.0303,0 0.56623,-0.108215 0.11119,-0.01804 0.34504,-0.108215 0.11117,-0.02705 0.82129,-0.108215 0.11117,-0.02705 0.88518,-0.108215 0.11119,-0.01804 0.65553,-0.108215 0.1112,-0.03607 0.66567,-0.108215 0.0871,-0.03607 0.024,0 0.77043,-0.108215 0.11124,-0.01804 0.63006,-0.108215 0.11119,-0.03607 0.4439,-0.108215 0.0761,-0.04509 0.0348,0 0.65614,-0.108215 0.1115,-0.05411 0.56973,-0.108215 0.11111,-0.009 0.62666,-0.108215 0.10857,-0.04509 0.003,0 0.39495,-0.108215 0.11126,-0.02705 0.81163,-0.108215 0.11157,-0.03607 0.67501,-0.108215 0.0881,-0.07214 0.023,0 0.64006,-0.108215 0,-0.009 0.11111,0 0.60159,-0.108215 0.0399,-0.01804 0.0711,0 0.53315,-0.108215 0.11119,-0.03607 0.60343,-0.108215 0.11129,-0.03607 0.87503,-0.108215 0.11131,-0.02705 0.88227,-0.108215 0.11136,-0.02705 0.46194,-0.108215 0.11117,-0.009 0.58677,-0.108215 0.11108,-0.01804 0.75018,-0.108215 0.11105,-0.01803 0.57596,-0.108215 0.11087,-0.01804 2.3e-4,0 0.8309,-0.108215 0.11136,-0.03607 0.79353,-0.108215 0.11113,-0.03607 0.63675,-0.108215 0.11112,-0.01803 0.89169,-0.108215 0.11115,-0.01804 0.54934,-0.108215 0.11117,-0.02705 0.99276,-0.108215 0.11131,-0.03607 0.52172,-0.108215 0.0964,-0.01804 0.0146,0 0.68135,-0.108215 0.0921,-0.02705 0.019,0 0.79101,-0.108215 0.11108,-0.009 0.82686,-0.108215 0.11112,-0.02705 1.22014,-0.108215 0.11115,-0.009 0.86821,-0.108215 0.10032,-0.03607 0.0108,0 0.82784,-0.108215 0.11134,-0.05411 0.92329,-0.108215 0.11134,-0.04509 0.61487,-0.108215 0.11113,-0.01804 0.72755,-0.108215 0.11112,-0.009 0.63976,-0.108215 0.11115,-0.009 0.54052,-0.108215 0.11115,-0.01804 0.69552,-0.108215 0.0406,-0.02705 0.0705,0 0.94755,-0.108215 0.11117,-0.02705 1.40535,-0.108215 0.11132,-0.03607 1.11046,-0.108215 0.11115,-0.009 1.05247,-0.108215 0,-0.009 0.1111,0 0.86955,-0.108215 0.1111,-0.01804 0.71373,-0.108215 0.11118,-0.02705 1.3708,-0.108215 0.11115,-0.009 0.8442,-0.108215 0.1111,-0.009 1.14292,-0.108215 0.11119,-0.03607 1.05499,-0.108215 0.11117,-0.009 1.27223,-0.108215 0.0937,-0.04509 0.0174,0 1.15297,-0.108215 0.11132,-0.02705 1.2847,-0.108215 0.11108,-0.009 1.16656,-0.108215 0.1111,-0.009 0.50967,-0.108215 0.0246,-0.02705 0.0865,0 1.18112,-0.108215 0.11113,-0.03607 1.23977,-0.108215 0,-0.009 0.11111,0 1.26764,-0.108215 0.0658,-0.01804 0.0453,0 0.87159,-0.108215 0.11111,-0.01804 2.27596,-0.108215 0.11119,-0.01804 0.84709,-0.108215 0.10332,-0.02705 0.008,0 1.69746,-0.108215 0.11113,-0.009 1.75114,-0.108215 0.11107,-0.009 1.51364,-0.108215 0.11089,-0.009 1.49295,-0.108215 0.11113,-0.009 1.32397,-0.108215 0.091,-0.01804 0.0201,0 1.4782,-0.108215 0.11115,-0.01804 2.16739,-0.108215 0.11113,-0.01804 1.61855,-0.108215 0.11111,-0.009 1.32865,-0.108215 0,-0.009 0.11105,0 1.17163,-0.108215 0.11108,-0.009 1.52985,-0.108215 0.0198,-0.02705 0.0912,0 1.70148,-0.108215 0.11129,-0.03607 1.976,-0.108215 0.11115,-0.009 1.43893,-0.108215 0.11108,-0.01804 2.34432,-0.108215 0.11105,-0.009 3.00393,-0.108215 0.11108,-0.009 1.46478,-0.108215 0,-0.009 0.11098,0 3.19023,-0.108215 0.11115,-0.01804 2.17168,-0.108215 0.11112,-0.009 2.19374,-0.108215 0.1112,-0.01804 2.92391,-0.108215 0.11108,-0.009 1.89058,-0.108215 0.006,-0.01804 0.10506,0 3.38986,-0.108215 0,-0.009 0.1111,0 2.90079,-0.108215 0.11113,-0.009 1.48858,-0.108215 0.11115,-0.01804 3.42419,-0.108215 0,-0.009 0.1111,0 3.34356,-0.108215 0.0322,-0.01804 0.0789,0 2.27532,-0.108215 0,-0.009 0.11104,0 3.22754,-0.108215 0,-0.009 0.11106,0 3.01916,-0.108215 0.10212,-0.02705 0.009,0 3.88373,-0.108215 0,-0.009 0.1111,0 3.29071,-0.108215 0,-0.009 0.11099,0 2.99944,-0.108215 0.11111,-0.009 5.11575,-0.108215 0.1111,-0.01804 2.6796,-0.108215 0.1111,-0.02705 6.74124,-0.108215 0.11096,-0.009 3.42334,-0.108215 0,-0.009 0.11108,0 10.38171,-0.108215 0.11112,-0.01804 7.61136,-0.108215 0,-0.009 0.1111,0 19.50881,-0.0992 0,0"
           style="fill:none;stroke:#ffffff;stroke-width:1.5;stroke-linecap:square;stroke-linejoin:round"
           id="path4244" />
      </g>
      <g
         id="patch_3"
         style="stroke-linecap:butt;stroke-linejoin:round">
        <path
           d="M 54,252 54,34.56"
           style="fill:none;stroke:#ffffff;stroke-width:0.80000001;stroke-linecap:square;stroke-linejoin:miter"
           id="path4247" />
      </g>
      <g
         id="patch_4"
         style="stroke-linecap:butt;stroke-linejoin:round">
        <path
           d="m 388.8,252 0,-217.44"
           style="fill:none;stroke-linecap:butt;stroke-linejoin:round"
           id="path4250" />
      </g>
      <g
         id="patch_5"
         style="stroke-linecap:butt;stroke-linejoin:round">
        <path
           d="m 54,252 334.8,0"
           style="fill:none;stroke:#ffffff;stroke-width:0.80000001;stroke-linecap:square;stroke-linejoin:miter"
           id="path4253" />
      </g>
      <g
         id="patch_6"
         style="stroke-linecap:butt;stroke-linejoin:round">
        <path
           d="m 54,34.56 334.8,0"
           style="fill:none;stroke-linecap:butt;stroke-linejoin:round"
           id="path4256" />
      </g>
      <g
         id="text_15"
         style="stroke-linecap:butt;stroke-linejoin:round">
        <!-- ROC Curve -->
        <defs
           id="defs4259">
          <path
             d="m 39.40625,66.21875 q -10.75,0 -17.078125,-8.015625 -6.3125,-8 -6.3125,-21.828125 0,-13.765625 6.3125,-21.78125 6.328125,-8 17.078125,-8 10.734375,0 17.015625,8 6.28125,8.015625 6.28125,21.78125 0,13.828125 -6.28125,21.828125 -6.28125,8.015625 -17.015625,8.015625 z m 0,8 q 15.328125,0 24.5,-10.28125 9.1875,-10.28125 9.1875,-27.5625 0,-17.234375 -9.1875,-27.515625 -9.171875,-10.28125 -24.5,-10.28125 -15.375,0 -24.59375,10.25 Q 5.609375,19.09375 5.609375,36.375 q 0,17.28125 9.203125,27.5625 9.21875,10.28125 24.59375,10.28125 z"
             id="DejaVuSans-4f"
             style="stroke-linecap:butt;stroke-linejoin:round" />
          <path
             d="m 64.40625,67.28125 0,-10.390625 q -4.984375,4.640625 -10.625,6.921875 -5.640625,2.296875 -11.984375,2.296875 -12.5,0 -19.140625,-7.640625 -6.640625,-7.640625 -6.640625,-22.09375 0,-14.40625 6.640625,-22.046875 Q 29.296875,6.6875 41.796875,6.6875 q 6.34375,0 11.984375,2.296875 5.640625,2.296875 10.625,6.9375 l 0,-10.3125 Q 59.234375,2.09375 53.4375,0.328125 q -5.78125,-1.75 -12.21875,-1.75 -16.5625,0 -26.09375,10.125 Q 5.609375,18.84375 5.609375,36.375 q 0,17.578125 9.515625,27.703125 9.53125,10.140625 26.09375,10.140625 6.53125,0 12.3125,-1.734375 5.796875,-1.734375 10.875,-5.203125 z"
             id="DejaVuSans-43"
             style="stroke-linecap:butt;stroke-linejoin:round" />
        </defs>
        <g
           style="fill:#ffffff;stroke-linecap:butt;stroke-linejoin:round"
           transform="matrix(0.12,0,0,-0.12,188.70937,28.56)"
           id="g4263">
          <use
             xlink:href="#DejaVuSans-52"
             id="use4265"
             style="stroke-linecap:butt;stroke-linejoin:round"
             x="0"
             y="0"
             width="432"
             height="288" />
          <use
             x="69.482422"
             xlink:href="#DejaVuSans-4f"
             id="use4267"
             style="stroke-linecap:butt;stroke-linejoin:round"
             y="0"
             width="432"
             height="288" />
          <use
             x="148.19336"
             xlink:href="#DejaVuSans-43"
             id="use4269"
             style="stroke-linecap:butt;stroke-linejoin:round"
             y="0"
             width="432"
             height="288" />
          <use
             x="218.01758"
             xlink:href="#DejaVuSans-20"
             id="use4271"
             style="stroke-linecap:butt;stroke-linejoin:round"
             y="0"
             width="432"
             height="288" />
          <use
             x="249.80469"
             xlink:href="#DejaVuSans-43"
             id="use4273"
             style="stroke-linecap:butt;stroke-linejoin:round"
             y="0"
             width="432"
             height="288" />
          <use
             x="319.62891"
             xlink:href="#DejaVuSans-75"
             id="use4275"
             style="stroke-linecap:butt;stroke-linejoin:round"
             y="0"
             width="432"
             height="288" />
          <use
             x="383.00781"
             xlink:href="#DejaVuSans-72"
             id="use4277"
             style="stroke-linecap:butt;stroke-linejoin:round"
             y="0"
             width="432"
             height="288" />
          <use
             x="424.12109"
             xlink:href="#DejaVuSans-76"
             id="use4279"
             style="stroke-linecap:butt;stroke-linejoin:round"
             y="0"
             width="432"
             height="288" />
          <use
             x="483.30078"
             xlink:href="#DejaVuSans-65"
             id="use4281"
             style="stroke-linecap:butt;stroke-linejoin:round"
             y="0"
             width="432"
             height="288" />
        </g>
      </g>
    </g>
  </g>
  <defs
     id="defs4283">
    <clipPath
       id="p71cb6b0a6a">
      <rect
         height="217.44"
         width="334.79999"
         x="54"
         y="34.560001"
         id="rect4286"
         style="stroke-linecap:butt;stroke-linejoin:round" />
    </clipPath>
  </defs>
</svg>
