<?xml version="1.0" encoding="utf-8" standalone="no"?>
<!DOCTYPE svg PUBLIC "-//W3C//DTD SVG 1.1//EN"
  "http://www.w3.org/Graphics/SVG/1.1/DTD/svg11.dtd">
<!-- Created with matplotlib (http://matplotlib.org/) -->
<svg height="288pt" version="1.1" viewBox="0 0 432 288" width="432pt" xmlns="http://www.w3.org/2000/svg" xmlns:xlink="http://www.w3.org/1999/xlink">
 <defs>
  <style type="text/css">
*{stroke-linecap:butt;stroke-linejoin:round;}
  </style>
 </defs>
 <g id="figure_1">
  <g id="patch_1">
   <path d="M 0 288 
L 432 288 
L 432 0 
L 0 0 
z
" style="fill:none;"/>
  </g>
  <g id="axes_1">
   <g id="patch_2">
    <path d="M 54 252 
L 388.8 252 
L 388.8 34.56 
L 54 34.56 
z
" style="fill:none;"/>
   </g>
   <g id="matplotlib.axis_1">
    <g id="xtick_1">
     <g id="line2d_1">
      <defs>
       <path d="M 0 0 
L 0 3.5 
" id="m9723b6f11f" style="stroke:#ffffff;stroke-width:0.8;"/>
      </defs>
      <g>
       <use style="fill:#ffffff;stroke:#ffffff;stroke-width:0.8;" x="69.218182" xlink:href="#m9723b6f11f" y="252"/>
      </g>
     </g>
     <g id="text_1">
      <!-- 0.0 -->
      <defs>
       <path d="M 31.78125 66.40625 
Q 24.171875 66.40625 20.328125 58.90625 
Q 16.5 51.421875 16.5 36.375 
Q 16.5 21.390625 20.328125 13.890625 
Q 24.171875 6.390625 31.78125 6.390625 
Q 39.453125 6.390625 43.28125 13.890625 
Q 47.125 21.390625 47.125 36.375 
Q 47.125 51.421875 43.28125 58.90625 
Q 39.453125 66.40625 31.78125 66.40625 
z
M 31.78125 74.21875 
Q 44.046875 74.21875 50.515625 64.515625 
Q 56.984375 54.828125 56.984375 36.375 
Q 56.984375 17.96875 50.515625 8.265625 
Q 44.046875 -1.421875 31.78125 -1.421875 
Q 19.53125 -1.421875 13.0625 8.265625 
Q 6.59375 17.96875 6.59375 36.375 
Q 6.59375 54.828125 13.0625 64.515625 
Q 19.53125 74.21875 31.78125 74.21875 
z
" id="DejaVuSans-30"/>
       <path d="M 10.6875 12.40625 
L 21 12.40625 
L 21 0 
L 10.6875 0 
z
" id="DejaVuSans-2e"/>
      </defs>
      <g style="fill:#ffffff;" transform="translate(61.266619 266.598437)scale(0.1 -0.1)">
       <use xlink:href="#DejaVuSans-30"/>
       <use x="63.623047" xlink:href="#DejaVuSans-2e"/>
       <use x="95.410156" xlink:href="#DejaVuSans-30"/>
      </g>
     </g>
    </g>
    <g id="xtick_2">
     <g id="line2d_2">
      <g>
       <use style="fill:#ffffff;stroke:#ffffff;stroke-width:0.8;" x="130.090909" xlink:href="#m9723b6f11f" y="252"/>
      </g>
     </g>
     <g id="text_2">
      <!-- 0.2 -->
      <defs>
       <path d="M 19.1875 8.296875 
L 53.609375 8.296875 
L 53.609375 0 
L 7.328125 0 
L 7.328125 8.296875 
Q 12.9375 14.109375 22.625 23.890625 
Q 32.328125 33.6875 34.8125 36.53125 
Q 39.546875 41.84375 41.421875 45.53125 
Q 43.3125 49.21875 43.3125 52.78125 
Q 43.3125 58.59375 39.234375 62.25 
Q 35.15625 65.921875 28.609375 65.921875 
Q 23.96875 65.921875 18.8125 64.3125 
Q 13.671875 62.703125 7.8125 59.421875 
L 7.8125 69.390625 
Q 13.765625 71.78125 18.9375 73 
Q 24.125 74.21875 28.421875 74.21875 
Q 39.75 74.21875 46.484375 68.546875 
Q 53.21875 62.890625 53.21875 53.421875 
Q 53.21875 48.921875 51.53125 44.890625 
Q 49.859375 40.875 45.40625 35.40625 
Q 44.1875 33.984375 37.640625 27.21875 
Q 31.109375 20.453125 19.1875 8.296875 
z
" id="DejaVuSans-32"/>
      </defs>
      <g style="fill:#ffffff;" transform="translate(122.139347 266.598437)scale(0.1 -0.1)">
       <use xlink:href="#DejaVuSans-30"/>
       <use x="63.623047" xlink:href="#DejaVuSans-2e"/>
       <use x="95.410156" xlink:href="#DejaVuSans-32"/>
      </g>
     </g>
    </g>
    <g id="xtick_3">
     <g id="line2d_3">
      <g>
       <use style="fill:#ffffff;stroke:#ffffff;stroke-width:0.8;" x="190.963636" xlink:href="#m9723b6f11f" y="252"/>
      </g>
     </g>
     <g id="text_3">
      <!-- 0.4 -->
      <defs>
       <path d="M 37.796875 64.3125 
L 12.890625 25.390625 
L 37.796875 25.390625 
z
M 35.203125 72.90625 
L 47.609375 72.90625 
L 47.609375 25.390625 
L 58.015625 25.390625 
L 58.015625 17.1875 
L 47.609375 17.1875 
L 47.609375 0 
L 37.796875 0 
L 37.796875 17.1875 
L 4.890625 17.1875 
L 4.890625 26.703125 
z
" id="DejaVuSans-34"/>
      </defs>
      <g style="fill:#ffffff;" transform="translate(183.012074 266.598437)scale(0.1 -0.1)">
       <use xlink:href="#DejaVuSans-30"/>
       <use x="63.623047" xlink:href="#DejaVuSans-2e"/>
       <use x="95.410156" xlink:href="#DejaVuSans-34"/>
      </g>
     </g>
    </g>
    <g id="xtick_4">
     <g id="line2d_4">
      <g>
       <use style="fill:#ffffff;stroke:#ffffff;stroke-width:0.8;" x="251.836364" xlink:href="#m9723b6f11f" y="252"/>
      </g>
     </g>
     <g id="text_4">
      <!-- 0.6 -->
      <defs>
       <path d="M 33.015625 40.375 
Q 26.375 40.375 22.484375 35.828125 
Q 18.609375 31.296875 18.609375 23.390625 
Q 18.609375 15.53125 22.484375 10.953125 
Q 26.375 6.390625 33.015625 6.390625 
Q 39.65625 6.390625 43.53125 10.953125 
Q 47.40625 15.53125 47.40625 23.390625 
Q 47.40625 31.296875 43.53125 35.828125 
Q 39.65625 40.375 33.015625 40.375 
z
M 52.59375 71.296875 
L 52.59375 62.3125 
Q 48.875 64.0625 45.09375 64.984375 
Q 41.3125 65.921875 37.59375 65.921875 
Q 27.828125 65.921875 22.671875 59.328125 
Q 17.53125 52.734375 16.796875 39.40625 
Q 19.671875 43.65625 24.015625 45.921875 
Q 28.375 48.1875 33.59375 48.1875 
Q 44.578125 48.1875 50.953125 41.515625 
Q 57.328125 34.859375 57.328125 23.390625 
Q 57.328125 12.15625 50.6875 5.359375 
Q 44.046875 -1.421875 33.015625 -1.421875 
Q 20.359375 -1.421875 13.671875 8.265625 
Q 6.984375 17.96875 6.984375 36.375 
Q 6.984375 53.65625 15.1875 63.9375 
Q 23.390625 74.21875 37.203125 74.21875 
Q 40.921875 74.21875 44.703125 73.484375 
Q 48.484375 72.75 52.59375 71.296875 
z
" id="DejaVuSans-36"/>
      </defs>
      <g style="fill:#ffffff;" transform="translate(243.884801 266.598437)scale(0.1 -0.1)">
       <use xlink:href="#DejaVuSans-30"/>
       <use x="63.623047" xlink:href="#DejaVuSans-2e"/>
       <use x="95.410156" xlink:href="#DejaVuSans-36"/>
      </g>
     </g>
    </g>
    <g id="xtick_5">
     <g id="line2d_5">
      <g>
       <use style="fill:#ffffff;stroke:#ffffff;stroke-width:0.8;" x="312.709091" xlink:href="#m9723b6f11f" y="252"/>
      </g>
     </g>
     <g id="text_5">
      <!-- 0.8 -->
      <defs>
       <path d="M 31.78125 34.625 
Q 24.75 34.625 20.71875 30.859375 
Q 16.703125 27.09375 16.703125 20.515625 
Q 16.703125 13.921875 20.71875 10.15625 
Q 24.75 6.390625 31.78125 6.390625 
Q 38.8125 6.390625 42.859375 10.171875 
Q 46.921875 13.96875 46.921875 20.515625 
Q 46.921875 27.09375 42.890625 30.859375 
Q 38.875 34.625 31.78125 34.625 
z
M 21.921875 38.8125 
Q 15.578125 40.375 12.03125 44.71875 
Q 8.5 49.078125 8.5 55.328125 
Q 8.5 64.0625 14.71875 69.140625 
Q 20.953125 74.21875 31.78125 74.21875 
Q 42.671875 74.21875 48.875 69.140625 
Q 55.078125 64.0625 55.078125 55.328125 
Q 55.078125 49.078125 51.53125 44.71875 
Q 48 40.375 41.703125 38.8125 
Q 48.828125 37.15625 52.796875 32.3125 
Q 56.78125 27.484375 56.78125 20.515625 
Q 56.78125 9.90625 50.3125 4.234375 
Q 43.84375 -1.421875 31.78125 -1.421875 
Q 19.734375 -1.421875 13.25 4.234375 
Q 6.78125 9.90625 6.78125 20.515625 
Q 6.78125 27.484375 10.78125 32.3125 
Q 14.796875 37.15625 21.921875 38.8125 
z
M 18.3125 54.390625 
Q 18.3125 48.734375 21.84375 45.5625 
Q 25.390625 42.390625 31.78125 42.390625 
Q 38.140625 42.390625 41.71875 45.5625 
Q 45.3125 48.734375 45.3125 54.390625 
Q 45.3125 60.0625 41.71875 63.234375 
Q 38.140625 66.40625 31.78125 66.40625 
Q 25.390625 66.40625 21.84375 63.234375 
Q 18.3125 60.0625 18.3125 54.390625 
z
" id="DejaVuSans-38"/>
      </defs>
      <g style="fill:#ffffff;" transform="translate(304.757528 266.598437)scale(0.1 -0.1)">
       <use xlink:href="#DejaVuSans-30"/>
       <use x="63.623047" xlink:href="#DejaVuSans-2e"/>
       <use x="95.410156" xlink:href="#DejaVuSans-38"/>
      </g>
     </g>
    </g>
    <g id="xtick_6">
     <g id="line2d_6">
      <g>
       <use style="fill:#ffffff;stroke:#ffffff;stroke-width:0.8;" x="373.581818" xlink:href="#m9723b6f11f" y="252"/>
      </g>
     </g>
     <g id="text_6">
      <!-- 1.0 -->
      <defs>
       <path d="M 12.40625 8.296875 
L 28.515625 8.296875 
L 28.515625 63.921875 
L 10.984375 60.40625 
L 10.984375 69.390625 
L 28.421875 72.90625 
L 38.28125 72.90625 
L 38.28125 8.296875 
L 54.390625 8.296875 
L 54.390625 0 
L 12.40625 0 
z
" id="DejaVuSans-31"/>
      </defs>
      <g style="fill:#ffffff;" transform="translate(365.630256 266.598437)scale(0.1 -0.1)">
       <use xlink:href="#DejaVuSans-31"/>
       <use x="63.623047" xlink:href="#DejaVuSans-2e"/>
       <use x="95.410156" xlink:href="#DejaVuSans-30"/>
      </g>
     </g>
    </g>
    <g id="text_7">
     <!-- False Positive Rate -->
     <defs>
      <path d="M 9.8125 72.90625 
L 51.703125 72.90625 
L 51.703125 64.59375 
L 19.671875 64.59375 
L 19.671875 43.109375 
L 48.578125 43.109375 
L 48.578125 34.8125 
L 19.671875 34.8125 
L 19.671875 0 
L 9.8125 0 
z
" id="DejaVuSans-46"/>
      <path d="M 34.28125 27.484375 
Q 23.390625 27.484375 19.1875 25 
Q 14.984375 22.515625 14.984375 16.5 
Q 14.984375 11.71875 18.140625 8.90625 
Q 21.296875 6.109375 26.703125 6.109375 
Q 34.1875 6.109375 38.703125 11.40625 
Q 43.21875 16.703125 43.21875 25.484375 
L 43.21875 27.484375 
z
M 52.203125 31.203125 
L 52.203125 0 
L 43.21875 0 
L 43.21875 8.296875 
Q 40.140625 3.328125 35.546875 0.953125 
Q 30.953125 -1.421875 24.3125 -1.421875 
Q 15.921875 -1.421875 10.953125 3.296875 
Q 6 8.015625 6 15.921875 
Q 6 25.140625 12.171875 29.828125 
Q 18.359375 34.515625 30.609375 34.515625 
L 43.21875 34.515625 
L 43.21875 35.40625 
Q 43.21875 41.609375 39.140625 45 
Q 35.0625 48.390625 27.6875 48.390625 
Q 23 48.390625 18.546875 47.265625 
Q 14.109375 46.140625 10.015625 43.890625 
L 10.015625 52.203125 
Q 14.9375 54.109375 19.578125 55.046875 
Q 24.21875 56 28.609375 56 
Q 40.484375 56 46.34375 49.84375 
Q 52.203125 43.703125 52.203125 31.203125 
z
" id="DejaVuSans-61"/>
      <path d="M 9.421875 75.984375 
L 18.40625 75.984375 
L 18.40625 0 
L 9.421875 0 
z
" id="DejaVuSans-6c"/>
      <path d="M 44.28125 53.078125 
L 44.28125 44.578125 
Q 40.484375 46.53125 36.375 47.5 
Q 32.28125 48.484375 27.875 48.484375 
Q 21.1875 48.484375 17.84375 46.4375 
Q 14.5 44.390625 14.5 40.28125 
Q 14.5 37.15625 16.890625 35.375 
Q 19.28125 33.59375 26.515625 31.984375 
L 29.59375 31.296875 
Q 39.15625 29.25 43.1875 25.515625 
Q 47.21875 21.78125 47.21875 15.09375 
Q 47.21875 7.46875 41.1875 3.015625 
Q 35.15625 -1.421875 24.609375 -1.421875 
Q 20.21875 -1.421875 15.453125 -0.5625 
Q 10.6875 0.296875 5.421875 2 
L 5.421875 11.28125 
Q 10.40625 8.6875 15.234375 7.390625 
Q 20.0625 6.109375 24.8125 6.109375 
Q 31.15625 6.109375 34.5625 8.28125 
Q 37.984375 10.453125 37.984375 14.40625 
Q 37.984375 18.0625 35.515625 20.015625 
Q 33.0625 21.96875 24.703125 23.78125 
L 21.578125 24.515625 
Q 13.234375 26.265625 9.515625 29.90625 
Q 5.8125 33.546875 5.8125 39.890625 
Q 5.8125 47.609375 11.28125 51.796875 
Q 16.75 56 26.8125 56 
Q 31.78125 56 36.171875 55.265625 
Q 40.578125 54.546875 44.28125 53.078125 
z
" id="DejaVuSans-73"/>
      <path d="M 56.203125 29.59375 
L 56.203125 25.203125 
L 14.890625 25.203125 
Q 15.484375 15.921875 20.484375 11.0625 
Q 25.484375 6.203125 34.421875 6.203125 
Q 39.59375 6.203125 44.453125 7.46875 
Q 49.3125 8.734375 54.109375 11.28125 
L 54.109375 2.78125 
Q 49.265625 0.734375 44.1875 -0.34375 
Q 39.109375 -1.421875 33.890625 -1.421875 
Q 20.796875 -1.421875 13.15625 6.1875 
Q 5.515625 13.8125 5.515625 26.8125 
Q 5.515625 40.234375 12.765625 48.109375 
Q 20.015625 56 32.328125 56 
Q 43.359375 56 49.78125 48.890625 
Q 56.203125 41.796875 56.203125 29.59375 
z
M 47.21875 32.234375 
Q 47.125 39.59375 43.09375 43.984375 
Q 39.0625 48.390625 32.421875 48.390625 
Q 24.90625 48.390625 20.390625 44.140625 
Q 15.875 39.890625 15.1875 32.171875 
z
" id="DejaVuSans-65"/>
      <path id="DejaVuSans-20"/>
      <path d="M 19.671875 64.796875 
L 19.671875 37.40625 
L 32.078125 37.40625 
Q 38.96875 37.40625 42.71875 40.96875 
Q 46.484375 44.53125 46.484375 51.125 
Q 46.484375 57.671875 42.71875 61.234375 
Q 38.96875 64.796875 32.078125 64.796875 
z
M 9.8125 72.90625 
L 32.078125 72.90625 
Q 44.34375 72.90625 50.609375 67.359375 
Q 56.890625 61.8125 56.890625 51.125 
Q 56.890625 40.328125 50.609375 34.8125 
Q 44.34375 29.296875 32.078125 29.296875 
L 19.671875 29.296875 
L 19.671875 0 
L 9.8125 0 
z
" id="DejaVuSans-50"/>
      <path d="M 30.609375 48.390625 
Q 23.390625 48.390625 19.1875 42.75 
Q 14.984375 37.109375 14.984375 27.296875 
Q 14.984375 17.484375 19.15625 11.84375 
Q 23.34375 6.203125 30.609375 6.203125 
Q 37.796875 6.203125 41.984375 11.859375 
Q 46.1875 17.53125 46.1875 27.296875 
Q 46.1875 37.015625 41.984375 42.703125 
Q 37.796875 48.390625 30.609375 48.390625 
z
M 30.609375 56 
Q 42.328125 56 49.015625 48.375 
Q 55.71875 40.765625 55.71875 27.296875 
Q 55.71875 13.875 49.015625 6.21875 
Q 42.328125 -1.421875 30.609375 -1.421875 
Q 18.84375 -1.421875 12.171875 6.21875 
Q 5.515625 13.875 5.515625 27.296875 
Q 5.515625 40.765625 12.171875 48.375 
Q 18.84375 56 30.609375 56 
z
" id="DejaVuSans-6f"/>
      <path d="M 9.421875 54.6875 
L 18.40625 54.6875 
L 18.40625 0 
L 9.421875 0 
z
M 9.421875 75.984375 
L 18.40625 75.984375 
L 18.40625 64.59375 
L 9.421875 64.59375 
z
" id="DejaVuSans-69"/>
      <path d="M 18.3125 70.21875 
L 18.3125 54.6875 
L 36.8125 54.6875 
L 36.8125 47.703125 
L 18.3125 47.703125 
L 18.3125 18.015625 
Q 18.3125 11.328125 20.140625 9.421875 
Q 21.96875 7.515625 27.59375 7.515625 
L 36.8125 7.515625 
L 36.8125 0 
L 27.59375 0 
Q 17.1875 0 13.234375 3.875 
Q 9.28125 7.765625 9.28125 18.015625 
L 9.28125 47.703125 
L 2.6875 47.703125 
L 2.6875 54.6875 
L 9.28125 54.6875 
L 9.28125 70.21875 
z
" id="DejaVuSans-74"/>
      <path d="M 2.984375 54.6875 
L 12.5 54.6875 
L 29.59375 8.796875 
L 46.6875 54.6875 
L 56.203125 54.6875 
L 35.6875 0 
L 23.484375 0 
z
" id="DejaVuSans-76"/>
      <path d="M 44.390625 34.1875 
Q 47.5625 33.109375 50.5625 29.59375 
Q 53.5625 26.078125 56.59375 19.921875 
L 66.609375 0 
L 56 0 
L 46.6875 18.703125 
Q 43.0625 26.03125 39.671875 28.421875 
Q 36.28125 30.8125 30.421875 30.8125 
L 19.671875 30.8125 
L 19.671875 0 
L 9.8125 0 
L 9.8125 72.90625 
L 32.078125 72.90625 
Q 44.578125 72.90625 50.734375 67.671875 
Q 56.890625 62.453125 56.890625 51.90625 
Q 56.890625 45.015625 53.6875 40.46875 
Q 50.484375 35.9375 44.390625 34.1875 
z
M 19.671875 64.796875 
L 19.671875 38.921875 
L 32.078125 38.921875 
Q 39.203125 38.921875 42.84375 42.21875 
Q 46.484375 45.515625 46.484375 51.90625 
Q 46.484375 58.296875 42.84375 61.546875 
Q 39.203125 64.796875 32.078125 64.796875 
z
" id="DejaVuSans-52"/>
     </defs>
     <g style="fill:#ffffff;" transform="translate(174.194531 280.276563)scale(0.1 -0.1)">
      <use xlink:href="#DejaVuSans-46"/>
      <use x="57.378906" xlink:href="#DejaVuSans-61"/>
      <use x="118.658203" xlink:href="#DejaVuSans-6c"/>
      <use x="146.441406" xlink:href="#DejaVuSans-73"/>
      <use x="198.541016" xlink:href="#DejaVuSans-65"/>
      <use x="260.064453" xlink:href="#DejaVuSans-20"/>
      <use x="291.851562" xlink:href="#DejaVuSans-50"/>
      <use x="352.107422" xlink:href="#DejaVuSans-6f"/>
      <use x="413.289062" xlink:href="#DejaVuSans-73"/>
      <use x="465.388672" xlink:href="#DejaVuSans-69"/>
      <use x="493.171875" xlink:href="#DejaVuSans-74"/>
      <use x="532.380859" xlink:href="#DejaVuSans-69"/>
      <use x="560.164062" xlink:href="#DejaVuSans-76"/>
      <use x="619.34375" xlink:href="#DejaVuSans-65"/>
      <use x="680.867188" xlink:href="#DejaVuSans-20"/>
      <use x="712.654297" xlink:href="#DejaVuSans-52"/>
      <use x="782.105469" xlink:href="#DejaVuSans-61"/>
      <use x="843.384766" xlink:href="#DejaVuSans-74"/>
      <use x="882.59375" xlink:href="#DejaVuSans-65"/>
     </g>
    </g>
   </g>
   <g id="matplotlib.axis_2">
    <g id="ytick_1">
     <g id="line2d_7">
      <defs>
       <path d="M 0 0 
L -3.5 0 
" id="ma1d833abde" style="stroke:#ffffff;stroke-width:0.8;"/>
      </defs>
      <g>
       <use style="fill:#ffffff;stroke:#ffffff;stroke-width:0.8;" x="54" xlink:href="#ma1d833abde" y="242.125382"/>
      </g>
     </g>
     <g id="text_8">
      <!-- 0.0 -->
      <g style="fill:#ffffff;" transform="translate(31.096875 245.9246)scale(0.1 -0.1)">
       <use xlink:href="#DejaVuSans-30"/>
       <use x="63.623047" xlink:href="#DejaVuSans-2e"/>
       <use x="95.410156" xlink:href="#DejaVuSans-30"/>
      </g>
     </g>
    </g>
    <g id="ytick_2">
     <g id="line2d_8">
      <g>
       <use style="fill:#ffffff;stroke:#ffffff;stroke-width:0.8;" x="54" xlink:href="#ma1d833abde" y="202.589033"/>
      </g>
     </g>
     <g id="text_9">
      <!-- 0.2 -->
      <g style="fill:#ffffff;" transform="translate(31.096875 206.388251)scale(0.1 -0.1)">
       <use xlink:href="#DejaVuSans-30"/>
       <use x="63.623047" xlink:href="#DejaVuSans-2e"/>
       <use x="95.410156" xlink:href="#DejaVuSans-32"/>
      </g>
     </g>
    </g>
    <g id="ytick_3">
     <g id="line2d_9">
      <g>
       <use style="fill:#ffffff;stroke:#ffffff;stroke-width:0.8;" x="54" xlink:href="#ma1d833abde" y="163.052683"/>
      </g>
     </g>
     <g id="text_10">
      <!-- 0.4 -->
      <g style="fill:#ffffff;" transform="translate(31.096875 166.851902)scale(0.1 -0.1)">
       <use xlink:href="#DejaVuSans-30"/>
       <use x="63.623047" xlink:href="#DejaVuSans-2e"/>
       <use x="95.410156" xlink:href="#DejaVuSans-34"/>
      </g>
     </g>
    </g>
    <g id="ytick_4">
     <g id="line2d_10">
      <g>
       <use style="fill:#ffffff;stroke:#ffffff;stroke-width:0.8;" x="54" xlink:href="#ma1d833abde" y="123.516334"/>
      </g>
     </g>
     <g id="text_11">
      <!-- 0.6 -->
      <g style="fill:#ffffff;" transform="translate(31.096875 127.315553)scale(0.1 -0.1)">
       <use xlink:href="#DejaVuSans-30"/>
       <use x="63.623047" xlink:href="#DejaVuSans-2e"/>
       <use x="95.410156" xlink:href="#DejaVuSans-36"/>
      </g>
     </g>
    </g>
    <g id="ytick_5">
     <g id="line2d_11">
      <g>
       <use style="fill:#ffffff;stroke:#ffffff;stroke-width:0.8;" x="54" xlink:href="#ma1d833abde" y="83.979985"/>
      </g>
     </g>
     <g id="text_12">
      <!-- 0.8 -->
      <g style="fill:#ffffff;" transform="translate(31.096875 87.779204)scale(0.1 -0.1)">
       <use xlink:href="#DejaVuSans-30"/>
       <use x="63.623047" xlink:href="#DejaVuSans-2e"/>
       <use x="95.410156" xlink:href="#DejaVuSans-38"/>
      </g>
     </g>
    </g>
    <g id="ytick_6">
     <g id="line2d_12">
      <g>
       <use style="fill:#ffffff;stroke:#ffffff;stroke-width:0.8;" x="54" xlink:href="#ma1d833abde" y="44.443636"/>
      </g>
     </g>
     <g id="text_13">
      <!-- 1.0 -->
      <g style="fill:#ffffff;" transform="translate(31.096875 48.242855)scale(0.1 -0.1)">
       <use xlink:href="#DejaVuSans-31"/>
       <use x="63.623047" xlink:href="#DejaVuSans-2e"/>
       <use x="95.410156" xlink:href="#DejaVuSans-30"/>
      </g>
     </g>
    </g>
    <g id="text_14">
     <!-- True Positive Rate -->
     <defs>
      <path d="M -0.296875 72.90625 
L 61.375 72.90625 
L 61.375 64.59375 
L 35.5 64.59375 
L 35.5 0 
L 25.59375 0 
L 25.59375 64.59375 
L -0.296875 64.59375 
z
" id="DejaVuSans-54"/>
      <path d="M 41.109375 46.296875 
Q 39.59375 47.171875 37.8125 47.578125 
Q 36.03125 48 33.890625 48 
Q 26.265625 48 22.1875 43.046875 
Q 18.109375 38.09375 18.109375 28.8125 
L 18.109375 0 
L 9.078125 0 
L 9.078125 54.6875 
L 18.109375 54.6875 
L 18.109375 46.1875 
Q 20.953125 51.171875 25.484375 53.578125 
Q 30.03125 56 36.53125 56 
Q 37.453125 56 38.578125 55.875 
Q 39.703125 55.765625 41.0625 55.515625 
z
" id="DejaVuSans-72"/>
      <path d="M 8.5 21.578125 
L 8.5 54.6875 
L 17.484375 54.6875 
L 17.484375 21.921875 
Q 17.484375 14.15625 20.5 10.265625 
Q 23.53125 6.390625 29.59375 6.390625 
Q 36.859375 6.390625 41.078125 11.03125 
Q 45.3125 15.671875 45.3125 23.6875 
L 45.3125 54.6875 
L 54.296875 54.6875 
L 54.296875 0 
L 45.3125 0 
L 45.3125 8.40625 
Q 42.046875 3.421875 37.71875 1 
Q 33.40625 -1.421875 27.6875 -1.421875 
Q 18.265625 -1.421875 13.375 4.4375 
Q 8.5 10.296875 8.5 21.578125 
z
M 31.109375 56 
z
" id="DejaVuSans-75"/>
     </defs>
     <g style="fill:#ffffff;" transform="translate(25.017187 188.826094)rotate(-90)scale(0.1 -0.1)">
      <use xlink:href="#DejaVuSans-54"/>
      <use x="60.865234" xlink:href="#DejaVuSans-72"/>
      <use x="101.978516" xlink:href="#DejaVuSans-75"/>
      <use x="165.357422" xlink:href="#DejaVuSans-65"/>
      <use x="226.880859" xlink:href="#DejaVuSans-20"/>
      <use x="258.667969" xlink:href="#DejaVuSans-50"/>
      <use x="318.923828" xlink:href="#DejaVuSans-6f"/>
      <use x="380.105469" xlink:href="#DejaVuSans-73"/>
      <use x="432.205078" xlink:href="#DejaVuSans-69"/>
      <use x="459.988281" xlink:href="#DejaVuSans-74"/>
      <use x="499.197266" xlink:href="#DejaVuSans-69"/>
      <use x="526.980469" xlink:href="#DejaVuSans-76"/>
      <use x="586.160156" xlink:href="#DejaVuSans-65"/>
      <use x="647.683594" xlink:href="#DejaVuSans-20"/>
      <use x="679.470703" xlink:href="#DejaVuSans-52"/>
      <use x="748.921875" xlink:href="#DejaVuSans-61"/>
      <use x="810.201172" xlink:href="#DejaVuSans-74"/>
      <use x="849.410156" xlink:href="#DejaVuSans-65"/>
     </g>
    </g>
   </g>
   <g id="line2d_13">
    <path clip-path="url(#p11bbab4598)" d="M 69.218182 242.116364 
L 69.32912 219.382196 
L 69.330506 219.273981 
L 69.441351 211.789111 
L 69.442831 211.689914 
L 69.553464 206.549701 
L 69.555978 206.441486 
L 69.666658 201.950564 
L 69.6707 201.842349 
L 69.781661 198.11795 
L 69.784317 198.009735 
L 69.895419 194.781321 
L 69.898357 194.673106 
L 70.009224 191.976749 
L 70.013713 191.868534 
L 70.123687 189.072979 
L 70.131442 188.964764 
L 70.241229 186.565999 
L 70.241605 186.565999 
L 70.250981 186.457784 
L 70.361214 184.239376 
L 70.361449 184.239376 
L 70.368428 184.131161 
L 70.479343 182.075076 
L 70.484536 181.966861 
L 70.595263 180.325601 
L 70.601631 180.217386 
L 70.712052 178.449874 
L 70.727773 178.341659 
L 70.838311 176.772541 
L 70.847429 176.664326 
L 70.957592 175.428872 
L 70.967908 175.320657 
L 71.078258 173.931898 
L 71.090337 173.823683 
L 71.200123 172.543139 
L 71.200899 172.543139 
L 71.212836 172.434924 
L 71.323234 171.28063 
L 71.330636 171.172415 
L 71.439365 169.900889 
L 71.441034 169.900889 
L 71.458235 169.792674 
L 71.568797 168.46704 
L 71.577586 168.358825 
L 71.683401 167.150425 
L 71.68648 167.150425 
L 71.699169 167.04221 
L 71.808909 165.806755 
L 71.809778 165.806755 
L 71.820212 165.69854 
L 71.930844 164.66148 
L 71.942617 164.553265 
L 72.05325 163.552276 
L 72.064788 163.444061 
L 72.175491 162.379947 
L 72.193538 162.271732 
L 72.304547 161.297797 
L 72.304617 161.297797 
L 72.321983 161.189582 
L 72.432804 160.323862 
L 72.450052 160.215647 
L 72.559204 159.25073 
L 72.560544 159.25073 
L 72.581998 159.142515 
L 72.692936 158.457153 
L 72.697143 158.348938 
L 72.808128 157.465182 
L 72.828454 157.356967 
L 72.938781 156.545355 
L 72.939557 156.545355 
L 72.961669 156.43714 
L 73.071808 155.580438 
L 73.072584 155.580438 
L 73.083605 155.472223 
L 73.193251 154.624539 
L 73.19365 154.624539 
L 73.210546 154.516324 
L 73.321249 153.903106 
L 73.34456 153.794891 
L 73.453383 153.100511 
L 73.454065 153.100511 
L 73.476624 152.992296 
L 73.587068 152.406131 
L 73.606384 152.297916 
L 73.717252 151.666662 
L 73.738377 151.558447 
L 73.848094 150.85505 
L 73.849292 150.85505 
L 73.866658 150.746835 
L 73.976867 149.98933 
L 73.994116 149.881115 
L 74.098357 149.421201 
L 74.103244 149.421201 
L 74.117438 149.312986 
L 74.227788 148.717804 
L 74.228305 148.717804 
L 74.246165 148.609589 
L 74.356421 148.032442 
L 74.356586 148.032442 
L 74.385701 147.924227 
L 74.496404 147.274937 
L 74.510174 147.166722 
L 74.621183 146.616629 
L 74.637938 146.508414 
L 74.746784 146.039482 
L 74.748782 146.039482 
L 74.769931 145.931267 
L 74.880822 145.471354 
L 74.900044 145.363139 
L 75.010818 144.822064 
L 75.0111 144.822064 
L 75.027055 144.713849 
L 75.136654 144.136702 
L 75.177049 144.028487 
L 75.285919 143.568573 
L 75.287023 143.568573 
L 75.325162 143.460358 
L 75.436124 142.955355 
L 75.454053 142.84714 
L 75.564804 142.233922 
L 75.565156 142.233922 
L 75.592415 142.125707 
L 75.703494 141.476417 
L 75.726617 141.368202 
L 75.835628 140.836145 
L 75.836286 140.836145 
L 75.865636 140.72793 
L 75.975423 140.304088 
L 76.003692 140.195873 
L 76.10852 139.781048 
L 76.113761 139.781048 
L 76.155448 139.672833 
L 76.264999 139.258009 
L 76.266527 139.258009 
L 76.287088 139.149794 
L 76.39476 138.698898 
L 76.397886 138.698898 
L 76.423758 138.599701 
L 76.532981 138.193895 
L 76.534837 138.193895 
L 76.5675 138.08568 
L 76.676394 137.679874 
L 76.678462 137.679874 
L 76.699822 137.571659 
L 76.8074 137.04862 
L 76.810596 137.04862 
L 76.831863 136.940405 
L 76.942613 136.462455 
L 76.977509 136.35424 
L 77.078765 135.885309 
L 77.087319 135.885309 
L 77.119136 135.786111 
L 77.225375 135.389323 
L 77.229816 135.389323 
L 77.256934 135.281108 
L 77.366462 134.848248 
L 77.36766 134.848248 
L 77.404977 134.740033 
L 77.510886 134.216994 
L 77.515938 134.216994 
L 77.544254 134.108779 
L 77.654676 133.711991 
L 77.655122 133.711991 
L 77.695634 133.603776 
L 77.797502 133.125826 
L 77.806478 133.125826 
L 77.859562 133.017611 
L 77.970124 132.638859 
L 77.970477 132.638859 
L 78.006007 132.530644 
L 78.115794 132.133855 
L 78.117086 132.133855 
L 78.164601 132.02564 
L 78.273495 131.710013 
L 78.275704 131.710013 
L 78.314524 131.601798 
L 78.425368 131.358315 
L 78.447527 131.2501 
L 78.559359 130.835275 
L 78.588192 130.72706 
L 78.699247 130.321254 
L 78.744577 130.213039 
L 78.852648 129.942502 
L 78.855327 129.942502 
L 78.886369 129.834287 
L 78.995991 129.545713 
L 79.031192 129.437498 
L 79.140298 129.0858 
L 79.142154 129.0858 
L 79.178883 128.977585 
L 79.289022 128.643922 
L 79.289774 128.643922 
L 79.336184 128.535707 
L 79.445877 128.22008 
L 79.447287 128.22008 
L 79.496728 128.111865 
L 79.604001 127.769184 
L 79.606421 127.769184 
L 79.687351 127.660969 
L 79.797326 127.273198 
L 79.79843 127.273198 
L 79.826347 127.164983 
L 79.933196 126.840338 
L 79.937426 126.840338 
L 79.970301 126.732123 
L 80.074918 126.452568 
L 80.081098 126.452568 
L 80.112352 126.344353 
L 80.218426 125.992654 
L 80.223149 125.992654 
L 80.254638 125.884439 
L 80.36386 125.613902 
L 80.365693 125.613902 
L 80.383341 125.505687 
L 80.494279 125.226131 
L 80.548044 125.117916 
L 80.658113 124.730146 
L 80.658818 124.730146 
L 80.703419 124.621931 
L 80.813746 124.32434 
L 80.813911 124.32434 
L 80.855175 124.216125 
L 80.964797 123.945587 
L 80.966277 123.945587 
L 81.026622 123.837372 
L 81.134177 123.647996 
L 81.13742 123.647996 
L 81.172785 123.539781 
L 81.283536 123.179064 
L 81.283747 123.179064 
L 81.31446 123.070849 
L 81.424059 122.872455 
L 81.425563 122.872455 
L 81.471738 122.76424 
L 81.582089 122.385488 
L 81.582841 122.385488 
L 81.627747 122.277273 
L 81.738732 122.042807 
L 81.738779 122.042807 
L 81.781994 121.934592 
L 81.880383 121.646019 
L 81.892767 121.646019 
L 81.933256 121.537804 
L 82.043207 121.204141 
L 82.044194 121.204141 
L 82.085975 121.095926 
L 82.196772 120.807352 
L 82.196984 120.807352 
L 82.253827 120.699137 
L 82.358515 120.4286 
L 82.364883 120.4286 
L 82.410588 120.320385 
L 82.516122 120.022794 
L 82.520916 120.022794 
L 82.559689 119.914579 
L 82.667032 119.580916 
L 82.670768 119.580916 
L 82.716685 119.472701 
L 82.822547 119.229217 
L 82.827364 119.229217 
L 82.882234 119.121002 
L 82.986898 118.931626 
L 82.991809 118.931626 
L 83.056102 118.823411 
L 83.153811 118.634035 
L 83.167205 118.634035 
L 83.227691 118.52582 
L 83.335833 118.273318 
L 83.338676 118.273318 
L 83.37853 118.165103 
L 83.486249 117.966709 
L 83.489609 117.966709 
L 83.533764 117.858494 
L 83.642752 117.651082 
L 83.644866 117.651082 
L 83.693885 117.542867 
L 83.800734 117.362508 
L 83.804729 117.362508 
L 83.859623 117.254293 
L 83.967694 116.96572 
L 83.970608 116.96572 
L 84.014715 116.857505 
L 84.122505 116.605003 
L 84.125066 116.605003 
L 84.172839 116.496788 
L 84.276822 116.36152 
L 84.283871 116.36152 
L 84.341984 116.253305 
L 84.444956 116.045893 
L 84.452123 116.045893 
L 84.50657 115.937678 
L 84.616756 115.748301 
L 84.617626 115.748301 
L 84.651558 115.640086 
L 84.755329 115.459728 
L 84.762661 115.459728 
L 84.807755 115.351513 
L 84.914534 115.080975 
L 84.918858 115.080975 
L 84.995159 114.97276 
L 85.103982 114.738295 
L 85.106144 114.738295 
L 85.178356 114.63008 
L 85.289458 114.395614 
L 85.378801 114.287399 
L 85.489739 114.070969 
L 85.489833 114.070969 
L 85.559648 113.962754 
L 85.665793 113.710252 
L 85.670634 113.710252 
L 85.723788 113.602037 
L 85.833034 113.385607 
L 85.834844 113.385607 
L 85.893732 113.277392 
L 86.002273 113.033908 
L 86.003589 113.033908 
L 86.090276 112.925693 
L 86.198089 112.673192 
L 86.201379 112.673192 
L 86.267364 112.564977 
L 86.374425 112.321493 
L 86.378279 112.321493 
L 86.455449 112.213278 
L 86.563896 112.03292 
L 86.566457 112.03292 
L 86.628941 111.924705 
L 86.740608 111.663185 
L 86.80436 111.55497 
L 86.914476 111.38363 
L 86.973975 111.275415 
L 87.085148 111.058985 
L 87.153577 110.95077 
L 87.264609 110.68925 
L 87.31734 110.581035 
L 87.417023 110.364605 
L 87.428161 110.364605 
L 87.495932 110.25639 
L 87.604238 110.103086 
L 87.606752 110.103086 
L 87.660353 109.994871 
L 87.771832 109.769423 
L 87.831425 109.670226 
L 87.94147 109.39067 
L 87.942152 109.39067 
L 88.00863 109.282455 
L 88.119051 109.111115 
L 88.119521 109.111115 
L 88.223433 109.0029 
L 88.321847 108.777452 
L 88.334442 108.777452 
L 88.402542 108.669237 
L 88.513926 108.506914 
L 88.585668 108.398699 
L 88.696043 108.236377 
L 88.696701 108.236377 
L 88.753756 108.128162 
L 88.861757 107.938786 
L 88.864788 107.938786 
L 88.954906 107.830571 
L 89.064458 107.650212 
L 89.065915 107.650212 
L 89.178263 107.541997 
L 89.288849 107.325567 
L 89.288896 107.325567 
L 89.342026 107.217352 
L 89.448735 107.027976 
L 89.453129 107.027976 
L 89.52567 106.919761 
L 89.626363 106.784492 
L 89.636749 106.784492 
L 89.744844 106.676277 
L 89.848474 106.423776 
L 89.8559 106.423776 
L 89.932788 106.315561 
L 90.043327 106.162256 
L 90.04382 106.162256 
L 90.12515 106.054041 
L 90.234232 105.891719 
L 90.236229 105.891719 
L 90.317112 105.783504 
L 90.418204 105.621181 
L 90.427721 105.621181 
L 90.527121 105.512966 
L 90.601354 105.386715 
L 90.63813 105.386715 
L 90.687008 105.2785 
L 90.794445 105.044035 
L 90.798087 105.044035 
L 90.89831 104.93582 
L 91.009318 104.791533 
L 91.075209 104.683318 
L 91.185724 104.530013 
L 91.186312 104.530013 
L 91.266466 104.421798 
L 91.376864 104.19635 
L 91.377381 104.19635 
L 91.453705 104.088135 
L 91.557053 103.952867 
L 91.564691 103.952867 
L 91.662422 103.844652 
L 91.766593 103.664293 
L 91.773408 103.664293 
L 91.834552 103.556078 
L 91.928054 103.384738 
L 91.945419 103.384738 
L 92.044444 103.276523 
L 92.154066 103.087147 
L 92.155546 103.087147 
L 92.23744 102.978932 
L 92.346615 102.780537 
L 92.348284 102.780537 
L 92.439835 102.672322 
L 92.542831 102.473928 
L 92.550609 102.473928 
L 92.615372 102.365713 
L 92.715078 102.176337 
L 92.72584 102.176337 
L 92.776786 102.068122 
L 92.871463 101.941871 
L 92.887865 101.941871 
L 92.950513 101.833656 
L 93.060911 101.716423 
L 93.061616 101.716423 
L 93.117801 101.608208 
L 93.224862 101.418832 
L 93.228646 101.418832 
L 93.31108 101.310617 
L 93.402067 101.148295 
L 93.422182 101.148295 
L 93.510374 101.04008 
L 93.621758 100.904811 
L 93.703675 100.796596 
L 93.810172 100.679363 
L 93.814778 100.679363 
L 93.907481 100.571148 
L 94.018537 100.480969 
L 94.018584 100.480969 
L 94.097117 100.372754 
L 94.206058 100.201413 
L 94.207867 100.201413 
L 94.356074 100.093198 
L 94.455639 99.966948 
L 94.467012 99.966948 
L 94.550856 99.858733 
L 94.651267 99.777571 
L 94.661936 99.777571 
L 94.776869 99.669356 
L 94.888347 99.498016 
L 95.007416 99.389801 
L 95.10597 99.236496 
L 95.118378 99.236496 
L 95.218906 99.128281 
L 95.315157 99.029084 
L 95.329938 99.029084 
L 95.455328 98.920869 
L 95.559921 98.794618 
L 95.566431 98.794618 
L 95.63305 98.686403 
L 95.741356 98.44292 
L 95.743988 98.44292 
L 95.842049 98.334705 
L 95.949251 98.208454 
L 95.952494 98.208454 
L 96.014131 98.100239 
L 96.115529 97.874791 
L 96.125234 97.874791 
L 96.206751 97.766576 
L 96.318065 97.676397 
L 96.385108 97.568182 
L 96.496563 97.405859 
L 96.543091 97.297644 
L 96.654475 97.180411 
L 96.724055 97.072196 
L 96.818521 96.945946 
L 96.835111 96.945946 
L 96.922762 96.837731 
L 97.019272 96.747551 
L 97.033865 96.747551 
L 97.141748 96.639336 
L 97.253015 96.440942 
L 97.316133 96.332727 
L 97.397721 96.188441 
L 97.427118 96.188441 
L 97.530725 96.080226 
L 97.63459 95.917903 
L 97.641804 95.917903 
L 97.724214 95.809688 
L 97.833273 95.665401 
L 97.834988 95.665401 
L 97.946984 95.557186 
L 98.055337 95.403882 
L 98.057945 95.403882 
L 98.139721 95.295667 
L 98.23367 95.115309 
L 98.250566 95.115309 
L 98.355558 95.007094 
L 98.46551 94.880843 
L 98.466638 94.880843 
L 98.600346 94.772628 
L 98.708018 94.619323 
L 98.711449 94.619323 
L 98.798301 94.511108 
L 98.909638 94.384857 
L 98.973767 94.276642 
L 99.07453 94.123338 
L 99.084869 94.123338 
L 99.193082 94.015123 
L 99.303785 93.879854 
L 99.303949 93.879854 
L 99.479439 93.771639 
L 99.590918 93.627352 
L 99.700258 93.519137 
L 99.795381 93.41994 
L 99.810984 93.41994 
L 99.90552 93.311725 
L 100.016341 93.140385 
L 100.090316 93.03217 
L 100.175005 92.896901 
L 100.201324 92.896901 
L 100.329417 92.788686 
L 100.434269 92.698507 
L 100.440496 92.698507 
L 100.605011 92.590292 
L 100.676048 92.518149 
L 100.716067 92.518149 
L 100.830342 92.409934 
L 100.938084 92.292701 
L 100.941116 92.292701 
L 101.058328 92.184486 
L 101.159491 92.058235 
L 101.169431 92.058235 
L 101.320317 91.95002 
L 101.418002 91.841805 
L 101.431349 91.841805 
L 101.625191 91.73359 
L 101.736294 91.652429 
L 101.860391 91.544214 
L 101.965008 91.417963 
L 101.971306 91.417963 
L 102.091362 91.309748 
L 102.201689 91.201533 
L 102.202441 91.201533 
L 102.316598 91.093318 
L 102.427913 90.985103 
L 102.557885 90.876888 
L 102.664852 90.750637 
L 102.668941 90.750637 
L 102.759388 90.642422 
L 102.865532 90.579297 
L 102.870255 90.579297 
L 102.943689 90.471082 
L 103.048189 90.380902 
L 103.054745 90.380902 
L 103.183965 90.272687 
L 103.275117 90.182508 
L 103.295068 90.182508 
L 103.398909 90.074293 
L 103.503291 89.911971 
L 103.509942 89.911971 
L 103.64318 89.803756 
L 103.754494 89.668487 
L 104.008752 89.560272 
L 104.117834 89.415985 
L 104.119831 89.415985 
L 104.317245 89.30777 
L 104.428418 89.271699 
L 104.572419 89.163484 
L 104.647193 89.064287 
L 104.683452 89.064287 
L 104.880208 88.956072 
L 104.969903 88.847857 
L 104.991287 88.847857 
L 105.125606 88.739642 
L 105.236921 88.649463 
L 105.44552 88.541248 
L 105.556834 88.433033 
L 105.702151 88.324818 
L 105.809494 88.207585 
L 105.813136 88.207585 
L 105.91021 88.09937 
L 106.01196 88.027226 
L 106.021266 88.027226 
L 106.154246 87.919011 
L 106.265678 87.783743 
L 106.344751 87.675528 
L 106.426645 87.57633 
L 106.45576 87.57633 
L 106.562891 87.468115 
L 106.673688 87.350883 
L 106.673994 87.350883 
L 106.887904 87.242668 
L 106.952362 87.161506 
L 106.998913 87.161506 
L 107.186199 87.053291 
L 107.276763 86.981148 
L 107.297278 86.981148 
L 107.368714 86.872933 
L 107.472086 86.764718 
L 107.479817 86.764718 
L 107.593528 86.656503 
L 107.686678 86.521234 
L 107.704607 86.521234 
L 107.889614 86.413019 
L 107.984338 86.331858 
L 108.000623 86.331858 
L 108.1223 86.223643 
L 108.223932 86.142482 
L 108.233214 86.142482 
L 108.424871 86.034267 
L 108.52836 85.93507 
L 108.535809 85.93507 
L 108.696142 85.826855 
L 108.807456 85.727658 
L 109.005599 85.619443 
L 109.113529 85.520246 
L 109.11656 85.520246 
L 109.213094 85.412031 
L 109.322951 85.303816 
L 109.324173 85.303816 
L 109.598452 85.195601 
L 109.709883 85.114439 
L 109.919023 85.006224 
L 109.990554 84.934081 
L 110.030056 84.934081 
L 110.204112 84.825866 
L 110.313734 84.708633 
L 110.31512 84.708633 
L 110.454257 84.600418 
L 110.56395 84.474167 
L 110.565266 84.474167 
L 110.788623 84.365952 
L 110.898292 84.293809 
L 110.899631 84.293809 
L 111.03059 84.185594 
L 111.141952 84.077379 
L 111.289806 83.969164 
L 111.40105 83.906038 
L 111.519672 83.797823 
L 111.629671 83.72568 
L 111.63054 83.72568 
L 111.808943 83.617465 
L 111.920328 83.536304 
L 112.026144 83.428089 
L 112.131324 83.33791 
L 112.137223 83.33791 
L 112.306415 83.229695 
L 112.412042 83.157551 
L 112.417517 83.157551 
L 112.577169 83.049336 
L 112.685028 82.950139 
L 112.688224 82.950139 
L 112.90808 82.841924 
L 113.016738 82.724691 
L 113.018853 82.724691 
L 113.220591 82.616476 
L 113.328921 82.562369 
L 113.331647 82.562369 
L 113.450034 82.454154 
L 113.559821 82.382011 
L 113.561137 82.382011 
L 113.749245 82.273796 
L 113.851959 82.174599 
L 113.860348 82.174599 
L 114.082953 82.066384 
L 114.157561 81.99424 
L 114.193891 81.99424 
L 114.381717 81.886025 
L 114.491316 81.813882 
L 114.49282 81.813882 
L 114.646056 81.705667 
L 114.753634 81.615488 
L 114.756994 81.615488 
L 114.827679 81.507273 
L 114.921721 81.399058 
L 114.938546 81.399058 
L 115.186413 81.290843 
L 115.290536 81.191646 
L 115.297351 81.191646 
L 115.430801 81.083431 
L 115.541739 80.993251 
L 115.541856 80.993251 
L 115.723832 80.885036 
L 115.835028 80.848965 
L 116.042194 80.74075 
L 116.139174 80.677624 
L 116.153156 80.677624 
L 116.29946 80.569409 
L 116.41061 80.488248 
L 116.619797 80.380033 
L 116.718327 80.30789 
L 116.730876 80.30789 
L 116.961 80.199675 
L 117.072408 80.082442 
L 117.343961 79.974227 
L 117.44644 79.902084 
L 117.455017 79.902084 
L 117.623363 79.793869 
L 117.734653 79.721725 
L 117.916699 79.61351 
L 118.01523 79.505295 
L 118.027684 79.505295 
L 118.295806 79.39708 
L 118.368347 79.297883 
L 118.406909 79.297883 
L 118.566654 79.189668 
L 118.67153 79.099489 
L 118.677734 79.099489 
L 118.91056 78.991274 
L 119.020653 78.910113 
L 119.02164 78.910113 
L 119.218936 78.801898 
L 119.322895 78.711719 
L 119.330039 78.711719 
L 119.559881 78.603504 
L 119.671195 78.522342 
L 119.775906 78.414127 
L 119.867011 78.278859 
L 119.886962 78.278859 
L 120.03766 78.170644 
L 120.132925 78.107518 
L 120.148716 78.107518 
L 120.361263 77.999303 
L 120.473047 77.909124 
L 120.682845 77.800909 
L 120.776982 77.737784 
L 120.793948 77.737784 
L 120.955949 77.629569 
L 121.067498 77.53939 
L 121.26832 77.431175 
L 121.379657 77.340995 
L 121.569317 77.23278 
L 121.680936 77.133583 
L 121.860726 77.025368 
L 121.971946 76.953225 
L 122.102553 76.84501 
L 122.202611 76.781885 
L 122.213656 76.781885 
L 122.44432 76.67367 
L 122.555658 76.62858 
L 122.641452 76.520365 
L 122.734743 76.448222 
L 122.752532 76.448222 
L 123.038419 76.340007 
L 123.149545 76.303935 
L 123.349638 76.19572 
L 123.460905 76.132595 
L 123.643021 76.02438 
L 123.742022 75.97929 
L 123.754053 75.97929 
L 123.997243 75.871075 
L 124.093941 75.835003 
L 124.108299 75.835003 
L 124.448727 75.726788 
L 124.557409 75.627591 
L 124.55983 75.627591 
L 124.811738 75.519376 
L 124.888626 75.447233 
L 124.922746 75.447233 
L 125.203769 75.339018 
L 125.306318 75.293928 
L 125.314778 75.293928 
L 125.515482 75.185713 
L 125.626725 75.149642 
L 125.783909 75.041427 
L 125.895341 74.969283 
L 126.220894 74.861068 
L 126.332161 74.788925 
L 126.5828 74.68071 
L 126.694068 74.617585 
L 126.802397 74.50937 
L 126.913641 74.446244 
L 127.28974 74.338029 
L 127.392759 74.24785 
L 127.400796 74.24785 
L 127.659989 74.139635 
L 127.744937 74.067492 
L 127.771068 74.067492 
L 128.065344 73.959277 
L 128.138966 73.896151 
L 128.176447 73.896151 
L 128.428049 73.787936 
L 128.526556 73.688739 
L 128.539105 73.688739 
L 128.700777 73.580524 
L 128.782459 73.508381 
L 128.81188 73.508381 
L 128.918236 73.400166 
L 129.026777 73.309987 
L 129.029338 73.309987 
L 129.459344 73.201772 
L 129.570635 73.156682 
L 129.797117 73.048467 
L 129.908313 72.985342 
L 130.098631 72.877127 
L 130.209827 72.832037 
L 130.394129 72.723822 
L 130.499639 72.669715 
L 130.505161 72.669715 
L 130.809918 72.5615 
L 130.869488 72.507392 
L 130.920997 72.507392 
L 131.347666 72.399177 
L 131.441709 72.336052 
L 131.458769 72.336052 
L 131.91171 72.227837 
L 132.022906 72.191765 
L 132.350434 72.08355 
L 132.461959 72.002389 
L 132.743687 71.894174 
L 132.854978 71.858102 
L 133.165962 71.749887 
L 133.268863 71.69578 
L 133.277041 71.69578 
L 133.619537 71.587565 
L 133.722157 71.542475 
L 133.730593 71.542475 
L 133.933129 71.43426 
L 134.030062 71.371135 
L 134.044232 71.371135 
L 134.244936 71.26292 
L 134.355592 71.208812 
L 134.355992 71.208812 
L 134.574484 71.100597 
L 134.681709 71.037472 
L 134.68554 71.037472 
L 134.875246 70.929257 
L 134.970652 70.893185 
L 134.986349 70.893185 
L 135.157115 70.78497 
L 135.261356 70.712827 
L 135.268171 70.712827 
L 135.626082 70.604612 
L 135.727456 70.523451 
L 135.737185 70.523451 
L 135.964795 70.415236 
L 136.03884 70.35211 
L 136.07585 70.35211 
L 136.337111 70.243895 
L 136.395388 70.216841 
L 136.448166 70.216841 
L 136.764649 70.108626 
L 136.875869 70.027465 
L 137.08703 69.91925 
L 137.198156 69.892196 
L 137.488015 69.783981 
L 137.599235 69.711838 
L 138.073066 69.603623 
L 138.167367 69.540498 
L 138.184145 69.540498 
L 138.507231 69.432283 
L 138.618217 69.405229 
L 138.824184 69.297014 
L 138.922057 69.233889 
L 138.935263 69.233889 
L 139.295525 69.125674 
L 139.38334 69.071566 
L 139.406604 69.071566 
L 139.817434 68.963351 
L 139.928725 68.88219 
L 140.273688 68.773975 
L 140.383992 68.719867 
L 140.384791 68.719867 
L 140.679725 68.611652 
L 140.791345 68.512455 
L 141.096807 68.40424 
L 141.172779 68.350133 
L 141.207839 68.350133 
L 141.473047 68.241918 
L 141.580155 68.178792 
L 141.584103 68.178792 
L 141.934659 68.070577 
L 142.045832 68.034506 
L 142.302839 67.926291 
L 142.414107 67.863165 
L 142.602708 67.75495 
L 142.713952 67.700843 
L 143.012693 67.592628 
L 143.124054 67.53852 
L 143.455741 67.430305 
L 143.558901 67.358162 
L 143.56675 67.358162 
L 143.82606 67.249947 
L 143.937162 67.231911 
L 144.325364 67.123696 
L 144.429487 67.078607 
L 144.436466 67.078607 
L 144.686377 66.970392 
L 144.730061 66.93432 
L 144.797432 66.93432 
L 145.086938 66.826105 
L 145.198206 66.790033 
L 145.454061 66.681818 
L 145.565469 66.618693 
L 145.813618 66.510478 
L 145.916049 66.447352 
L 145.924697 66.447352 
L 146.20438 66.339137 
L 146.315859 66.257976 
L 146.586989 66.149761 
L 146.698044 66.104672 
L 147.108852 65.996457 
L 147.204962 65.951367 
L 147.219907 65.951367 
L 147.508544 65.843152 
L 147.619717 65.798062 
L 148.171565 65.689847 
L 148.282785 65.644758 
L 148.513614 65.536543 
L 148.614025 65.482435 
L 148.624693 65.482435 
L 148.995623 65.37422 
L 149.10682 65.320113 
L 149.57574 65.211898 
L 149.686043 65.166808 
L 149.686842 65.166808 
L 149.990518 65.058593 
L 150.101715 65.013504 
L 150.629499 64.905289 
L 150.738393 64.869217 
L 150.740579 64.869217 
L 151.055886 64.761002 
L 151.160762 64.706894 
L 151.166942 64.706894 
L 151.6294 64.598679 
L 151.740596 64.562608 
L 152.189754 64.454393 
L 152.300951 64.409303 
L 152.715001 64.301088 
L 152.826268 64.255999 
L 153.103766 64.147784 
L 153.191299 64.084658 
L 153.214869 64.084658 
L 153.500591 63.976443 
L 153.612164 63.913318 
L 153.81463 63.805103 
L 153.925803 63.778049 
L 154.464985 63.669834 
L 154.531863 63.64278 
L 154.5759 63.64278 
L 154.77994 63.534565 
L 154.891301 63.489476 
L 155.309276 63.381261 
L 155.420496 63.336171 
L 155.766047 63.227956 
L 155.847259 63.191885 
L 155.877126 63.191885 
L 156.332346 63.08367 
L 156.443496 63.03858 
L 156.769402 62.930365 
L 156.880551 62.894293 
L 157.305011 62.786078 
L 157.416372 62.731971 
L 157.92322 62.623756 
L 157.92322 62.614738 
L 158.034299 62.614738 
L 158.356868 62.506523 
L 158.468017 62.479469 
L 158.86677 62.371254 
L 158.973596 62.308129 
L 158.977825 62.308129 
L 159.582686 62.199914 
L 159.693883 62.163842 
L 160.265869 62.055627 
L 160.265869 62.046609 
L 160.376831 62.046609 
L 160.755327 61.938394 
L 160.866618 61.902322 
L 161.427959 61.794107 
L 161.53932 61.758036 
L 161.862758 61.649821 
L 161.973931 61.604731 
L 162.34566 61.496516 
L 162.408543 61.469463 
L 162.456716 61.469463 
L 163.223108 61.361248 
L 163.334163 61.343212 
L 163.792744 61.234997 
L 163.904128 61.198925 
L 164.439715 61.09071 
L 164.550935 61.04562 
L 165.006131 60.937405 
L 165.117422 60.892316 
L 165.442435 60.784101 
L 165.553608 60.757047 
L 166.064497 60.648832 
L 166.1756 60.639814 
L 166.689285 60.531599 
L 166.800552 60.495528 
L 167.237373 60.387313 
L 167.246725 60.360259 
L 167.348428 60.360259 
L 167.726666 60.252044 
L 167.838098 60.206954 
L 168.466716 60.098739 
L 168.577842 60.071685 
L 169.11935 59.96347 
L 169.2305 59.945435 
L 169.601664 59.83722 
L 169.712791 59.819184 
L 170.04967 59.710969 
L 170.154804 59.629808 
L 170.160773 59.629808 
L 170.609531 59.521593 
L 170.700989 59.467485 
L 170.720516 59.467485 
L 171.419655 59.35927 
L 171.530804 59.341234 
L 172.286551 59.233019 
L 172.362664 59.196948 
L 172.397654 59.196948 
L 172.658961 59.088733 
L 172.770628 59.043643 
L 173.288308 58.935428 
L 173.336763 58.917392 
L 173.399364 58.917392 
L 174.233997 58.809177 
L 174.345193 58.764088 
L 174.907216 58.655873 
L 175.018295 58.646855 
L 175.5215 58.53864 
L 175.63279 58.502568 
L 176.160387 58.394353 
L 176.267824 58.367299 
L 176.271466 58.367299 
L 176.533079 58.259084 
L 176.644205 58.241048 
L 177.049725 58.132833 
L 177.153708 58.096762 
L 177.160804 58.096762 
L 177.652166 57.988547 
L 177.732884 57.961493 
L 177.763198 57.961493 
L 178.329427 57.853278 
L 178.440623 57.835242 
L 178.785657 57.727027 
L 178.89683 57.699973 
L 179.718116 57.591758 
L 179.829289 57.564705 
L 180.714468 57.45649 
L 180.825665 57.438454 
L 181.481189 57.330239 
L 181.592386 57.294167 
L 182.258062 57.185952 
L 182.345149 57.149881 
L 182.369117 57.149881 
L 183.139551 57.041666 
L 183.250795 57.02363 
L 183.880847 56.915415 
L 183.992043 56.879343 
L 184.435937 56.771128 
L 184.512026 56.726038 
L 184.546875 56.726038 
L 185.203011 56.617823 
L 185.314513 56.563716 
L 185.884243 56.455501 
L 185.995346 56.446483 
L 186.622013 56.338268 
L 186.730578 56.293179 
L 186.733093 56.293179 
L 187.128038 56.184964 
L 187.239305 56.15791 
L 188.050933 56.049695 
L 188.162505 56.013623 
L 188.83751 55.905408 
L 188.925655 55.833265 
L 188.948613 55.833265 
L 189.588675 55.72505 
L 189.588675 55.716032 
L 189.699778 55.716032 
L 190.301372 55.607817 
L 190.34125 55.589781 
L 190.412405 55.589781 
L 190.945547 55.481566 
L 191.056744 55.445494 
L 191.660171 55.337279 
L 191.771462 55.301208 
L 192.646489 55.192993 
L 192.757803 55.165939 
L 193.640068 55.057724 
L 193.751429 55.03067 
L 194.21337 54.922455 
L 194.324543 54.913437 
L 194.91131 54.805222 
L 195.022389 54.787186 
L 195.772567 54.678971 
L 195.883623 54.660936 
L 196.45958 54.552721 
L 196.570448 54.534685 
L 196.570683 54.534685 
L 197.401579 54.42647 
L 197.512941 54.390398 
L 198.306474 54.282183 
L 198.4176 54.246111 
L 199.054349 54.137896 
L 199.165475 54.119861 
L 200.057163 54.011646 
L 200.168313 53.99361 
L 200.717646 53.885395 
L 200.828819 53.858341 
L 201.821576 53.750126 
L 201.93289 53.714054 
L 202.454612 53.605839 
L 202.551051 53.587804 
L 202.565668 53.587804 
L 203.247017 53.479589 
L 203.339086 53.452535 
L 203.358096 53.452535 
L 204.149115 53.34432 
L 204.260195 53.335302 
L 205.087049 53.227087 
L 205.198175 53.200033 
L 206.418307 53.091818 
L 206.529457 53.0828 
L 207.39767 52.974585 
L 207.497986 52.938514 
L 207.508749 52.938514 
L 208.336591 52.830299 
L 208.447928 52.776191 
L 209.371222 52.667976 
L 209.48256 52.622887 
L 210.097431 52.514672 
L 210.208557 52.496636 
L 210.936106 52.388421 
L 211.047232 52.379403 
L 211.686989 52.271188 
L 211.798139 52.26217 
L 212.33866 52.153955 
L 212.449809 52.135919 
L 213.145329 52.027704 
L 213.185911 52.00065 
L 213.256384 52.00065 
L 214.203929 51.892435 
L 214.315102 51.865382 
L 215.720452 51.757167 
L 215.831767 51.721095 
L 216.942229 51.61288 
L 217.053379 51.603862 
L 218.105846 51.495647 
L 218.105846 51.486629 
L 218.216949 51.486629 
L 219.086501 51.378414 
L 219.197604 51.360378 
L 219.911335 51.252163 
L 220.022508 51.225109 
L 221.393315 51.116894 
L 221.504464 51.107877 
L 222.348661 50.999662 
L 222.459764 50.990644 
L 223.602678 50.882429 
L 223.713875 50.846357 
L 224.768857 50.738142 
L 224.88003 50.729124 
L 226.152259 50.620909 
L 226.245925 50.57582 
L 226.263291 50.57582 
L 227.416263 50.467605 
L 227.527577 50.440551 
L 228.812284 50.332336 
L 228.923363 50.323318 
L 230.089917 50.215103 
L 230.20102 50.206085 
L 230.710687 50.09787 
L 230.735267 50.070816 
L 230.821766 50.070816 
L 232.00289 49.962601 
L 232.114016 49.92653 
L 233.353793 49.818315 
L 233.353793 49.809297 
L 233.464895 49.809297 
L 234.732542 49.701082 
L 234.798315 49.683046 
L 234.843598 49.683046 
L 235.715194 49.574831 
L 235.826297 49.556795 
L 238.102256 49.44858 
L 238.213453 49.430544 
L 239.06054 49.322329 
L 239.163865 49.295275 
L 239.17162 49.295275 
L 240.869084 49.18706 
L 240.98021 49.178042 
L 242.731346 49.069827 
L 242.842425 49.06081 
L 244.356058 48.952595 
L 244.466949 48.943577 
L 245.959903 48.835362 
L 246.071029 48.826344 
L 247.395002 48.718129 
L 247.485966 48.700093 
L 247.506081 48.700093 
L 248.984278 48.591878 
L 249.095427 48.573842 
L 251.262822 48.465627 
L 251.373948 48.447591 
L 252.992503 48.339376 
L 253.103606 48.330358 
L 254.432256 48.222143 
L 254.432256 48.213125 
L 254.543311 48.213125 
L 255.714941 48.10491 
L 255.826021 48.095893 
L 257.355867 47.987678 
L 257.375701 47.960624 
L 257.4669 47.960624 
L 259.168382 47.852409 
L 259.279673 47.816337 
L 261.255669 47.708122 
L 261.366819 47.699104 
L 262.805749 47.590889 
L 262.916828 47.572853 
L 265.261146 47.464638 
L 265.372201 47.45562 
L 268.376132 47.347405 
L 268.487212 47.338388 
L 269.95199 47.230173 
L 269.95199 47.221155 
L 270.062975 47.221155 
L 273.253205 47.11294 
L 273.364355 47.094904 
L 275.536027 46.986689 
L 275.647153 46.977671 
L 277.84089 46.869456 
L 277.952086 46.85142 
L 280.876004 46.743205 
L 280.987083 46.734187 
L 282.877661 46.625972 
L 282.8837 46.607936 
L 282.988764 46.607936 
L 286.378617 46.499721 
L 286.378617 46.490703 
L 286.489719 46.490703 
L 289.390514 46.382488 
L 289.50164 46.37347 
L 290.990223 46.265255 
L 291.101373 46.24722 
L 294.525557 46.139005 
L 294.525557 46.129987 
L 294.63666 46.129987 
L 297.98022 46.021772 
L 298.012367 46.003736 
L 298.091299 46.003736 
L 300.366624 45.895521 
L 300.366624 45.886503 
L 300.477657 45.886503 
L 303.705203 45.778288 
L 303.705203 45.76927 
L 303.816259 45.76927 
L 306.835417 45.661055 
L 306.937543 45.634001 
L 306.946472 45.634001 
L 310.830201 45.525786 
L 310.830201 45.516768 
L 310.941304 45.516768 
L 314.232015 45.408553 
L 314.232015 45.399536 
L 314.343 45.399536 
L 317.342443 45.291321 
L 317.453546 45.282303 
L 322.569297 45.174088 
L 322.680399 45.156052 
L 325.359999 45.047837 
L 325.471102 45.020783 
L 332.21234 44.912568 
L 332.323301 44.90355 
L 335.74664 44.795335 
L 335.74664 44.786317 
L 335.857719 44.786317 
L 346.239426 44.678102 
L 346.350552 44.660066 
L 353.961907 44.551851 
L 353.961907 44.542833 
L 354.073009 44.542833 
L 373.581818 44.443636 
L 373.581818 44.443636 
" style="fill:none;stroke:#ffffff;stroke-linecap:square;stroke-width:1.5;"/>
   </g>
   <g id="patch_3">
    <path d="M 54 252 
L 54 34.56 
" style="fill:none;stroke:#ffffff;stroke-linecap:square;stroke-linejoin:miter;stroke-width:0.8;"/>
   </g>
   <g id="patch_4">
    <path d="M 388.8 252 
L 388.8 34.56 
" style="fill:none;"/>
   </g>
   <g id="patch_5">
    <path d="M 54 252 
L 388.8 252 
" style="fill:none;stroke:#ffffff;stroke-linecap:square;stroke-linejoin:miter;stroke-width:0.8;"/>
   </g>
   <g id="patch_6">
    <path d="M 54 34.56 
L 388.8 34.56 
" style="fill:none;"/>
   </g>
   <g id="text_15">
    <!-- ROC Curve -->
    <defs>
     <path d="M 39.40625 66.21875 
Q 28.65625 66.21875 22.328125 58.203125 
Q 16.015625 50.203125 16.015625 36.375 
Q 16.015625 22.609375 22.328125 14.59375 
Q 28.65625 6.59375 39.40625 6.59375 
Q 50.140625 6.59375 56.421875 14.59375 
Q 62.703125 22.609375 62.703125 36.375 
Q 62.703125 50.203125 56.421875 58.203125 
Q 50.140625 66.21875 39.40625 66.21875 
z
M 39.40625 74.21875 
Q 54.734375 74.21875 63.90625 63.9375 
Q 73.09375 53.65625 73.09375 36.375 
Q 73.09375 19.140625 63.90625 8.859375 
Q 54.734375 -1.421875 39.40625 -1.421875 
Q 24.03125 -1.421875 14.8125 8.828125 
Q 5.609375 19.09375 5.609375 36.375 
Q 5.609375 53.65625 14.8125 63.9375 
Q 24.03125 74.21875 39.40625 74.21875 
z
" id="DejaVuSans-4f"/>
     <path d="M 64.40625 67.28125 
L 64.40625 56.890625 
Q 59.421875 61.53125 53.78125 63.8125 
Q 48.140625 66.109375 41.796875 66.109375 
Q 29.296875 66.109375 22.65625 58.46875 
Q 16.015625 50.828125 16.015625 36.375 
Q 16.015625 21.96875 22.65625 14.328125 
Q 29.296875 6.6875 41.796875 6.6875 
Q 48.140625 6.6875 53.78125 8.984375 
Q 59.421875 11.28125 64.40625 15.921875 
L 64.40625 5.609375 
Q 59.234375 2.09375 53.4375 0.328125 
Q 47.65625 -1.421875 41.21875 -1.421875 
Q 24.65625 -1.421875 15.125 8.703125 
Q 5.609375 18.84375 5.609375 36.375 
Q 5.609375 53.953125 15.125 64.078125 
Q 24.65625 74.21875 41.21875 74.21875 
Q 47.75 74.21875 53.53125 72.484375 
Q 59.328125 70.75 64.40625 67.28125 
z
" id="DejaVuSans-43"/>
    </defs>
    <g style="fill:#ffffff;" transform="translate(188.709375 28.56)scale(0.12 -0.12)">
     <use xlink:href="#DejaVuSans-52"/>
     <use x="69.482422" xlink:href="#DejaVuSans-4f"/>
     <use x="148.193359" xlink:href="#DejaVuSans-43"/>
     <use x="218.017578" xlink:href="#DejaVuSans-20"/>
     <use x="249.804688" xlink:href="#DejaVuSans-43"/>
     <use x="319.628906" xlink:href="#DejaVuSans-75"/>
     <use x="383.007812" xlink:href="#DejaVuSans-72"/>
     <use x="424.121094" xlink:href="#DejaVuSans-76"/>
     <use x="483.300781" xlink:href="#DejaVuSans-65"/>
    </g>
   </g>
  </g>
 </g>
 <defs>
  <clipPath id="p11bbab4598">
   <rect height="217.44" width="334.8" x="54" y="34.56"/>
  </clipPath>
 </defs>
</svg>
